<svg width="1920" height="836" viewBox="0 0 1920 836" fill="none" xmlns="http://www.w3.org/2000/svg">
<g clip-path="url(#clip0_6_2248)">
<mask id="mask0_6_2248" style="mask-type:luminance" maskUnits="userSpaceOnUse" x="0" y="-218" width="1920" height="1022">
<path d="M1920 -218H0V803.277H1920V-218Z" fill="white"/>
</mask>
<g mask="url(#mask0_6_2248)">
<path d="M1911.54 124.81C1867.76 123.701 1822.93 122.737 1781.37 136.561C1681.94 169.632 1621.45 279.721 1520.23 306.844C1452.55 324.98 1376.73 302.53 1312.7 330.975C1259.16 354.758 1220.07 409.621 1163 423.852C1068.63 447.384 1011.25 340.34 947.941 291.827C917.721 268.671 876.374 265.991 839.612 275.893C793.593 288.29 750.101 314.253 701.578 316.407C636.831 319.283 627.816 255.245 577.007 232.371C537.277 214.484 490.48 225.935 448.057 216.01C376.087 199.175 334.936 129.949 282.755 84.0466C160.839 -23.1976 -23.6058 45.1871 -101.527 169.154C-128.511 212.084 -127.186 235.234 -127.186 283.498C-127.186 377.126 -127.186 470.753 -127.186 564.382L2004.22 583.541V127.159C1973.33 126.377 1942.44 125.592 1911.54 124.81Z" fill="#FFF6EB"/>
</g>
<mask id="mask1_6_2248" style="mask-type:luminance" maskUnits="userSpaceOnUse" x="0" y="-218" width="1920" height="1022">
<path d="M1920 -218H0V803.277H1920V-218Z" fill="white"/>
</mask>
<g mask="url(#mask1_6_2248)">
<path d="M501.884 537.675C494.137 547.541 479.773 548.409 467.23 548.437C283.578 548.858 90.6996 554.104 -92.9525 554.524C-100.767 526.419 -106.162 497.641 -109.054 468.612C-109.742 461.711 -106.828 450.726 -112.012 446.118C-103.944 441.747 -90.287 439.571 -81.4448 442.021C-32.8443 430.821 16.0851 419.575 65.9111 417.363C213.016 410.829 353.433 482.951 500.587 488.258C502.307 507.262 502.092 518.594 501.884 537.675Z" fill="#EDDB74"/>
<path d="M1531.7 564.41H2001.93C2010.11 564.41 2025.78 563.295 2033.95 563.295V460.469C1799.7 392.166 1541.94 407.669 1317.57 503.556C1392.28 520.689 1456.99 547.279 1531.7 564.41Z" fill="#EDDB74"/>
<path d="M1197.82 524.458C1161.82 509.557 1125.82 494.659 1089.81 479.759C1062.56 468.48 1035.18 457.158 1006.56 450.025C893.331 421.807 775.423 461.431 665.723 501.212C786.718 560.593 923.767 591.045 1057.76 576.461C1105.15 571.302 1158.79 551.84 1197.82 524.458Z" fill="#EDDB74"/>
<path d="M2043.36 827.979C2045.3 817.932 2047.24 681.896 2049.18 671.849C2054.93 642.034 2047.79 607.116 2042.98 577.193C1923.06 568.263 1804.9 540.453 1686.52 522.558C1566.45 504.406 1460.82 468.984 1339.29 463.114C1223.11 457.501 1099.09 513.857 984.347 523.492C894.403 531.043 810.072 493.603 723.454 476.57C631.933 458.573 575.82 455.792 483.689 468.028C405.385 478.429 292.569 525.183 212.483 522.561C102.238 518.949 -3.48871 460.469 -111.24 441.271C-116.046 503.056 -106.742 803.659 -110.216 827.984" fill="#D8C850"/>
</g>
<mask id="mask2_6_2248" style="mask-type:luminance" maskUnits="userSpaceOnUse" x="0" y="-218" width="1920" height="1022">
<path d="M1920 -218H0V803.277H1920V-218Z" fill="white"/>
</mask>
<g mask="url(#mask2_6_2248)">
<path d="M575.214 831.985C706.952 694.119 870.642 624.306 1004.21 589.099C1329.74 503.291 1666.15 524.64 1999.72 525.577C2060.99 525.749 2087.55 522.556 2087.55 522.556V827.979L575.214 831.985Z" fill="#9B7D00"/>
</g>
<mask id="mask3_6_2248" style="mask-type:luminance" maskUnits="userSpaceOnUse" x="0" y="-218" width="1920" height="1022">
<path d="M1920 -218H0V803.277H1920V-218Z" fill="white"/>
</mask>
<g mask="url(#mask3_6_2248)">
<path d="M836.274 648.594C831.985 638.794 827.406 628.606 819.099 621.865C810.287 614.714 798.293 612.455 786.981 613.38C782.453 613.75 777.175 614.287 771.787 615.047C761.125 616.55 750.454 611.085 746.055 601.258C739.308 586.184 722.972 574.944 706.309 576.913C700.059 577.652 693.33 579.838 687.781 576.87C683.205 574.425 680.985 569.241 678.42 564.733C666.514 543.799 641.368 532.665 617.288 533.102C601.236 533.394 585.684 538.159 571.278 545.427C559.997 551.117 546.583 550.212 536.313 542.851C521.19 532.011 500.605 528.194 481.889 531.268C456.178 535.494 429.061 557.862 409.001 574.494C455.724 579.09 500.278 582.816 546.867 589.217C647.083 602.988 748.108 623.389 836.274 648.594Z" fill="#1C4732"/>
<path d="M298.311 588.894C297.028 574.705 291.901 560.881 283.621 549.285C263.381 520.949 226.348 508.55 191.536 509.408C163.204 510.107 136.931 515.193 113.382 529.166C105.77 533.682 96.0837 532.483 89.76 526.29C86.9923 523.58 84.1736 520.932 81.0117 518.714C68.3315 509.823 51.3089 508.934 36.4228 513.201C29.0247 515.322 22.7234 518.189 16.753 521.702C6.56066 527.697 -6.50964 525.297 -14.159 516.282C-18.5873 511.063 -22.6683 506.528 -23.6446 505.687C-61.1316 473.369 -108.886 496.301 -136.265 529.832C-149.249 545.733 -157.789 563.197 -161.354 583.328C-162.201 588.114 -164.791 628.785 -169.293 629.776C-18.9182 596.727 144.421 593.807 298.311 588.894Z" fill="#1C4732"/>
</g>
<mask id="mask4_6_2248" style="mask-type:luminance" maskUnits="userSpaceOnUse" x="0" y="-218" width="1927" height="1022">
<path d="M1920 803.277H0V-218H1926.95L1920 803.277Z" fill="white"/>
</mask>
<g mask="url(#mask4_6_2248)">
<path d="M-102.534 836.217L540.833 832.444C540.833 832.444 597.467 816.564 611.064 803.277C628.941 785.805 653.619 765.931 685.697 741.287C753.441 689.245 840.647 647.072 840.647 647.072C836.646 645.857 832.596 644.652 828.498 643.461C577.983 570.577 152.675 542.745 -104.479 581.578L-102.534 836.217Z" fill="#B7A018"/>
<path d="M455.853 711.18C482.461 714.023 513.571 717.013 540.182 719.856C587.7 724.934 635.563 730.081 681.245 744.116C671.555 748.9 611.524 800.58 582.162 831.984C581.255 831.984 359.013 834.027 359.013 834.027L338.077 711.474C338.077 711.474 455.857 711.678 455.853 711.18Z" fill="#B7A018"/>
<path d="M356.834 705.267C368.587 760.642 378.244 833.347 378.244 834.707" stroke="#937E02" stroke-miterlimit="10"/>
<path d="M381.345 705.267C381.99 709.431 402.755 833.347 402.755 834.707" stroke="#937E02" stroke-miterlimit="10"/>
<path d="M407.898 705.267C408.543 709.431 429.308 833.347 429.308 834.707" stroke="#937E02" stroke-miterlimit="10"/>
<path d="M435.472 705.267C436.118 709.431 456.882 833.347 456.882 834.707" stroke="#937E02" stroke-miterlimit="10" stroke-linecap="round" stroke-linejoin="round"/>
<path d="M465.055 714.879C465.7 719.044 484.459 833.347 484.459 834.709" stroke="#937E02" stroke-miterlimit="10" stroke-linecap="round" stroke-linejoin="round"/>
<path d="M489.904 719.644C490.55 723.809 508.967 833.347 508.967 834.707" stroke="#937E02" stroke-miterlimit="10" stroke-linecap="round" stroke-linejoin="round"/>
<path d="M518.5 723.729C519.145 727.894 536.203 830.622 536.203 831.984" stroke="#937E02" stroke-miterlimit="10" stroke-linecap="round" stroke-linejoin="round"/>
<path d="M550.501 730.537C551.146 734.702 566.161 830.622 566.161 831.985" stroke="#937E02" stroke-miterlimit="10" stroke-linecap="round" stroke-linejoin="round"/>
<path d="M578.586 730.537C579.082 733.746 588.106 791.399 592.226 818.338" stroke="#937E02" stroke-miterlimit="10" stroke-linecap="round" stroke-linejoin="round"/>
<path d="M614.33 737.175C614.69 739.496 618.61 768.059 622.01 793.149" stroke="#937E02" stroke-miterlimit="10" stroke-linecap="round" stroke-linejoin="round"/>
<path d="M647.522 742.792C647.596 743.27 649.066 753.087 650.986 765.933" stroke="#937E02" stroke-miterlimit="10" stroke-linecap="round" stroke-linejoin="round"/>
<path d="M266.586 642.027C266.586 642.027 272.033 586.368 274.756 565.772C344.767 568.436 432.194 571.933 510.16 583.814C494.551 620.505 471.46 674.489 455.851 711.18C455.694 712.299 338.075 711.474 338.075 711.474L266.586 642.027Z" fill="#937E02"/>
<path d="M275.777 574.708C275.267 575.73 429.269 585.136 502.842 593.006" stroke="#776300" stroke-miterlimit="10" stroke-linecap="round" stroke-linejoin="round"/>
<path d="M275.097 594.452C274.587 595.473 421.951 606.411 495.523 614.281" stroke="#776300" stroke-miterlimit="10" stroke-linecap="round" stroke-linejoin="round"/>
<path d="M270.15 618.19C269.664 619.224 412.596 628.201 486.332 634.365" stroke="#776300" stroke-miterlimit="10" stroke-linecap="round" stroke-linejoin="round"/>
<path d="M267.352 641.772C267.83 641.137 397.56 649.517 475.66 655.649" stroke="#776300" stroke-miterlimit="10" stroke-linecap="round" stroke-linejoin="round"/>
<path d="M297.218 669.218C334.48 671.191 410.976 674.706 468.339 678.562" stroke="#776300" stroke-miterlimit="10" stroke-linecap="round" stroke-linejoin="round"/>
<path d="M322.76 694.596C360.668 694.794 414.43 695.023 459.123 695.891" stroke="#776300" stroke-miterlimit="10" stroke-linecap="round" stroke-linejoin="round"/>
<path d="M274.756 565.773L267.266 643.048L-102.947 680.836C-104.479 679.814 -104.989 583.876 -104.479 581.578C-89.1595 578.6 -69.5347 577.015 -51.0312 574.964C43.2817 564.512 151.813 558.942 274.756 565.773Z" fill="#99850B"/>
<path d="M77.3984 566.159C77.5925 571.406 78.5933 577.775 79.0958 583.002C81.6 609.089 84.1021 635.179 86.6063 661.266" stroke="#B7A018" stroke-miterlimit="10" stroke-linecap="round" stroke-linejoin="round"/>
<path d="M46.6642 567.746C46.8582 572.993 52.8674 639.439 55.3716 665.527" stroke="#B7A018" stroke-miterlimit="10" stroke-linecap="round" stroke-linejoin="round"/>
<path d="M15.0986 571.208C15.2927 576.455 15.7951 581.684 16.2956 586.911C18.7997 612.999 21.3019 640.792 23.806 666.879" stroke="#B7A018" stroke-miterlimit="10" stroke-linecap="round" stroke-linejoin="round"/>
<path d="M107.994 564.666L116.928 657.747" stroke="#B7A018" stroke-miterlimit="10" stroke-linecap="round" stroke-linejoin="round"/>
<path d="M143.502 564.666L151.504 653.545" stroke="#B7A018" stroke-miterlimit="10" stroke-linecap="round" stroke-linejoin="round"/>
<path d="M169.548 563.985L177.698 650.878" stroke="#B7A018" stroke-miterlimit="10" stroke-linecap="round" stroke-linejoin="round"/>
<path d="M195.777 563.985L203.181 646.964" stroke="#B7A018" stroke-miterlimit="10" stroke-linecap="round" stroke-linejoin="round"/>
<path d="M223.968 565.495L230.161 644.809" stroke="#B7A018" stroke-miterlimit="10" stroke-linecap="round" stroke-linejoin="round"/>
<path d="M250.693 565.495L255.352 642.027" stroke="#B7A018" stroke-miterlimit="10" stroke-linecap="round" stroke-linejoin="round"/>
<path d="M102.246 659.892C115.067 723.074 116.119 836.07 116.119 836.07C116.119 837.432 358.503 832.665 358.503 832.665C358.503 832.665 343.423 745.338 338.077 711.474C338.077 711.474 290.831 661.746 266.588 642.027C214.774 645.312 102.246 659.892 102.246 659.892Z" fill="#AA9011"/>
<path d="M109.25 682.954L301.82 678.564" stroke="#937E02" stroke-miterlimit="10" stroke-linecap="round" stroke-linejoin="round"/>
<path d="M112.461 659.941L281.07 656.099" stroke="#937E02" stroke-miterlimit="10" stroke-linecap="round" stroke-linejoin="round"/>
<path d="M112.461 709.432L325.309 702.322" stroke="#937E02" stroke-miterlimit="10" stroke-linecap="round" stroke-linejoin="round"/>
<path d="M112.461 738.028L338.075 731.9" stroke="#937E02" stroke-miterlimit="10" stroke-linecap="round" stroke-linejoin="round"/>
<path d="M117.353 766.623L342.967 760.496" stroke="#937E02" stroke-miterlimit="10" stroke-linecap="round" stroke-linejoin="round"/>
<path d="M117.353 796.461L342.967 790.333" stroke="#937E02" stroke-miterlimit="10" stroke-linecap="round" stroke-linejoin="round"/>
<path d="M75.0719 661.396C78.7179 720.369 83.3402 779.28 88.9347 838.1" stroke="#99850B" stroke-miterlimit="10"/>
<path d="M41.0205 661.396C44.6665 720.369 49.2888 779.28 54.8813 838.1" stroke="#99850B" stroke-miterlimit="10"/>
<path d="M12.5228 661.396C16.1688 720.369 20.7911 779.28 26.3856 838.1" stroke="#99850B" stroke-miterlimit="10"/>
<path d="M453.821 712.154L510.097 583.718C510.097 583.718 535.261 586.359 566.841 590.622C601.742 595.332 644.256 601.877 664.373 605.772C665.917 606.07 667.582 606.387 669.355 606.717C689.031 610.4 722.139 616.097 753.055 623.303C800.197 634.29 844.118 648.386 844.118 648.386L681.243 744.116L453.821 712.154Z" fill="#AA9011"/>
<path d="M475.778 716.411C492.174 681.365 512.748 627.893 534.289 587.773" stroke="#B7A018" stroke-width="1.5" stroke-miterlimit="10" stroke-linecap="round" stroke-linejoin="round"/>
<path d="M500.799 716.922C517.195 681.875 536.238 631.339 557.778 591.219" stroke="#B7A018" stroke-width="1.5" stroke-miterlimit="10" stroke-linecap="round" stroke-linejoin="round"/>
<path d="M521.905 727.134C538.301 692.088 561.004 634.402 582.542 594.282" stroke="#B7A018" stroke-width="1.5" stroke-miterlimit="10" stroke-linecap="round" stroke-linejoin="round"/>
<path d="M552.543 727.134C568.939 692.088 589.215 638.742 610.756 598.623" stroke="#B7A018" stroke-width="1.5" stroke-miterlimit="10" stroke-linecap="round" stroke-linejoin="round"/>
<path d="M584.203 731.899C600.598 696.853 620.109 643.593 641.65 603.474" stroke="#B7A018" stroke-width="1.5" stroke-miterlimit="10" stroke-linecap="round" stroke-linejoin="round"/>
<path d="M611.097 736.665C627.346 701.933 648.073 648.228 669.41 608.219" stroke="#B7A018" stroke-width="1.5" stroke-miterlimit="10" stroke-linecap="round" stroke-linejoin="round"/>
<path d="M645.821 742.792C661.998 708.214 682.615 654.83 703.851 614.875" stroke="#B7A018" stroke-width="1.5" stroke-miterlimit="10" stroke-linecap="round" stroke-linejoin="round"/>
<path d="M681.224 742.792C696.692 709.729 716.221 659.47 736.469 620.2" stroke="#B7A018" stroke-width="1.5" stroke-miterlimit="10" stroke-linecap="round" stroke-linejoin="round"/>
<path d="M726.683 714.129C738.465 686.908 751.719 655.126 765.402 627.606" stroke="#B7A018" stroke-width="1.5" stroke-miterlimit="10" stroke-linecap="round" stroke-linejoin="round"/>
<path d="M775.878 685.268C782.909 668.995 790.286 652.236 797.827 636.502" stroke="#B7A018" stroke-width="1.5" stroke-miterlimit="10" stroke-linecap="round" stroke-linejoin="round"/>
</g>
<path d="M1146.89 381.044C1180.48 381.044 1207.71 353.813 1207.71 320.221C1207.71 286.629 1180.48 259.398 1146.89 259.398C1113.3 259.398 1086.07 286.629 1086.07 320.221C1086.07 353.813 1113.3 381.044 1146.89 381.044Z" fill="#EF920F"/>
<path d="M310.766 475.161L306.743 567.319L322.358 568.007C322.736 564.948 322.576 475.161 322.576 475.161" fill="#CA5B17"/>
<path d="M371.986 491.718C371.986 491.718 397.757 474.689 387.632 452.601C380.597 437.253 364.906 432.635 352.945 433.965C350.778 425.627 340.692 402.131 313.518 400.085C296.812 398.827 279.188 405.998 268.763 418.962C259.102 430.976 262.458 450.299 262.458 450.299C254.159 462.552 252.445 487.153 260.26 498.767C271.533 515.52 294.193 523.332 313.446 517.395C313.446 517.395 328.727 530.069 350.817 521.596C369.161 514.56 371.986 491.718 371.986 491.718Z" fill="#1C4732"/>
<path d="M314.678 422.804C314.678 424.695 313.144 426.229 311.25 426.229C309.357 426.229 307.823 424.695 307.823 422.804C307.823 420.911 309.357 419.377 311.25 419.377C313.144 419.377 314.678 420.913 314.678 422.804Z" fill="#EF920F"/>
<path d="M289.765 446.97C288.08 447.83 286.015 447.162 285.155 445.475C284.295 443.789 284.965 441.724 286.65 440.865C288.335 440.005 290.4 440.675 291.26 442.36C292.12 444.047 291.45 446.11 289.765 446.97Z" fill="#EF920F"/>
<path d="M314.678 458.561C316.571 458.561 318.105 457.026 318.105 455.133C318.105 453.241 316.571 451.706 314.678 451.706C312.785 451.706 311.25 453.241 311.25 455.133C311.25 457.026 312.785 458.561 314.678 458.561Z" fill="#EF920F"/>
<path d="M399.16 476.897L394.987 572.47L410.743 573.261C411.121 570.201 410.97 476.897 410.97 476.897" fill="#CA5B17"/>
<path d="M346.713 491.718C346.713 491.718 320.942 474.689 331.065 452.601C338.1 437.253 353.791 432.635 365.752 433.965C367.919 425.627 378.005 402.131 405.179 400.085C421.885 398.827 439.508 405.998 449.934 418.962C459.595 430.976 456.239 450.299 456.239 450.299C464.538 462.552 470.608 484.671 461.18 500.256C447.395 523.042 424.502 523.332 405.249 517.395C405.249 517.395 389.968 530.069 367.878 521.596C349.538 514.56 346.713 491.718 346.713 491.718Z" fill="#34684E"/>
<path d="M388.279 443.918C388.279 445.811 386.745 447.345 384.852 447.345C382.96 447.345 381.427 445.811 381.427 443.918C381.427 442.027 382.96 440.493 384.852 440.493C386.745 440.493 388.279 442.027 388.279 443.918Z" fill="#EF920F"/>
<path d="M363.809 468.388C363.809 470.279 362.275 471.813 360.382 471.813C358.491 471.813 356.957 470.279 356.957 468.388C356.957 466.494 358.491 464.96 360.382 464.96C362.275 464.96 363.809 466.494 363.809 468.388Z" fill="#EF920F"/>
<path d="M428.526 447.346C430.419 447.346 431.953 445.811 431.953 443.918C431.953 442.025 430.419 440.491 428.526 440.491C426.633 440.491 425.098 442.025 425.098 443.918C425.098 445.811 426.633 447.346 428.526 447.346Z" fill="#EF920F"/>
<path d="M407.412 419.377C407.412 421.27 405.878 422.804 403.984 422.804C402.093 422.804 400.557 421.27 400.557 419.377C400.557 417.485 402.091 415.951 403.984 415.951C405.878 415.951 407.412 417.485 407.412 419.377Z" fill="#EF920F"/>
<path d="M407.412 472.024C407.412 473.915 405.878 475.451 403.984 475.451C402.093 475.451 400.557 473.917 400.557 472.024C400.557 470.132 402.091 468.596 403.984 468.596C405.878 468.598 407.412 470.132 407.412 472.024Z" fill="#EF920F"/>
<path d="M1547.63 308.989C1537.14 301.123 1531.13 292.698 1524.25 278.765C1518.49 267.094 1523.69 252.459 1536.41 246.47C1543.43 263.945 1548.35 279.127 1560.15 291.135C1563.3 294.34 1564.1 295.012 1564.1 295.012" fill="#28523E"/>
<path d="M1529.32 310.749L1561.76 278.865L1593.52 298.084L1649.8 215.838L1661.22 242.663L1671.79 288.884L1622.18 355.965C1611.66 370.194 1591.39 372.761 1577.65 361.605L1529.32 310.749Z" fill="#FFC05C"/>
<path d="M1539.65 320.149C1550.28 309.103 1561.99 297.704 1571.86 285.979" stroke="#E58800" stroke-width="0.81" stroke-miterlimit="10" stroke-linecap="round" stroke-linejoin="round"/>
<path d="M1537.01 304.579L1546.27 313.337" stroke="#E58800" stroke-width="0.81" stroke-miterlimit="10" stroke-linecap="round" stroke-linejoin="round"/>
<path d="M1544.58 297.8C1547.79 300.837 1550.18 302.973 1553.56 305.829" stroke="#E58800" stroke-width="0.81" stroke-miterlimit="10" stroke-linecap="round" stroke-linejoin="round"/>
<path d="M1552.07 289.807C1555.18 292.338 1558.28 294.869 1561.39 297.397" stroke="#E58800" stroke-width="0.81" stroke-miterlimit="10" stroke-linecap="round" stroke-linejoin="round"/>
<path d="M1558.8 284.172L1566.95 290.363" stroke="#E58800" stroke-width="0.81" stroke-miterlimit="10" stroke-linecap="round" stroke-linejoin="round"/>
<path d="M1811.2 219.503V354.432C1811.2 363.768 1803.63 371.338 1794.3 371.338H1664.54C1655.18 371.338 1647.61 363.741 1647.63 354.389L1647.99 216.443C1666.62 209.28 1694.39 202.809 1713.02 195.646C1712.69 195.646 1741.47 196.626 1741.47 196.626C1741.47 196.626 1787.66 207.116 1811.2 219.503Z" fill="#FFC05C"/>
<path d="M1751.36 199.645C1751.36 210.356 1740.95 219.041 1728.11 219.041C1715.27 219.041 1704.87 210.358 1704.87 199.645" stroke="#E58800" stroke-width="0.81" stroke-miterlimit="10" stroke-linecap="round" stroke-linejoin="round"/>
<path d="M1728.26 208.399V218.449" stroke="#E58800" stroke-width="0.81" stroke-miterlimit="10" stroke-linecap="round" stroke-linejoin="round"/>
<path d="M1735.87 206.673C1738.41 209.065 1741.06 211.338 1743.8 213.485" stroke="#E58800" stroke-width="0.81" stroke-miterlimit="10" stroke-linecap="round" stroke-linejoin="round"/>
<path d="M1741.87 201.344C1744.36 203.037 1746.99 204.518 1749.73 205.762" stroke="#E58800" stroke-width="0.81" stroke-miterlimit="10" stroke-linecap="round" stroke-linejoin="round"/>
<path d="M1717.43 204.106C1714.9 206.498 1712.25 208.771 1709.5 210.918" stroke="#E58800" stroke-width="0.81" stroke-miterlimit="10" stroke-linecap="round" stroke-linejoin="round"/>
<path d="M1714 199.418L1705.53 203.95" stroke="#E58800" stroke-width="0.81" stroke-miterlimit="10" stroke-linecap="round" stroke-linejoin="round"/>
<path d="M1717.66 216.126L1721.97 207.733" stroke="#E58800" stroke-width="0.81" stroke-miterlimit="10" stroke-linecap="round" stroke-linejoin="round"/>
<path d="M1555.28 258.491C1542.81 244.614 1529.44 214.604 1524.2 202.182C1522.9 199.083 1523.85 195.535 1526.46 193.413C1527.54 192.535 1528.56 191.644 1529.62 190.762C1532.52 188.323 1536.8 188.492 1539.56 191.101C1556.02 206.675 1572.45 221.453 1590.53 235.299" fill="#EF920F"/>
<path d="M1526.11 204.067C1530.22 201.017 1535.95 196.763 1540.06 193.715" stroke="#D37300" stroke-width="0.8868" stroke-miterlimit="10" stroke-linecap="round"/>
<path d="M1529.32 211.567C1533.43 208.518 1541.15 201.961 1545.26 198.911" stroke="#D37300" stroke-width="0.8868" stroke-miterlimit="10" stroke-linecap="round"/>
<path d="M1533.16 219.431C1537.27 216.381 1548.41 207.114 1552.52 204.067" stroke="#D37300" stroke-width="0.8868" stroke-miterlimit="10" stroke-linecap="round"/>
<path d="M1536.84 227.571C1540.95 224.521 1554.75 213.134 1558.86 210.084" stroke="#D37300" stroke-width="0.8868" stroke-miterlimit="10" stroke-linecap="round"/>
<path d="M1541.17 237.115C1545.28 234.066 1561.94 219.447 1566.05 216.4" stroke="#D37300" stroke-width="0.8868" stroke-miterlimit="10" stroke-linecap="round"/>
<path d="M1531.36 190.819C1532.33 191.826 1573.7 233.002 1573.7 233.002" stroke="#D37300" stroke-width="0.8868" stroke-miterlimit="10" stroke-linecap="round"/>
<path d="M1526.11 194.812L1556.34 239.983" stroke="#D37300" stroke-width="0.8868" stroke-miterlimit="10" stroke-linecap="round"/>
<path d="M1572.15 247.361C1564.72 230.242 1561.57 197.541 1560.55 184.101C1560.29 180.747 1562.32 177.685 1565.47 176.503C1566.77 176.012 1568.02 175.492 1569.3 174.989C1572.83 173.6 1576.84 175.12 1578.62 178.468C1589.29 198.462 1600.18 217.689 1612.93 236.558" fill="#EF920F"/>
<path d="M1561.76 186.493C1566.62 184.906 1573.41 182.691 1578.27 181.102" stroke="#D37300" stroke-width="0.8868" stroke-miterlimit="10" stroke-linecap="round"/>
<path d="M1562.42 194.624C1567.28 193.037 1576.69 189.271 1581.55 187.684" stroke="#D37300" stroke-width="0.8868" stroke-miterlimit="10" stroke-linecap="round"/>
<path d="M1563.57 203.301C1568.43 201.714 1581.93 196.46 1586.8 194.873" stroke="#D37300" stroke-width="0.8868" stroke-miterlimit="10" stroke-linecap="round"/>
<path d="M1564.47 212.188C1569.33 210.601 1586.04 204.183 1590.91 202.596" stroke="#D37300" stroke-width="0.8868" stroke-miterlimit="10" stroke-linecap="round"/>
<path d="M1565.55 222.611C1570.41 221.024 1590.85 212.452 1595.72 210.865" stroke="#D37300" stroke-width="0.8868" stroke-miterlimit="10" stroke-linecap="round"/>
<path d="M1570.94 175.598C1571.54 176.858 1597.7 229.035 1597.7 229.035" stroke="#D37300" stroke-width="0.8868" stroke-miterlimit="10" stroke-linecap="round"/>
<path d="M1564.69 177.718L1579.02 230.146" stroke="#D37300" stroke-width="0.8868" stroke-miterlimit="10" stroke-linecap="round"/>
<path d="M1593.52 228.539C1594.54 209.907 1606.37 179.256 1611.47 166.78C1612.74 163.667 1615.93 161.837 1619.27 162.191C1620.66 162.336 1622.01 162.43 1623.38 162.552C1627.16 162.891 1630.06 166.043 1630.16 169.836C1630.74 192.49 1631.87 214.558 1634.83 237.14" fill="#EF920F"/>
<path d="M1611.48 169.462C1616.54 170.22 1623.6 171.278 1628.66 172.038" stroke="#D37300" stroke-width="0.8868" stroke-miterlimit="10" stroke-linecap="round"/>
<path d="M1608.43 177.03C1613.49 177.788 1623.59 178.631 1628.65 179.389" stroke="#D37300" stroke-width="0.8868" stroke-miterlimit="10" stroke-linecap="round"/>
<path d="M1605.58 185.302C1610.63 186.06 1625.06 187.408 1630.12 188.166" stroke="#D37300" stroke-width="0.8868" stroke-miterlimit="10" stroke-linecap="round"/>
<path d="M1602.4 193.652C1607.46 194.41 1625.28 196.154 1630.34 196.912" stroke="#D37300" stroke-width="0.8868" stroke-miterlimit="10" stroke-linecap="round"/>
<path d="M1598.7 203.454C1603.76 204.212 1625.88 205.701 1630.94 206.459" stroke="#D37300" stroke-width="0.8868" stroke-miterlimit="10" stroke-linecap="round"/>
<path d="M1624.58 163.833C1624.54 165.226 1624.57 223.594 1624.57 223.594" stroke="#D37300" stroke-width="0.8868" stroke-miterlimit="10" stroke-linecap="round"/>
<path d="M1618.04 162.932L1607.37 216.226" stroke="#D37300" stroke-width="0.8868" stroke-miterlimit="10" stroke-linecap="round"/>
<path d="M1635.32 222.258C1629.13 204.653 1628.32 171.811 1628.26 158.33C1628.25 154.968 1630.49 152.057 1633.71 151.101C1635.05 150.705 1636.33 150.276 1637.64 149.866C1641.26 148.732 1645.15 150.534 1646.7 154C1655.91 174.703 1665.4 194.659 1676.77 214.39" fill="#EF920F"/>
<path d="M1629.3 160.804C1634.27 159.568 1641.19 157.842 1646.16 156.606" stroke="#D37300" stroke-width="0.8868" stroke-miterlimit="10" stroke-linecap="round"/>
<path d="M1629.38 168.962C1634.34 167.726 1643.99 164.64 1648.96 163.402" stroke="#D37300" stroke-width="0.8868" stroke-miterlimit="10" stroke-linecap="round"/>
<path d="M1629.91 177.7C1634.87 176.464 1648.71 172.187 1653.68 170.949" stroke="#D37300" stroke-width="0.8868" stroke-miterlimit="10" stroke-linecap="round"/>
<path d="M1630.17 186.626C1635.14 185.39 1652.26 180.181 1657.23 178.944" stroke="#D37300" stroke-width="0.8868" stroke-miterlimit="10" stroke-linecap="round"/>
<path d="M1630.5 197.102C1635.47 195.866 1656.47 188.772 1661.43 187.537" stroke="#D37300" stroke-width="0.8868" stroke-miterlimit="10" stroke-linecap="round"/>
<path d="M1639.24 150.591C1639.74 151.89 1662.11 205.799 1662.11 205.799" stroke="#D37300" stroke-width="0.8868" stroke-miterlimit="10" stroke-linecap="round"/>
<path d="M1632.86 152.262L1643.41 205.578" stroke="#D37300" stroke-width="0.8868" stroke-miterlimit="10" stroke-linecap="round"/>
<path d="M1531.36 233.909L1550.8 282.301L1698.6 221.282L1683.01 175.857C1680.98 175.855 1531.36 233.909 1531.36 233.909Z" fill="#CA5B17"/>
<path d="M1538.31 249.001L1686.83 190.059" stroke="#AA3D00" stroke-width="0.8868" stroke-miterlimit="10" stroke-linecap="round" stroke-linejoin="round"/>
<path d="M1545.55 267.114L1692.72 207.492" stroke="#AA3D00" stroke-width="0.8868" stroke-miterlimit="10" stroke-linecap="round" stroke-linejoin="round"/>
<path d="M1584.04 232.172L1590.53 247.794" stroke="#AA3D00" stroke-width="0.8868" stroke-miterlimit="10" stroke-linecap="round" stroke-linejoin="round"/>
<path d="M1622.3 199.116L1628.12 212.927" stroke="#AA3D00" stroke-width="0.8868" stroke-miterlimit="10" stroke-linecap="round" stroke-linejoin="round"/>
<path d="M1628.24 197.731C1632.68 207.617 1636.6 217.74 1639.96 228.042" stroke="#AA3D00" stroke-width="0.8868" stroke-miterlimit="10" stroke-linecap="round" stroke-linejoin="round"/>
<path d="M1578.45 234.877C1581.91 245.014 1585.74 255.02 1589.94 264.87" stroke="#AA3D00" stroke-width="0.8868" stroke-miterlimit="10" stroke-linecap="round" stroke-linejoin="round"/>
<path d="M1706.32 257.296L1691.01 227.92C1689.4 224.883 1687.29 222.101 1684.6 219.95C1672.33 210.117 1661.93 221.073 1661.32 231.525C1660.89 238.854 1664.05 245.872 1667.31 252.451C1669.22 256.297 1671.21 260.202 1672.61 264.249C1675.73 273.289 1683.26 277.292 1692.72 275.867C1693.23 275.789 1692.23 275.989 1692.72 275.867C1696.82 274.847 1706.32 257.296 1706.32 257.296Z" fill="#28523E"/>
<path d="M1743.32 167.193H1713.13V193.154H1743.32V167.193Z" fill="#EA7468"/>
<path d="M1738.88 203.909C1744.77 198.016 1744.77 188.461 1738.88 182.568C1732.98 176.675 1723.43 176.675 1717.54 182.568C1711.64 188.461 1711.64 198.016 1717.54 203.909C1723.43 209.802 1732.98 209.802 1738.88 203.909Z" fill="#EA7468"/>
<path d="M1728.18 186.816C1713.61 186.816 1701.69 174.895 1701.69 160.326V148.099C1701.69 147.096 1701.75 146.108 1701.86 145.133C1703.34 131.946 1714.62 121.609 1728.18 121.609C1741.84 121.609 1753.17 132.085 1754.54 145.401C1754.63 146.289 1754.67 147.188 1754.67 148.099V160.326C1754.67 174.895 1742.75 186.816 1728.18 186.816Z" fill="#EF8B7B"/>
<path d="M1721.2 154.341C1721.2 154.984 1720.68 155.505 1720.03 155.505C1719.39 155.505 1718.87 154.984 1718.87 154.341C1718.87 153.698 1719.39 153.177 1720.03 153.177C1720.68 153.177 1721.2 153.698 1721.2 154.341Z" fill="#5C1A25"/>
<path d="M1738.15 154.341C1738.15 154.984 1737.63 155.505 1736.98 155.505C1736.34 155.505 1735.82 154.984 1735.82 154.341C1735.82 153.698 1736.34 153.177 1736.98 153.177C1737.62 153.177 1738.15 153.698 1738.15 154.341Z" fill="#5C1A25"/>
<path d="M1727.97 153.685C1727.66 154.47 1727.35 155.254 1727.05 156.038C1726.63 157.098 1726.21 158.177 1726.12 159.313C1726.03 160.448 1726.33 161.67 1727.16 162.448C1727.73 162.981 1728.49 163.259 1729.22 163.52" stroke="#D64B3C" stroke-width="0.7601" stroke-miterlimit="10" stroke-linecap="round"/>
<path d="M1712.76 162.364C1714.63 162.364 1716.15 160.843 1716.15 158.967C1716.15 157.091 1714.63 155.571 1712.76 155.571C1710.88 155.571 1709.36 157.091 1709.36 158.967C1709.36 160.843 1710.88 162.364 1712.76 162.364Z" fill="#D64B3C"/>
<path d="M1743.23 162.364C1745.1 162.364 1746.62 160.843 1746.62 158.967C1746.62 157.091 1745.1 155.571 1743.23 155.571C1741.35 155.571 1739.83 157.091 1739.83 158.967C1739.83 160.843 1741.35 162.364 1743.23 162.364Z" fill="#D64B3C"/>
<path d="M1736.27 164.93C1735.62 169.307 1731.75 171.192 1729.01 171.488C1726.27 171.784 1723.08 169.628 1720.98 165.608C1725.62 167.083 1731.36 167.532 1736.27 164.93Z" fill="#FFF6EB"/>
<path d="M1761.56 155.505C1761.56 158.935 1758.78 161.715 1755.35 161.715C1751.92 161.715 1749.14 158.935 1749.14 155.505C1749.14 152.076 1751.92 149.296 1755.35 149.296C1758.78 149.296 1761.56 152.076 1761.56 155.505Z" fill="#EF8B7B"/>
<path d="M1754.15 152.515C1755.5 151.557 1757.32 152.096 1758.26 153.736" stroke="#D64B3C" stroke-width="0.6463" stroke-miterlimit="10" stroke-linecap="round"/>
<path d="M1706.71 155.505C1706.71 158.935 1703.93 161.715 1700.5 161.715C1697.07 161.715 1694.29 158.935 1694.29 155.505C1694.29 152.076 1697.07 149.296 1700.5 149.296C1703.93 149.296 1706.71 152.076 1706.71 155.505Z" fill="#EF8B7B"/>
<path d="M1701.21 152.515C1699.86 151.557 1698.04 152.096 1697.1 153.736" stroke="#D64B3C" stroke-width="0.6463" stroke-miterlimit="10" stroke-linecap="round"/>
<path d="M1754.63 143.934L1754.72 147.948C1749.36 150.985 1740.78 150.011 1734.31 149.76C1725.63 149.421 1717.14 144.608 1716.38 144.157" fill="#5C1A25"/>
<path d="M1754.73 147.883L1754.81 157.501C1753.72 157.035 1752.93 156.077 1752.19 155.154C1751.06 153.741 1749.58 150.187 1749.89 148.401" fill="#5C1A25"/>
<path d="M1701.17 149.392C1701.12 149.392 1701.79 149.382 1701.74 149.382C1708.64 151.796 1715.65 148.675 1721.37 145.199C1721.95 144.841 1722.71 144.774 1723.04 144.167C1722.74 144.167 1701.11 143.826 1701.11 143.826C1701.11 143.926 1701.17 143.746 1701.17 143.846L1701.17 149.392Z" fill="#5C1A25"/>
<path d="M1701.17 147.883L1701.09 157.501C1702.18 157.035 1702.97 156.077 1703.71 155.154C1704.84 153.741 1706.32 150.187 1706.01 148.401" fill="#5C1A25"/>
<path d="M1701.21 145.133C1702.73 131.946 1714.23 121.609 1728.07 121.609C1742.01 121.609 1753.57 132.085 1754.96 145.401" fill="#5C1A25"/>
<path d="M1793.83 142.349C1793.83 145.407 1764.99 147.884 1729.42 147.884C1693.84 147.884 1665 145.407 1665 142.349C1665 141.998 1665 139.806 1665 139.806C1665 139.806 1697.92 136.814 1729.42 136.814C1761.59 136.814 1793.83 139.988 1793.83 139.988C1793.83 139.988 1793.83 142.055 1793.83 142.349Z" fill="#380E12"/>
<path d="M1729.42 145.523C1764.99 145.523 1793.83 143.045 1793.83 139.988C1793.83 136.931 1764.99 134.453 1729.42 134.453C1693.84 134.453 1665.01 136.931 1665.01 139.988C1665.01 143.045 1693.84 145.523 1729.42 145.523Z" fill="#CA5B17"/>
<path d="M1757.31 142.147H1698.13V123.033C1698.13 115.751 1704.06 109.203 1711.32 109.846C1715.98 110.259 1725.21 112.334 1729.9 112.238C1736.15 112.109 1738.07 110.067 1744.12 109.846C1751.4 109.578 1757.31 115.749 1757.31 123.033L1757.31 142.147Z" fill="#CA5B17"/>
<path d="M1757.38 132.639H1698.06V142.147H1757.38V132.639Z" fill="#5C1A25"/>
<path d="M1698.81 125.243H1753.84" stroke="#AA3D00" stroke-width="0.8868" stroke-miterlimit="10" stroke-linecap="round" stroke-linejoin="round"/>
<path d="M1706.66 115.583H1741.1" stroke="#AA3D00" stroke-width="0.8868" stroke-miterlimit="10" stroke-linecap="round" stroke-linejoin="round"/>
<path d="M1686.53 288.245C1709.5 306.658 1794.84 358.987 1809.46 357.044C1835.19 353.625 1849.04 361.738 1861 338.706C1868.28 324.674 1871.52 292.028 1837.51 244.749C1823.43 225.183 1804.65 212.803 1780.9 208.698C1777.79 208.158 1772.96 209.874 1774.49 212.644C1767.88 233.886 1765.61 250.48 1772.73 271.557C1780.66 276.214 1789.32 279.48 1796.08 285.712C1796.08 285.712 1716.79 252.267 1710.07 251.417L1686.53 288.245Z" fill="#FFC05C"/>
<path d="M1709.76 252.917C1738.15 262.539 1771.57 273.867 1799.96 283.492" stroke="#E58800" stroke-width="0.81" stroke-miterlimit="10" stroke-linecap="round" stroke-linejoin="round"/>
<path d="M1807.07 357.046C1768.09 342.838 1718.59 314.581 1686.53 288.247C1689.53 284.562 1707.47 255.547 1709.76 252.919" stroke="#E58800" stroke-width="0.81" stroke-miterlimit="10" stroke-linecap="round" stroke-linejoin="round"/>
<path d="M1698.43 297.003C1698.43 297.003 1715.64 271.559 1721.88 257.417" stroke="#E58800" stroke-width="0.81" stroke-miterlimit="10" stroke-linecap="round" stroke-linejoin="round"/>
<path d="M1692.08 281.008C1695.92 283.469 1699.76 285.933 1703.6 288.394" stroke="#E58800" stroke-width="0.81" stroke-miterlimit="10" stroke-linecap="round" stroke-linejoin="round"/>
<path d="M1697.84 271.081L1710.52 278.126" stroke="#E58800" stroke-width="0.81" stroke-miterlimit="10" stroke-linecap="round" stroke-linejoin="round"/>
<path d="M1702 264.702L1714.21 271.945" stroke="#E58800" stroke-width="0.81" stroke-miterlimit="10" stroke-linecap="round" stroke-linejoin="round"/>
<path d="M1706.32 258.166L1718.68 263.938" stroke="#E58800" stroke-width="0.81" stroke-miterlimit="10" stroke-linecap="round" stroke-linejoin="round"/>
<path d="M1794.51 215.189C1793.59 228.86 1794.73 242.669 1797.88 256.003" stroke="#E58800" stroke-width="0.81" stroke-miterlimit="10" stroke-linecap="round" stroke-linejoin="round"/>
<path d="M1801.04 279.852C1803.51 282.601 1805.98 285.348 1808.45 288.098" stroke="#E58800" stroke-width="0.81" stroke-miterlimit="10" stroke-linecap="round" stroke-linejoin="round"/>
<path d="M1803.36 279.938C1809.01 282.26 1814.4 285.244 1819.36 288.813" stroke="#E58800" stroke-width="0.81" stroke-miterlimit="10" stroke-linecap="round" stroke-linejoin="round"/>
<path d="M1798.22 422.43H1662.83L1660.26 369.904H1801.54L1798.22 422.43Z" fill="#28523E"/>
<path d="M1729.39 397.901L1720.64 539.211L1707.66 748.908H1666.6C1666.6 748.908 1663.23 628.936 1660.5 538.547C1659.58 508.083 1656.01 483.703 1655.38 465.685C1654.02 426.197 1657.4 369.873 1657.4 369.873H1665.09" fill="#28523E"/>
<path d="M1801.54 369.904L1801.77 406.453C1801.77 406.453 1802.82 441.886 1802.45 460.922C1801.68 500.446 1797.17 540.412 1797.17 540.412L1796.22 566.434L1791.28 748.912H1750.22C1750.22 748.912 1739.82 620.619 1741.51 571.563C1741.75 564.706 1741.8 546.248 1741.51 539.393C1741.12 530.087 1728.49 397.905 1728.49 397.905" fill="#28523E"/>
<path d="M1661.77 379.412H1799.96" stroke="#193326" stroke-width="0.8868" stroke-miterlimit="10" stroke-linecap="round" stroke-linejoin="round"/>
<path d="M1728.49 379.412V421.225" stroke="#193326" stroke-width="0.8868" stroke-miterlimit="10" stroke-linecap="round" stroke-linejoin="round"/>
<path d="M1729.4 412.166C1733.74 412.166 1737.23 408.602 1737.14 404.262C1736.95 394.613 1736.64 379.563 1736.64 379.563" stroke="#193326" stroke-width="0.8868" stroke-miterlimit="10" stroke-linecap="round" stroke-linejoin="round"/>
<path d="M1771.62 379.428C1776.64 390.391 1787.99 398.167 1800.03 398.874" stroke="#193326" stroke-width="0.8868" stroke-miterlimit="10" stroke-linecap="round" stroke-linejoin="round"/>
<path d="M1690.14 379.428C1685.13 390.391 1673.77 398.167 1661.74 398.874" stroke="#193326" stroke-width="0.8868" stroke-miterlimit="10" stroke-linecap="round" stroke-linejoin="round"/>
<path d="M1775.28 616.083C1782.62 616.083 1788.56 604.189 1788.56 589.517C1788.56 574.845 1782.62 562.952 1775.28 562.952C1767.95 562.952 1762 574.845 1762 589.517C1762 604.189 1767.95 616.083 1775.28 616.083Z" fill="#183A29"/>
<path d="M1684.11 616.083C1691.45 616.083 1697.4 604.189 1697.4 589.517C1697.4 574.845 1691.45 562.952 1684.11 562.952C1676.78 562.952 1670.83 574.845 1670.83 589.517C1670.83 604.189 1676.78 616.083 1684.11 616.083Z" fill="#183A29"/>
<path d="M1668.72 370.658C1668.72 370.96 1668.72 371.262 1668.72 371.563V378.908" stroke="#193326" stroke-width="0.8868" stroke-miterlimit="10" stroke-linecap="round" stroke-linejoin="round"/>
<path d="M1673.7 370.658C1673.7 370.96 1673.7 371.262 1673.7 371.563V378.908" stroke="#193326" stroke-width="0.8868" stroke-miterlimit="10" stroke-linecap="round" stroke-linejoin="round"/>
<path d="M1689.55 370.658C1689.55 370.96 1689.55 371.262 1689.55 371.563V378.908" stroke="#193326" stroke-width="0.8868" stroke-miterlimit="10" stroke-linecap="round" stroke-linejoin="round"/>
<path d="M1694.53 370.658C1694.53 370.96 1694.53 371.262 1694.53 371.563V378.908" stroke="#193326" stroke-width="0.8868" stroke-miterlimit="10" stroke-linecap="round" stroke-linejoin="round"/>
<path d="M1714 370.658C1714 370.96 1714 371.262 1714 371.563V378.908" stroke="#193326" stroke-width="0.8868" stroke-miterlimit="10" stroke-linecap="round" stroke-linejoin="round"/>
<path d="M1718.98 370.658C1718.98 370.96 1718.98 371.262 1718.98 371.563V378.908" stroke="#193326" stroke-width="0.8868" stroke-miterlimit="10" stroke-linecap="round" stroke-linejoin="round"/>
<path d="M1746.6 370.658C1746.6 370.96 1746.6 371.262 1746.6 371.563V378.908" stroke="#193326" stroke-width="0.8868" stroke-miterlimit="10" stroke-linecap="round" stroke-linejoin="round"/>
<path d="M1751.58 370.658C1751.58 370.96 1751.58 371.262 1751.58 371.563V378.908" stroke="#193326" stroke-width="0.8868" stroke-miterlimit="10" stroke-linecap="round" stroke-linejoin="round"/>
<path d="M1767.43 370.658C1767.43 370.96 1767.43 371.262 1767.43 371.563V378.908" stroke="#193326" stroke-width="0.8868" stroke-miterlimit="10" stroke-linecap="round" stroke-linejoin="round"/>
<path d="M1772.41 370.658C1772.41 370.96 1772.41 371.262 1772.41 371.563V378.908" stroke="#193326" stroke-width="0.8868" stroke-miterlimit="10" stroke-linecap="round" stroke-linejoin="round"/>
<path d="M1791.88 370.658C1791.88 370.96 1791.88 371.262 1791.88 371.563V378.908" stroke="#193326" stroke-width="0.8868" stroke-miterlimit="10" stroke-linecap="round" stroke-linejoin="round"/>
<path d="M1796.86 370.658C1796.86 370.96 1796.86 371.262 1796.86 371.563V378.908" stroke="#193326" stroke-width="0.8868" stroke-miterlimit="10" stroke-linecap="round" stroke-linejoin="round"/>
<path d="M1732.04 376.542C1733.24 376.542 1734.22 375.563 1734.22 374.355C1734.22 373.146 1733.24 372.167 1732.04 372.167C1730.83 372.167 1729.85 373.146 1729.85 374.355C1729.85 375.563 1730.83 376.542 1732.04 376.542Z" stroke="#193326" stroke-width="0.8868" stroke-miterlimit="10" stroke-linecap="round" stroke-linejoin="round"/>
<path d="M1723.47 422.794H1735.39" stroke="#193326" stroke-width="0.8868" stroke-miterlimit="10" stroke-linecap="round" stroke-linejoin="round"/>
<path d="M1747.35 762.193C1745.66 704.625 1740.66 647.168 1738.97 589.601C1761.41 592.26 1779.3 593.417 1801.84 591.932C1800.08 619.069 1793.93 699.045 1792.8 735.958C1792.5 745.971 1797.44 755.411 1805.88 760.808C1812.87 765.277 1820.27 769.785 1822.9 773.662C1828.34 781.679 1827.2 794.794 1827.2 794.794C1814.9 799.921 1778.2 787.124 1747.35 762.193Z" fill="#271B13"/>
<path d="M1709.04 762.193C1710.73 704.625 1715.73 647.168 1717.42 589.601C1694.98 592.26 1677.09 593.417 1654.54 591.932C1656.31 619.069 1662.46 699.045 1663.59 735.958C1663.89 745.971 1658.95 755.411 1650.51 760.808C1643.52 765.277 1636.12 769.785 1633.49 773.662C1628.05 781.679 1629.19 794.794 1629.19 794.794C1641.49 799.921 1678.19 787.124 1709.04 762.193Z" fill="#271B13"/>
<path d="M1710.39 216.635C1715.7 221.713 1723.54 224.015 1730.75 222.619" stroke="#E58800" stroke-width="0.81" stroke-miterlimit="10" stroke-linecap="round" stroke-linejoin="round"/>
<mask id="mask5_6_2248" style="mask-type:luminance" maskUnits="userSpaceOnUse" x="0" y="-218" width="1920" height="1022">
<path d="M1920 -218H0V803.277H1920V-218Z" fill="white"/>
</mask>
<g mask="url(#mask5_6_2248)">
<path d="M1167.57 792.494C1166.19 772.305 1176.95 734.575 1187.14 716.192C1189.29 712.307 1191.45 708.412 1194.12 704.754C1202.14 693.765 1214.38 685.405 1226.39 677.27C1230.01 701.343 1222.72 727.888 1206.61 748.165C1194.45 763.471 1177.39 776.082 1167.57 792.494Z" fill="#D8C850"/>
<path d="M1171.38 786.538C1180.61 767.356 1188.34 746.541 1198.19 727.673C1206.92 710.965 1216.13 694.513 1225.81 678.342" stroke="#937E02" stroke-miterlimit="10" stroke-linecap="round" stroke-linejoin="round"/>
<path d="M1164.15 748.236C1156.66 726.859 1149.16 705.483 1141.67 684.106C1139.35 677.468 1137.01 670.803 1135.66 663.899C1132.5 647.822 1134.76 631.047 1131.56 614.976C1127.96 596.817 1117.67 580.798 1107.6 565.266C1111.9 578.937 1113.88 595.218 1116.79 609.25C1118.01 615.098 1119.1 621.097 1118.27 627.013C1116.61 638.943 1107.35 649.129 1107.21 661.174C1107.11 669.796 1111.74 677.678 1116.21 685.05C1132.29 711.562 1148.37 738.076 1164.46 764.589" fill="#D8C850"/>
<path d="M1107.79 566.089C1116.42 585.224 1125.2 605.049 1125.47 626.036C1125.61 637.634 1123.12 649.184 1123.77 660.764C1124.44 672.729 1128.43 684.245 1132.84 695.387C1141.59 717.467 1152.15 738.824 1164.39 759.172" stroke="#937E02" stroke-miterlimit="10" stroke-linecap="round" stroke-linejoin="round"/>
<path d="M1170.22 786.123C1178.6 776.77 1187.2 767.242 1198.18 761.139C1200.25 759.991 1202.69 758.949 1204.9 759.766C1216.32 763.972 1229.24 764.472 1239.09 771.621C1242.74 774.264 1246.28 777.563 1247.37 781.93C1247.9 784.067 1247.05 784.937 1246.34 787.02C1245.63 789.103 1244.35 790.938 1243.02 792.694C1241.24 795.057 1239.35 797.341 1237.47 799.625C1233.11 804.913 1232.87 805.203 1228.5 810.491C1228.5 810.491 1226.36 798.571 1225.78 789.967C1225.47 785.339 1224.74 780.525 1222.03 776.756C1211.87 775.416 1200.93 776.738 1191.17 779.889C1188.68 780.694 1186.2 781.658 1184.08 783.198C1182.13 784.614 1179.93 786.324 1178.36 788.158C1175.2 791.873 1171.64 795.478 1169.77 799.988" fill="#D8C850"/>
<path d="M1196.38 762.183C1188.41 767.011 1177.25 776.499 1169.88 786.148C1169.88 786.148 1169.48 798.469 1169.88 801.346C1170.36 800.429 1174.46 793.938 1175.05 793.088C1180.14 785.778 1187.29 780.608 1195.95 778.519C1205.77 776.15 1214.45 776.241 1222.03 776.756C1216.34 772.124 1206.96 766.184 1200.24 763.241C1199 762.699 1196.53 762.091 1196.38 762.183Z" fill="#364715"/>
<path d="M1228.42 809.421C1231.06 804.216 1233.73 798.944 1235.02 793.25C1236.3 787.555 1236.08 781.301 1233.18 776.239C1229.51 769.852 1222.35 766.425 1215.47 763.792C1211 762.078 1206.46 760.538 1201.86 759.172" stroke="#937E02" stroke-miterlimit="10" stroke-linecap="round" stroke-linejoin="round"/>
<path d="M1166.78 810.376C1160.96 803.509 1155.13 796.64 1149.3 789.773C1144.88 784.558 1140.3 779.219 1134.26 776.023C1128.52 772.989 1121.91 772.13 1115.44 771.658C1112.11 771.415 1108.59 771.302 1105.65 772.869C1102.27 774.67 1100.32 778.353 1099.18 782.011C1097.47 787.534 1097.15 793.486 1098.26 799.161C1092.23 792.163 1088.04 781.554 1090.3 772.599C1092.57 763.645 1099.4 755.973 1108.03 752.684C1115.86 749.702 1135.8 749.802 1135.82 750.552C1140.88 754.437 1147.51 757.621 1150.28 763.371C1151.84 766.6 1162.15 788.403 1165.34 794.199C1165.34 794.199 1166.03 803.732 1166.78 810.376Z" fill="#D8C850"/>
<path d="M1165.82 799.071C1160.96 791.673 1155.65 784.573 1149.92 777.824C1144.85 771.846 1139.31 766.029 1132.32 762.475C1125.33 758.92 1116.6 757.958 1109.74 761.733C1104.58 764.566 1099.73 767.755 1096.92 772.922C1093.39 779.399 1094.31 792.941 1098.26 799.161" stroke="#937E02" stroke-miterlimit="10" stroke-linecap="round" stroke-linejoin="round"/>
<path d="M1166.12 671.224C1167.6 754.67 1167.87 840.868 1166.79 912.758" stroke="#364715" stroke-width="3" stroke-miterlimit="10"/>
<path d="M1167.27 690.28C1166.98 685.597 1164.34 681.446 1162.08 677.333C1150.81 656.799 1147.81 632.544 1149.53 609.183C1151.24 585.824 1157.41 563.05 1163.54 540.445C1167.8 551.74 1173.12 567.431 1177.38 578.728C1182.42 592.083 1178.11 607.451 1178.34 621.516C1178.73 645.736 1179.15 668.764 1167.27 690.28Z" fill="#364715"/>
<path d="M910.738 584.734C912.219 668.18 912.492 840.868 911.408 912.76" stroke="#364715" stroke-width="3" stroke-miterlimit="10"/>
<path d="M909.49 589.418C893.541 579.466 878.717 554.629 872.701 536.82C868.557 524.55 863.847 512.472 858.587 500.638C856.743 496.49 854.741 492.245 851.344 489.232C847.651 485.958 842.745 484.514 838.166 482.678C829.354 479.142 821.255 473.84 814.493 467.175C821.27 495.693 853.865 514.883 860.552 543.423C861.849 548.961 861.98 554.708 863.073 560.289C864.541 567.781 867.724 574.846 871.541 581.46C880.389 596.781 894.755 610.403 909.488 620.203" fill="#364715"/>
<path d="M912.067 805.942C921.187 797.157 933.543 785.323 944.236 778.537C950.68 774.448 960.247 769.035 967.286 771.985C969.349 777.798 972.954 787.676 975.015 793.489C971.663 793.362 968.283 793.283 964.896 793.213C956.027 793.027 947.479 796.493 941.268 802.827C932.076 812.203 920.585 822.82 914.786 831.086L912.067 805.942Z" fill="#364715"/>
<path d="M967.286 771.985C974.347 774.473 981.849 779.091 987.769 783.674C990.205 785.56 992.554 787.651 994.149 790.286C996.803 794.672 997.085 800.039 997.295 805.16C997.422 808.234 997.532 811.408 996.421 814.278C995.493 816.67 993.788 818.661 992.258 820.72C987.462 827.167 984.157 834.714 982.672 842.61C976.53 832.14 975.376 819.045 976.984 807.015C977.276 804.831 977.654 802.625 977.388 800.438C977.115 798.179 976.167 796.063 975.231 793.989C972.096 787.032 968.916 778.709 967.286 771.985Z" fill="#D8C850"/>
<path d="M914.012 618.409C905.778 591.468 895.384 567.511 887.152 540.57C881.172 520.998 875.144 501.167 874.276 480.719C873.473 461.784 877.121 442.987 879.321 424.162C882.518 396.821 882.663 369.226 882.804 341.698C917.825 430.429 927.121 523.925 914.012 618.409Z" fill="#937E02"/>
<path d="M943.995 651.556C950.384 644.47 952.059 644.147 960.715 640.136C969.371 636.124 979.768 635.042 988.418 639.067C995.028 642.146 1000.01 647.824 1004.58 653.506C1018.78 671.168 1030.98 690.44 1040.88 710.833C1002.36 705.395 965.889 683.707 943.995 651.556Z" fill="#D8C850"/>
<path d="M944.558 652.377C960.564 644.125 975.315 650.314 986.494 658.925C997.673 667.539 1006.35 678.903 1015.9 689.294C1023.06 697.086 1031.05 704.546 1040.32 709.458" stroke="#937E02" stroke-miterlimit="10" stroke-linecap="round" stroke-linejoin="round"/>
<path d="M882.802 646.984C891.295 663.983 895.304 683.195 894.324 702.17C893.962 709.182 892.933 716.157 892.863 723.178C892.659 744.371 904.941 767.307 913.283 786.793V789.916C886.934 767.677 877.391 731.074 876.153 696.616C875.945 690.82 874.437 682.917 870.489 678.666C871.878 669.122 874.252 659.613 879.554 651.556C880.598 649.967 881.213 648.594 882.802 646.984Z" fill="#364715"/>
<path d="M875.522 748.681C868.496 715.318 866.815 678.078 882.802 646.984C871.894 644.198 858.873 643.048 845.531 645.009C849.451 670.31 849.661 695.358 860.401 718.6C865.532 729.699 870.8 741.348 875.522 748.681Z" fill="#D8C850"/>
<path d="M864.165 644.029C858.518 678.885 861.78 718.676 875.083 751.385" stroke="#937E02" stroke-miterlimit="10" stroke-linecap="round" stroke-linejoin="round"/>
<path d="M958.531 628.751C964.044 614.708 965.237 611.943 965.515 598.392C965.586 594.881 965.568 591.268 964.271 588.004C962.974 584.74 958.611 580.373 955.108 580.097C951.846 579.84 948.754 581.876 946.803 584.505C944.852 587.134 931.768 610.903 929.517 620.301C930.103 622.77 930.093 624.919 930.679 627.388C931.186 629.523 931.694 631.663 932.438 633.729C933.134 635.661 934.035 637.513 934.977 639.339C937.442 644.117 939.55 648.529 943.99 651.558C946.776 650.31 957.721 630.818 958.531 628.751Z" fill="#EF920F"/>
<path d="M935.624 622.792L956.15 581.574" stroke="#D37300" stroke-miterlimit="10" stroke-linecap="round"/>
<path d="M938.514 637.942L962.739 588.163" stroke="#D37300" stroke-miterlimit="10" stroke-linecap="round"/>
<path d="M945.725 588.396C952.03 592.812 958.098 597.567 963.897 602.633" stroke="#D37300" stroke-miterlimit="10" stroke-linecap="round"/>
<path d="M939.791 598.807C945.077 602.079 950.149 605.696 954.967 609.624C957.625 611.791 960.204 614.05 962.782 616.309" stroke="#D37300" stroke-miterlimit="10" stroke-linecap="round"/>
<path d="M935.933 609.071C937.522 610.388 939.113 611.704 940.702 613.021C946.625 617.927 952.555 622.838 958.111 628.154" stroke="#D37300" stroke-miterlimit="10" stroke-linecap="round"/>
<path d="M934.936 622.409C941.337 627.915 946.172 632.076 952.573 637.583" stroke="#D37300" stroke-miterlimit="10" stroke-linecap="round"/>
<path d="M943.995 651.556C935.109 637.478 931.805 619.984 934.942 603.635C936.325 596.423 938.894 589.499 940.773 582.399C943.237 573.091 944.513 563.469 944.56 553.838C940.061 571.377 933.692 588.235 927.642 605.302C924.631 613.795 921.238 622.167 918.838 630.854C912.554 653.613 909.49 685.266 913.283 705.346" fill="#364715"/>
<path d="M1362.59 522.172C1353.17 508.24 1354.88 488.474 1354.9 471.237C1354.91 458.79 1356.28 446.391 1357.65 434.02C1362.75 388.005 1367.85 341.99 1372.95 295.976C1386.02 317.564 1400.85 340.318 1401.94 365.531C1402.95 388.747 1393.32 410.931 1388.66 433.697C1382.22 465.138 1383.35 497.698 1362.59 522.172Z" fill="#364715"/>
<path d="M1357.81 512.041C1341.1 499.042 1333.27 480.478 1328.14 459.942C1324.89 446.984 1322.05 433.928 1319.61 420.796C1315.72 399.866 1312.86 378.76 1310 357.665C1307.87 341.966 1305.74 326.269 1303.61 310.57C1322.68 338.44 1342.24 364.932 1347.13 398.345C1348.79 409.697 1348.69 421.225 1349.44 432.674C1351.31 460.983 1350.77 484.561 1357.81 512.041Z" fill="#937E02"/>
<path d="M1360.33 599.442C1360.15 584.411 1359.3 566.461 1360.9 550.237C1360.97 549.581 1360.59 549.065 1360.21 549.598C1354.06 532.338 1344.39 516.345 1331.97 502.887C1330.99 501.831 1329.97 500.768 1328.69 500.115C1327.79 499.657 1326.45 499.637 1325.03 499.839C1321.53 500.335 1318.72 502.952 1317.63 506.324C1315.27 513.645 1314.98 521.621 1316 529.285C1317.25 538.715 1320.39 547.784 1323.74 556.687C1327.3 566.147 1336.79 571.251 1343.81 578.514C1349.8 584.701 1356.36 592.453 1360.33 599.442Z" fill="#EF920F"/>
<path d="M1316.39 519.439C1323.72 517.948 1337.58 511.514 1337.58 511.514" stroke="#D37300" stroke-miterlimit="10" stroke-linecap="round"/>
<path d="M1317.31 533.147C1317.31 533.147 1321.13 531.776 1323.42 530.79C1330.61 527.691 1337.79 524.593 1344.98 521.494" stroke="#D37300" stroke-miterlimit="10" stroke-linecap="round"/>
<path d="M1320.77 546.626L1351.91 532.263" stroke="#D37300" stroke-miterlimit="10" stroke-linecap="round"/>
<path d="M1324.86 558.369C1335.33 554.968 1347.83 549.935 1357.74 545.133" stroke="#D37300" stroke-miterlimit="10" stroke-linecap="round"/>
<path d="M1333.88 568.054C1340.98 564.906 1357.04 558.957 1357.04 558.957" stroke="#D37300" stroke-miterlimit="10" stroke-linecap="round"/>
<path d="M1344.62 576.445L1358.53 570.708" stroke="#D37300" stroke-miterlimit="10" stroke-linecap="round"/>
<path d="M1326.99 503.645L1357.74 579.73" stroke="#D37300" stroke-miterlimit="10" stroke-linecap="round"/>
<path d="M1318.01 510.283L1346.09 579.73" stroke="#D37300" stroke-miterlimit="10" stroke-linecap="round"/>
<path d="M1363.81 616.242C1365.86 587.71 1388.67 557.402 1396.74 547.498C1398.38 545.492 1401.11 544.775 1403.52 545.727L1408.26 547.6C1411.02 548.693 1412.55 551.652 1411.83 554.535C1409.31 564.649 1403.51 587.17 1399.99 595.369C1393.01 595.815 1386.52 597.614 1380.08 600.347C1377.22 601.558 1374.34 603.088 1372.62 605.664C1371.7 607.028 1371.18 608.605 1370.66 610.163C1369.89 612.471 1369.12 614.78 1368.35 617.09C1368.2 617.531 1368.02 618.011 1367.62 618.244C1367.35 618.403 1367.01 618.417 1366.69 618.395C1365.29 618.295 1364.61 617.4 1363.81 616.242Z" fill="#EF920F"/>
<path d="M1401.44 547.39L1374.38 595.39" stroke="#D37300" stroke-miterlimit="10" stroke-linecap="round"/>
<path d="M1408.65 549.773L1389 591.474" stroke="#D37300" stroke-width="1.027" stroke-miterlimit="10" stroke-linecap="round"/>
<path d="M1394.8 552.125C1400.77 554.488 1403.98 555.762 1409.95 558.126" stroke="#D37300" stroke-width="1.027" stroke-miterlimit="10" stroke-linecap="round"/>
<path d="M1389 559.639C1394.96 562.002 1400.83 564.326 1406.79 566.69" stroke="#D37300" stroke-width="1.027" stroke-miterlimit="10" stroke-linecap="round"/>
<path d="M1383.27 567.723C1390.28 570.624 1405 576.41 1405 576.41" stroke="#D37300" stroke-width="1.027" stroke-miterlimit="10" stroke-linecap="round"/>
<path d="M1378.88 575.05C1385.89 577.95 1402.37 584.731 1402.37 584.731" stroke="#D37300" stroke-width="1.027" stroke-miterlimit="10" stroke-linecap="round"/>
<path d="M1375.32 583.543C1382.33 586.443 1399.77 592.624 1399.77 592.624" stroke="#D37300" stroke-width="1.027" stroke-miterlimit="10" stroke-linecap="round"/>
<path d="M1367.98 695.569C1373.29 673.787 1381.45 650.9 1391.11 630.668L1372.04 598.794C1368.72 608.035 1366.97 617.016 1365.67 626.749" fill="#364715"/>
<path d="M1374.8 598.784C1381.92 597.273 1389.94 593.245 1397.19 593.798C1404.44 594.352 1411.79 596.995 1416.69 602.365C1426.91 613.544 1423.23 631.132 1426.74 645.863C1428.42 652.967 1431.91 659.74 1432.04 667.04C1432.21 676.418 1426.85 684.89 1421.68 692.721C1422.69 679.063 1412.97 664.814 1405.26 653.492C1395.61 639.313 1386.66 624.653 1378.47 609.585C1376.79 606.495 1374.11 601.85 1372.04 599.007" fill="#D8C850"/>
<path d="M1390.66 596.06C1396.77 602.916 1401.82 610.711 1405.59 619.081C1408.57 625.707 1410.74 632.664 1412.91 639.603C1415.47 647.812 1418.03 656.021 1420.6 664.232C1423.25 672.727 1423.62 684.034 1421.68 692.721" stroke="#937E02" stroke-miterlimit="10" stroke-linecap="round" stroke-linejoin="round"/>
<path d="M1294.69 562.241C1299.78 563.881 1304.53 566.565 1308.57 570.076C1313.75 574.588 1317.66 580.356 1322.46 585.269C1328.8 591.762 1336.71 596.717 1345.32 599.591C1349.85 601.103 1357.61 599.211 1361.6 601.828C1350.92 580.808 1328.66 561.683 1308.48 549.5L1294.69 562.241Z" fill="#364715"/>
<path d="M1308.48 549.502C1304.16 553.999 1299.62 558.279 1294.87 562.317C1292.12 564.657 1289.29 566.923 1286.75 569.492C1281.73 574.582 1277.95 580.745 1274.22 586.848C1267.69 597.53 1261.08 608.391 1257.74 620.458C1256.03 609.201 1253.18 597.289 1253.64 585.912C1254.35 568.056 1271.33 557.431 1284.29 545.135C1292.51 545.133 1300.4 547.998 1308.48 549.502Z" fill="#D8C850"/>
<path d="M1257.81 621.943C1257.34 626.963 1259.05 608.182 1260.27 598.539C1261.03 592.493 1261.89 586.421 1263.7 580.604C1265.87 573.663 1269.47 567.174 1274.2 561.657C1279.62 555.341 1286.42 550.386 1293.15 545.492" stroke="#937E02" stroke-miterlimit="10" stroke-linecap="round" stroke-linejoin="round"/>
<path d="M1335.86 639.219C1329.53 640.661 1325.04 652.532 1319.84 657.146C1316.74 659.898 1313.33 662.277 1310.19 664.986C1302.15 671.924 1295.99 681.036 1292.57 691.091C1290.42 689.133 1285.98 682.037 1284.88 676.916C1283.95 672.59 1283.59 668.082 1284.46 663.744C1285.13 660.369 1286.53 657.179 1288.2 654.168C1291.83 647.607 1296.77 641.776 1302.64 637.113C1313.54 637.466 1324.97 638.865 1335.86 639.219Z" fill="#D8C850"/>
<path d="M1335.86 639.219C1339.4 642.113 1341.96 647.128 1344.15 651.135C1346 654.536 1347.29 658.215 1348.45 661.912C1352.97 676.367 1356.03 692.1 1366.31 703.228C1357.66 697.621 1350.85 692.915 1344.15 685.088C1339.94 680.174 1336.39 674.449 1331.02 670.85C1320.94 664.101 1314.55 664.101 1309.91 665.098C1316.32 660.941 1323.1 653.133 1328.34 645.026C1330.83 641.176 1333 639.985 1335.86 639.219Z" fill="#364715"/>
<path d="M1292.58 690.914C1290.04 679.588 1292.83 667.181 1299.99 658.043C1302.26 655.136 1304.93 652.569 1307.43 649.85C1310.91 646.063 1314.06 641.974 1316.83 637.644" stroke="#937E02" stroke-miterlimit="10" stroke-linecap="round" stroke-linejoin="round"/>
<path d="M1395.15 719.095C1385.98 725.49 1380.43 734.753 1375.58 744.831C1370.73 754.911 1367.69 765.751 1364.84 776.568C1363.31 782.377 1367.33 789.606 1367.25 795.611C1372.02 785.919 1377.49 775.541 1382.77 766.122C1389.55 754.02 1412.32 729.706 1422.62 720.41L1407.51 721.56L1395.15 719.095Z" fill="#364715"/>
<path d="M1395.15 719.095C1403.08 727.761 1408.66 738.287 1415.66 747.719C1422.66 757.152 1439.25 772.528 1447.72 776.497C1448.28 758.782 1435.99 729.428 1422.87 717.522C1413.13 718.75 1404.86 720.529 1395.15 719.095Z" fill="#D8C850"/>
<path d="M1410.55 719.142C1425.19 738.133 1441.33 753.387 1447.72 776.494" stroke="#937E02" stroke-miterlimit="10" stroke-linecap="round" stroke-linejoin="round"/>
<path d="M1360.33 510.283C1365.46 630.928 1367.47 792.018 1365.65 912.76" stroke="#364715" stroke-width="3" stroke-miterlimit="10"/>
</g>
<mask id="mask6_6_2248" style="mask-type:luminance" maskUnits="userSpaceOnUse" x="0" y="-218" width="1920" height="1022">
<path d="M1920 -218H0V803.277H1920V-218Z" fill="white"/>
</mask>
<g mask="url(#mask6_6_2248)">
<path d="M1617.59 831.466C1696.04 667.974 1858.97 583.892 2004.52 648.171C2068.53 676.438 2139.31 745.726 2152.06 834.191L1617.59 831.466Z" fill="#183A29"/>
<path d="M1448.68 828.2C1502.83 715.355 1615.3 657.32 1715.76 701.686C1759.94 721.197 1808.79 769.021 1817.59 830.081L1448.68 828.2Z" fill="#183A29"/>
<path d="M1546.55 719.523L1598.65 828.963" stroke="#28523E" stroke-miterlimit="10" stroke-linecap="round" stroke-linejoin="round"/>
<path d="M1577.87 702.109L1606.52 829.09" stroke="#28523E" stroke-miterlimit="10" stroke-linecap="round" stroke-linejoin="round"/>
<path d="M1647.41 690.45C1647.41 698.044 1656.34 831.946 1656.34 831.946" stroke="#28523E" stroke-miterlimit="10" stroke-linecap="round" stroke-linejoin="round"/>
<path d="M1481.91 778.651C1481.07 778.768 1482.34 777.66 1483.02 778.153C1503.77 793.041 1534.77 813.855 1555.52 828.745" stroke="#28523E" stroke-miterlimit="10" stroke-linecap="round" stroke-linejoin="round"/>
<path d="M1715.62 701.388C1745.72 746.222 1775.83 791.058 1805.94 835.892" stroke="#28523E" stroke-miterlimit="10" stroke-linecap="round" stroke-linejoin="round"/>
<path d="M1790.68 656.231C1795.62 712.46 1805.1 780.455 1815.73 835.892" stroke="#28523E" stroke-miterlimit="10" stroke-linecap="round" stroke-linejoin="round"/>
<path d="M1703.36 699.149C1697.02 753.593 1690.68 808.035 1684.33 862.478" stroke="#28523E" stroke-miterlimit="10" stroke-linecap="round" stroke-linejoin="round"/>
<path d="M1857.01 629.961C1877.06 699.972 1897.09 769.982 1917.13 839.995" stroke="#28523E" stroke-miterlimit="10" stroke-linecap="round" stroke-linejoin="round"/>
<path d="M1838 635.029L1897.65 834.191" stroke="#28523E" stroke-miterlimit="10" stroke-linecap="round" stroke-linejoin="round"/>
<path d="M1751.96 675.674C1752.61 683.301 1753.26 690.93 1753.91 698.559C1755 711.457 1756.1 724.356 1757.2 737.255C1757.95 746.083 1758.7 754.909 1759.56 763.726" stroke="#28523E" stroke-miterlimit="10" stroke-linecap="round" stroke-linejoin="round"/>
<path d="M1897.04 627.805C1903.9 664.509 1925.08 749.232 1925.96 748.242" stroke="#28523E" stroke-miterlimit="10" stroke-linecap="round" stroke-linejoin="round"/>
<path d="M1617.47 692.188C1627.74 714.956 1638.57 737.478 1649.94 759.723" stroke="#28523E" stroke-miterlimit="10" stroke-linecap="round" stroke-linejoin="round"/>
<path d="M-167.197 883.52C-71.9857 692.515 125.764 594.285 302.416 669.381C380.103 702.405 466 783.352 481.479 886.703L-167.197 883.52Z" fill="#183A29"/>
<path d="M-58.6315 749.94L19.104 889.973" stroke="#28523E" stroke-miterlimit="10" stroke-linecap="round" stroke-linejoin="round"/>
<path d="M34.2986 679.574C36.8028 689.286 88.5427 889.973 88.5427 889.973" stroke="#28523E" stroke-miterlimit="10" stroke-linecap="round" stroke-linejoin="round"/>
<path d="M108.37 654.015C111.897 734.772 112.32 812.429 109.671 893.221" stroke="#28523E" stroke-miterlimit="10" stroke-linecap="round" stroke-linejoin="round"/>
<path d="M71.6058 664.892C82.8092 695.963 95.9572 726.334 110.947 755.767" stroke="#28523E" stroke-miterlimit="10" stroke-linecap="round" stroke-linejoin="round"/>
<path d="M159.387 646.45L144.803 885.051" stroke="#28523E" stroke-miterlimit="10" stroke-linecap="round" stroke-linejoin="round"/>
<path d="M217.81 650.941C201.935 728.123 188.507 805.81 177.555 883.843" stroke="#28523E" stroke-miterlimit="10" stroke-linecap="round" stroke-linejoin="round"/>
<path d="M198.834 749.94L286.84 664.542" stroke="#28523E" stroke-miterlimit="10" stroke-linecap="round" stroke-linejoin="round"/>
<path d="M322.815 682.848C306.187 727.57 289.557 772.289 272.928 817.011C262.889 844.01 256.49 857.65 249.377 885.563" stroke="#28523E" stroke-miterlimit="10" stroke-linecap="round" stroke-linejoin="round"/>
<path d="M299.624 889.973C295.831 897.387 360.212 771.515 384.494 724.04" stroke="#28523E" stroke-miterlimit="10" stroke-linecap="round" stroke-linejoin="round"/>
<path d="M303.436 893.219L413.307 749.94" stroke="#28523E" stroke-miterlimit="10" stroke-linecap="round" stroke-linejoin="round"/>
<path d="M385.724 886.57L448.185 799.102" stroke="#28523E" stroke-miterlimit="10" stroke-linecap="round" stroke-linejoin="round"/>
<path d="M442.942 852.688C497.09 739.843 609.553 681.806 710.016 726.174C754.196 745.685 803.048 793.509 811.852 854.569L442.942 852.688Z" fill="#183A29"/>
<path d="M618.655 713.456L627.397 851.755" stroke="#28523E" stroke-miterlimit="10" stroke-linecap="round" stroke-linejoin="round"/>
<path d="M590.929 719.419C606.03 761.449 620.801 814.018 629.801 857.762" stroke="#28523E" stroke-miterlimit="10" stroke-linecap="round" stroke-linejoin="round"/>
<path d="M522.152 758.304C547.247 795.476 572.34 832.649 597.434 869.819" stroke="#28523E" stroke-miterlimit="10" stroke-linecap="round" stroke-linejoin="round"/>
<path d="M547.431 737.608C564 788.544 580.749 839.893 607.37 886.372" stroke="#28523E" stroke-miterlimit="10" stroke-linecap="round" stroke-linejoin="round"/>
<path d="M496.514 777.512L571.239 861.297" stroke="#28523E" stroke-miterlimit="10" stroke-linecap="round" stroke-linejoin="round"/>
<path d="M665.901 713.556C661.597 764.06 655.694 814.429 648.204 864.562" stroke="#28523E" stroke-miterlimit="10" stroke-linecap="round" stroke-linejoin="round"/>
<path d="M702.891 723.213L655.743 908.434" stroke="#28523E" stroke-miterlimit="10" stroke-linecap="round" stroke-linejoin="round"/>
<path d="M678.375 856.61C719.665 822.503 730.977 812.468 769.767 775.543" stroke="#28523E" stroke-miterlimit="10" stroke-linecap="round" stroke-linejoin="round"/>
<path d="M702.019 857.89C739.715 832.066 749.65 825.541 788.315 801.193" stroke="#28523E" stroke-miterlimit="10" stroke-linecap="round" stroke-linejoin="round"/>
</g>
<path d="M1387.03 62.3343C1386.15 54.3328 1384.81 45.997 1379.99 39.5455C1375.18 33.0939 1365.84 29.321 1358.8 33.2226C1351.58 37.2227 1348.23 47.9821 1339.98 48.3712C1328.25 48.9253 1326.55 28.9244 1315.37 25.3079C1306.77 22.5222 1298.97 31.0317 1294.07 38.6322C1289.17 46.2339 1282.07 55.0564 1273.23 53.1517C1261.93 50.7175 1261.34 34.2708 1252.9 26.3734C1244.36 18.3912 1229.58 21.7997 1221.64 30.3725C1213.7 38.9452 1210.83 50.9136 1208.26 62.3118L1387.03 62.3343Z" fill="#FFF6EB"/>
<path d="M563 49.472C563.88 41.4705 565.225 33.1347 570.039 26.6832C574.853 20.2316 584.19 16.4587 591.231 20.3602C598.451 24.3615 601.806 35.1198 610.05 35.5089C621.779 36.063 623.486 16.0621 634.657 12.4456C643.262 9.65987 651.058 18.1694 655.959 25.7699C660.861 33.3716 667.959 42.194 676.802 40.2894C688.104 37.8552 688.689 21.4085 697.133 13.5111C705.667 5.52892 720.454 8.93743 728.396 17.5102C736.337 26.0829 739.199 38.0513 741.771 49.4495L563 49.472Z" fill="#FFF6EB"/>
<path d="M958.351 104.917C959.13 96.9159 960.319 88.58 964.576 82.1285C968.832 75.6769 977.09 71.904 983.315 75.8056C989.7 79.8068 992.666 90.5651 999.958 90.9542C1010.33 91.5083 1011.84 71.5074 1021.72 67.8909C1029.33 65.1052 1036.22 73.6147 1040.56 81.2152C1044.89 88.8169 1051.17 97.6394 1058.99 95.7347C1068.98 93.3005 1069.5 76.8538 1076.97 68.9564C1084.51 60.9742 1097.59 64.3827 1104.61 72.9555C1111.63 81.5282 1114.16 93.4966 1116.44 104.895L958.351 104.917Z" fill="#FFF6EB"/>
<path d="M1079.89 196.139C1081.05 189.661 1080.98 183.137 1085.61 178.881C1090.23 174.623 1097.49 173.312 1102.38 177.207C1106.86 180.779 1108.92 188.026 1114.32 189.431C1119.05 190.662 1123.58 186.481 1126.05 181.912C1128.52 177.343 1129.95 168.729 1133.33 164.922C1136.89 160.915 1142.46 159.178 1147.43 160.523C1152.39 161.868 1156.57 166.246 1157.99 171.604C1159.32 176.559 1160.4 186.002 1164.67 188.218C1169.8 190.878 1172.14 181.343 1177.08 178.273C1181.69 175.399 1187.89 175.891 1192.07 179.465C1196.26 183.039 1197.91 191.255 1197.78 198.279" fill="#FFF6EB"/>
<path d="M802.534 184.298C803.814 177.171 803.742 169.995 808.83 165.312C813.918 160.629 821.899 159.186 827.276 163.47C832.208 167.399 834.477 175.372 840.417 176.918C845.62 178.272 850.599 173.674 853.314 168.647C856.029 163.62 857.606 154.146 861.329 149.957C865.246 145.549 871.37 143.638 876.831 145.118C882.292 146.599 886.885 151.413 888.456 157.309C889.91 162.76 891.101 173.149 895.802 175.585C901.446 178.512 904.02 168.023 909.449 164.644C914.529 161.483 921.341 162.025 925.948 165.955C930.555 169.886 932.371 178.926 932.227 186.653" fill="#FFF6EB"/>
<path d="M1550.19 546.369L1550.7 555.17" stroke="#364715" stroke-miterlimit="10" stroke-linecap="round" stroke-linejoin="round"/>
<path d="M1555.66 554.706L1556.66 549.347" stroke="#364715" stroke-miterlimit="10" stroke-linecap="round" stroke-linejoin="round"/>
<path d="M1542.9 549.59C1543.71 551.818 1544.52 554.049 1545.32 556.277" stroke="#364715" stroke-miterlimit="10" stroke-linecap="round" stroke-linejoin="round"/>
<path d="M1618.41 621.602C1618.43 623.483 1618.65 625.362 1619.06 627.197" stroke="#364715" stroke-miterlimit="10" stroke-linecap="round" stroke-linejoin="round"/>
<path d="M1624.06 620.581C1624.06 623.134 1624.06 625.687 1624.06 628.24" stroke="#364715" stroke-miterlimit="10" stroke-linecap="round" stroke-linejoin="round"/>
<path d="M1474.45 604.24C1474.45 606.963 1474.45 609.688 1474.45 612.41" stroke="#364715" stroke-miterlimit="10" stroke-linecap="round" stroke-linejoin="round"/>
<path d="M1482.57 606.271C1482.08 608.317 1481.59 610.366 1481.1 612.412" stroke="#364715" stroke-miterlimit="10" stroke-linecap="round" stroke-linejoin="round"/>
<path d="M1467.23 608.344C1467.73 610.051 1468.22 611.757 1468.71 613.464" stroke="#364715" stroke-miterlimit="10" stroke-linecap="round" stroke-linejoin="round"/>
<path d="M1487.21 687.474C1487.21 690.368 1487.21 693.261 1487.21 696.155" stroke="#364715" stroke-miterlimit="10" stroke-linecap="round" stroke-linejoin="round"/>
<path d="M1492.73 696.643C1493.26 694.433 1493.78 692.223 1494.3 690.013" stroke="#364715" stroke-miterlimit="10" stroke-linecap="round" stroke-linejoin="round"/>
<path d="M1479.45 689.539C1479.93 691.757 1480.41 693.978 1480.89 696.196" stroke="#364715" stroke-miterlimit="10" stroke-linecap="round" stroke-linejoin="round"/>
<path d="M1855.6 544.634C1856.96 546.693 1857.88 549.042 1858.27 551.475" stroke="#364715" stroke-miterlimit="10" stroke-linecap="round" stroke-linejoin="round"/>
<path d="M1862.85 539.232C1863.13 543.54 1863.41 547.849 1863.69 552.157" stroke="#364715" stroke-miterlimit="10" stroke-linecap="round" stroke-linejoin="round"/>
<path d="M1868.49 546.027C1868.49 547.843 1868.49 549.659 1868.49 551.475" stroke="#364715" stroke-miterlimit="10" stroke-linecap="round" stroke-linejoin="round"/>
<path d="M1887.44 576C1887.73 578.261 1888.02 580.522 1888.31 582.785" stroke="#364715" stroke-miterlimit="10" stroke-linecap="round" stroke-linejoin="round"/>
<path d="M1892.88 569.866C1893.17 573.721 1893.46 577.573 1893.75 581.427" stroke="#364715" stroke-miterlimit="10" stroke-linecap="round" stroke-linejoin="round"/>
<path d="M1831.09 609.338C1831.52 611.612 1831.96 613.883 1832.4 616.156" stroke="#364715" stroke-miterlimit="10" stroke-linecap="round" stroke-linejoin="round"/>
<path d="M1837.68 602.547C1837.92 607.312 1838.17 612.077 1838.42 616.843" stroke="#364715" stroke-miterlimit="10" stroke-linecap="round" stroke-linejoin="round"/>
<path d="M1844.66 609.347C1844.66 611.616 1844.66 613.885 1844.66 616.155" stroke="#364715" stroke-miterlimit="10" stroke-linecap="round" stroke-linejoin="round"/>
<path d="M1546.45 644.07C1546.45 642.027 1546.45 639.985 1546.45 637.942" stroke="#364715" stroke-miterlimit="10" stroke-linecap="round" stroke-linejoin="round"/>
<path d="M1552.57 633.857C1552.43 636.592 1552.69 639.346 1553.36 642.001" stroke="#364715" stroke-miterlimit="10" stroke-linecap="round" stroke-linejoin="round"/>
<path d="M1284.32 750.283C1284.32 753.005 1284.32 755.73 1284.32 758.453" stroke="#364715" stroke-miterlimit="10" stroke-linecap="round" stroke-linejoin="round"/>
<path d="M1290.45 746.878C1290.45 750.736 1290.45 754.595 1290.45 758.453" stroke="#364715" stroke-miterlimit="10" stroke-linecap="round" stroke-linejoin="round"/>
<path d="M1325.89 787.712C1326.62 789.51 1327.34 791.307 1328.07 793.107" stroke="#364715" stroke-miterlimit="10" stroke-linecap="round" stroke-linejoin="round"/>
<path d="M1333.34 792.496C1333.34 788.638 1333.34 784.779 1333.34 780.921" stroke="#364715" stroke-miterlimit="10" stroke-linecap="round" stroke-linejoin="round"/>
<path d="M1338.68 793.844C1338.97 791.356 1339.27 788.868 1339.56 786.378" stroke="#364715" stroke-miterlimit="10" stroke-linecap="round" stroke-linejoin="round"/>
<path d="M1210.79 644.07C1210.63 646.413 1211.06 648.792 1212.03 650.931" stroke="#364715" stroke-miterlimit="10" stroke-linecap="round" stroke-linejoin="round"/>
<path d="M1219.45 639.317C1219.73 643.171 1220 647.026 1220.28 650.88" stroke="#364715" stroke-miterlimit="10" stroke-linecap="round" stroke-linejoin="round"/>
<path d="M1226.47 650.196C1226.2 647.687 1226.41 645.128 1227.1 642.702" stroke="#364715" stroke-miterlimit="10" stroke-linecap="round" stroke-linejoin="round"/>
<path d="M1300.68 601.172C1301.38 603.595 1301.6 606.156 1301.32 608.664" stroke="#364715" stroke-miterlimit="10" stroke-linecap="round" stroke-linejoin="round"/>
<path d="M1306.28 598.431C1306.73 601.836 1307.17 605.241 1307.62 608.646" stroke="#364715" stroke-miterlimit="10" stroke-linecap="round" stroke-linejoin="round"/>
<path d="M1462.8 542.602C1463.4 545.343 1464 548.086 1464.59 550.827" stroke="#364715" stroke-miterlimit="10" stroke-linecap="round" stroke-linejoin="round"/>
<path d="M1470.26 537.181C1469.94 541.274 1470.04 545.398 1470.54 549.473" stroke="#364715" stroke-miterlimit="10" stroke-linecap="round" stroke-linejoin="round"/>
<path d="M1050.79 627.729V619.53" stroke="#364715" stroke-miterlimit="10" stroke-linecap="round" stroke-linejoin="round"/>
<path d="M1058.96 628.409V618.879" stroke="#364715" stroke-miterlimit="10" stroke-linecap="round" stroke-linejoin="round"/>
<path d="M1078.02 723.729V716.239" stroke="#364715" stroke-miterlimit="10" stroke-linecap="round" stroke-linejoin="round"/>
<path d="M1084.83 723.049V709.432" stroke="#364715" stroke-miterlimit="10" stroke-linecap="round" stroke-linejoin="round"/>
<path d="M1093 724.41V718.282" stroke="#364715" stroke-miterlimit="10" stroke-linecap="round" stroke-linejoin="round"/>
<path d="M956.83 727.814V735.304" stroke="#364715" stroke-miterlimit="10" stroke-linecap="round" stroke-linejoin="round"/>
<path d="M964.32 725.092V735.327" stroke="#364715" stroke-miterlimit="10" stroke-linecap="round" stroke-linejoin="round"/>
<path d="M1019.47 780.241V787.762" stroke="#364715" stroke-miterlimit="10" stroke-linecap="round" stroke-linejoin="round"/>
<path d="M1026.96 773.431V787.794" stroke="#364715" stroke-miterlimit="10" stroke-linecap="round" stroke-linejoin="round"/>
<path d="M1035.81 780.241V786.518" stroke="#364715" stroke-miterlimit="10" stroke-linecap="round" stroke-linejoin="round"/>
<path d="M790.703 710.112V716.922" stroke="#364715" stroke-miterlimit="10" stroke-linecap="round" stroke-linejoin="round"/>
<path d="M798.873 704.667V718.352" stroke="#364715" stroke-miterlimit="10" stroke-linecap="round" stroke-linejoin="round"/>
<path d="M819.979 769.346V761.176" stroke="#364715" stroke-miterlimit="10" stroke-linecap="round" stroke-linejoin="round"/>
<path d="M828.149 768.666V757.75" stroke="#364715" stroke-miterlimit="10" stroke-linecap="round" stroke-linejoin="round"/>
<path d="M840.404 770.708V763.188" stroke="#364715" stroke-miterlimit="10" stroke-linecap="round" stroke-linejoin="round"/>
</g>
<defs>
<clipPath id="clip0_6_2248">
<rect width="1920" height="836" fill="white"/>
</clipPath>
</defs>
</svg>
