<svg width="136" height="163" viewBox="0 0 136 163" fill="none" xmlns="http://www.w3.org/2000/svg">
<g clip-path="url(#clip0_1_2)">
<rect width="136" height="163" fill="white"/>
<mask id="mask0_1_2" style="mask-type:luminance" maskUnits="userSpaceOnUse" x="-17" y="-54" width="347" height="272">
<path d="M-17 -54H329.502V217.111H-17V-54Z" fill="white"/>
</mask>
<g mask="url(#mask0_1_2)">
<path d="M98.693 162.851C72.074 165.687 45.348 150.564 30.788 129.975C9.241 99.5048 11.452 52.9828 39.103 25.8668C65.414 0.0648193 130.294 -9.32819 125.024 10.7988C119.718 31.0578 102.446 53.5138 119.48 94.3588C129.797 119.098 140.79 129.425 134.724 143.673C127.884 159.742 102.272 162.47 98.693 162.851Z" fill="#2EA94A"/>
<path d="M97.5958 45.6058C95.9508 45.6058 94.3778 46.0778 93.0838 46.9998C91.0288 48.4638 89.9008 50.8958 89.9898 53.6698C90.2718 62.4778 97.3548 69.2358 98.8718 70.5848C100.002 69.3178 104.084 62.9908 104.512 62.1598C106.6 58.0958 107.134 54.0288 105.973 51.0008C105.13 48.7978 103.415 47.1908 100.878 46.2238C99.7928 45.8098 98.6788 45.6058 97.5958 45.6058ZM98.8858 71.7118C98.7598 71.7118 98.6218 71.6688 98.5308 71.5948C98.3428 71.4408 89.3328 63.9948 89.0018 53.7008C88.9028 50.5908 90.1808 47.8548 92.5108 46.1948C94.9248 44.4738 98.1828 44.1388 101.23 45.3008C104.041 46.3738 105.948 48.1708 106.896 50.6468C108.157 53.9368 107.607 58.2978 105.389 62.6118C105.345 62.6988 99.9828 71.4948 98.9828 71.7038C98.9508 71.7098 98.9188 71.7118 98.8858 71.7118Z" fill="white"/>
<path d="M99.6813 70.8529C99.4523 70.8529 99.2463 70.6929 99.1983 70.4599C99.1023 70.0009 96.8693 59.1269 98.6483 51.1959C98.7083 50.9289 98.9723 50.7609 99.2383 50.8219C99.5043 50.8809 99.6723 51.1459 99.6123 51.4119C97.8803 59.1319 100.141 70.1479 100.165 70.2589C100.221 70.5259 100.05 70.7879 99.7823 70.8429C99.7483 70.8499 99.7153 70.8529 99.6813 70.8529Z" fill="white"/>
<path d="M98.6944 63.7865C98.5614 63.7865 98.4324 63.7315 98.3384 63.6345C98.0874 63.3715 92.2104 57.1765 93.0694 52.7245C93.1214 52.4575 93.3794 52.2805 93.6484 52.3345C93.9154 52.3865 94.0904 52.6445 94.0394 52.9135C93.4194 56.1235 97.0794 60.7055 98.5024 62.3415C99.2924 60.1325 101.483 54.4135 103.381 53.2705C103.617 53.1345 103.92 53.2075 104.06 53.4395C104.2 53.6745 104.125 53.9775 103.891 54.1185C102.264 55.0955 99.9264 61.1855 99.1624 63.4505C99.1074 63.6135 98.9704 63.7365 98.8014 63.7745C98.7664 63.7815 98.7304 63.7865 98.6944 63.7865Z" fill="white"/>
<path d="M108.32 73.7679C108.243 73.7679 108.165 73.7699 108.087 73.7749C106.672 73.8529 105.404 74.6709 104.611 76.0209C102.138 80.2189 103.27 85.4069 103.667 86.8739C104.854 86.4629 108.464 84.7889 108.886 84.5399C111.122 83.2249 112.672 81.3709 113.031 79.5819C113.294 78.2799 112.959 76.9949 112.037 75.7619C111.082 74.4859 109.738 73.7679 108.32 73.7679ZM103.286 87.9319C103.235 87.9319 103.193 87.9259 103.161 87.9139C103.029 87.8649 102.909 87.7469 102.857 87.6149C102.857 87.6149 102.857 87.6139 102.856 87.6119C102.853 87.6059 102.851 87.5989 102.848 87.5919L102.849 87.5909C102.706 87.1499 100.728 80.6659 103.759 75.5189C104.724 73.8799 106.281 72.8849 108.032 72.7889C109.849 72.6959 111.637 73.5789 112.828 75.1699C113.925 76.6369 114.32 78.1869 114.001 79.7769C113.58 81.8679 111.899 83.9139 109.387 85.3919C109.339 85.4199 104.352 87.9309 103.286 87.9319Z" fill="white"/>
<path d="M104.003 87.7689C103.945 87.7689 103.887 87.7589 103.83 87.7379C103.575 87.6419 103.445 87.3579 103.54 87.1019C103.638 86.8409 105.966 80.6869 109.38 77.2689C109.574 77.0759 109.886 77.0759 110.079 77.2689C110.272 77.4609 110.272 77.7749 110.079 77.9669C106.815 81.2359 104.489 87.3869 104.466 87.4489C104.392 87.6469 104.203 87.7689 104.003 87.7689Z" fill="white"/>
<path d="M105.737 83.9417C105.681 83.9417 105.624 83.9317 105.57 83.9127C105.407 83.8547 105.287 83.7147 105.253 83.5457C105.21 83.3327 104.217 78.2967 106.117 76.2777C106.304 76.0787 106.619 76.0707 106.815 76.2567C107.014 76.4437 107.024 76.7557 106.836 76.9547C105.758 78.1007 105.869 80.8927 106.089 82.5417C107.383 81.5457 110.002 79.7247 111.231 79.7337C111.504 79.7407 111.719 79.9667 111.713 80.2387C111.706 80.5077 111.487 80.7207 111.219 80.7207H111.192C110.239 80.7207 107.537 82.6247 106.048 83.8317C105.959 83.9037 105.848 83.9417 105.737 83.9417Z" fill="white"/>
<path d="M97.3624 92.973C97.1974 92.973 97.0274 92.984 96.8524 93.003C95.6954 93.136 94.7614 93.741 94.2884 94.664C93.8444 95.532 93.8924 96.569 94.4204 97.512C96.0294 100.388 99.4044 101.588 100.602 101.935C100.773 100.933 101.016 98.336 101.015 98.016C101.009 96.185 100.436 94.585 99.4834 93.739C98.9114 93.23 98.1994 92.973 97.3624 92.973ZM100.928 103.025C100.895 103.025 100.862 103.022 100.831 103.015H100.829C100.623 102.971 95.7414 101.895 93.5574 97.994C92.8654 96.758 92.8124 95.38 93.4094 94.214C94.0264 93.009 95.2714 92.19 96.7394 92.022C98.0934 91.868 99.2364 92.197 100.139 92.999C101.316 94.047 101.995 95.873 102.003 98.012C102.003 98.055 101.747 102.512 101.26 102.91C101.17 102.983 101.047 103.025 100.928 103.025Z" fill="white"/>
<path d="M101.082 102.539C100.939 102.539 100.797 102.477 100.7 102.357C100.572 102.201 97.5696 98.4964 96.6756 95.1014C96.6056 94.8374 96.7636 94.5664 97.0276 94.4974C97.2916 94.4284 97.5616 94.5864 97.6316 94.8504C98.4706 98.0394 101.435 101.697 101.464 101.733C101.637 101.944 101.605 102.256 101.394 102.428C101.302 102.503 101.192 102.539 101.082 102.539Z" fill="white"/>
<path d="M99.3297 100.071C99.2767 100.071 99.2227 100.062 99.1697 100.045C98.7907 99.9156 95.4507 98.7246 94.8747 96.7746C94.7987 96.5136 94.9477 96.2386 95.2087 96.1616C95.4737 96.0846 95.7447 96.2336 95.8227 96.4956C96.1097 97.4666 97.6447 98.3316 98.7277 98.8076C98.5827 97.5766 98.4267 95.5036 98.8977 94.7376C99.0397 94.5046 99.3447 94.4306 99.5777 94.5756C99.8097 94.7186 99.8817 95.0226 99.7387 95.2556C99.4547 95.7166 99.5587 97.8186 99.8187 99.5026C99.8437 99.6726 99.7787 99.8446 99.6467 99.9556C99.5567 100.032 99.4437 100.071 99.3297 100.071Z" fill="white"/>
<path d="M78.5777 58.0159C77.7397 58.0159 76.8637 58.1949 75.9557 58.5529C73.9487 59.3459 72.5067 60.9519 72.0997 62.8469C71.7107 64.6619 72.3067 66.5419 73.7337 68.0069C78.2447 72.6349 85.2957 72.8589 87.0257 72.8549C86.9617 71.4059 86.0647 66.1109 85.8907 65.4709C84.9977 62.1899 83.2547 59.6919 81.1067 58.6149C80.3087 58.2149 79.4637 58.0159 78.5777 58.0159ZM86.8927 73.8419C84.7987 73.8419 77.6817 73.4709 73.0257 68.6959C71.3647 66.9909 70.6747 64.7839 71.1347 62.6399C71.6097 60.4199 73.2777 58.5479 75.5937 57.6339C77.7307 56.7899 79.7347 56.8229 81.5497 57.7319C83.9487 58.9339 85.8777 61.6609 86.8437 65.2109C86.8627 65.2839 88.3767 72.9199 87.8807 73.6099C87.7937 73.7309 87.6317 73.8219 87.4827 73.8299H87.4797C87.4297 73.8319 87.2237 73.8419 86.8927 73.8419Z" fill="white"/>
<path d="M87.4874 72.932C87.3874 72.932 87.2864 72.901 87.1994 72.838C86.9124 72.631 80.1374 67.715 77.0904 62.389C76.9544 62.153 77.0354 61.85 77.2734 61.715C77.5084 61.579 77.8104 61.661 77.9464 61.899C80.8874 67.037 87.7084 71.988 87.7764 72.036C87.9984 72.197 88.0484 72.505 87.8884 72.726C87.7924 72.861 87.6404 72.932 87.4874 72.932Z" fill="white"/>
<path d="M83.3556 69.5111C83.3446 69.5111 83.3346 69.5111 83.3226 69.5101C83.0486 69.4911 76.5836 69.0291 74.7716 66.0711C74.6286 65.8381 74.7026 65.5331 74.9346 65.3911C75.1656 65.2471 75.4716 65.3211 75.6136 65.5541C76.8196 67.5221 80.8336 68.2251 82.5736 68.4411C81.8446 66.6791 80.2906 62.6161 80.7576 61.0441C80.8356 60.7821 81.1136 60.6361 81.3726 60.7111C81.6336 60.7891 81.7826 61.0641 81.7056 61.3251C81.3536 62.5081 82.8076 66.5491 83.8076 68.8181C83.8776 68.9761 83.8586 69.1591 83.7606 69.3001C83.6676 69.4331 83.5156 69.5111 83.3556 69.5111Z" fill="white"/>
<path d="M84.5582 78.6524C83.9092 78.6524 83.2942 78.7414 82.7302 78.9234C81.3142 79.3774 80.2422 80.4054 79.5422 81.9764C78.7892 83.6674 78.8702 85.5144 79.7582 86.9154C80.6072 88.2564 82.0982 89.0484 83.8482 89.0874C89.3612 89.2274 93.7702 85.2314 94.9272 84.0854C93.9392 83.1874 90.2822 80.5384 89.8022 80.2584C87.9992 79.2024 86.1712 78.6524 84.5582 78.6524ZM84.0982 90.0774C84.0082 90.0774 83.9172 90.0774 83.8272 90.0744C81.7402 90.0274 79.9532 89.0684 78.9232 87.4434C77.8582 85.7624 77.7522 83.5674 78.6402 81.5744C79.4592 79.7354 80.7332 78.5264 82.4272 77.9824C84.6602 77.2644 87.5292 77.7824 90.3002 79.4054C90.3562 79.4374 95.9532 83.2314 96.0742 84.0214C96.0962 84.1694 96.0452 84.3444 95.9452 84.4534C95.9452 84.4544 95.9432 84.4554 95.9432 84.4564C95.7292 84.6884 90.6942 90.0774 84.0982 90.0774Z" fill="white"/>
<path d="M89.0782 84.4574C86.9362 84.4574 84.5522 84.2804 82.4952 83.6994C82.2332 83.6264 82.0802 83.3534 82.1552 83.0904C82.2292 82.8284 82.4992 82.6774 82.7652 82.7494C87.6932 84.1414 94.9062 83.0674 94.9792 83.0574C95.2442 83.0254 95.5002 83.2014 95.5422 83.4714C95.5822 83.7404 95.3972 83.9924 95.1282 84.0334C94.9462 84.0614 92.2862 84.4574 89.0782 84.4574Z" fill="white"/>
<path d="M84.1393 87.4857C83.8503 87.4857 83.5683 87.4547 83.2973 87.3867C83.0333 87.3207 82.8723 87.0527 82.9393 86.7887C83.0053 86.5227 83.2723 86.3627 83.5383 86.4287C85.2693 86.8627 87.9933 85.1787 89.4593 84.0717C87.8873 83.3967 84.5703 81.8547 83.9113 80.6077C83.7833 80.3667 83.8763 80.0667 84.1163 79.9397C84.3593 79.8117 84.6583 79.9047 84.7843 80.1447C85.2763 81.0767 88.6133 82.6837 90.6023 83.4777C90.7633 83.5417 90.8773 83.6847 90.9063 83.8547C90.9343 84.0257 90.8713 84.1987 90.7403 84.3107C90.5753 84.4537 87.0043 87.4857 84.1393 87.4857Z" fill="white"/>
<path d="M79.4332 99.8104C77.5112 99.8104 75.8172 100.256 74.5522 101.127C73.1222 102.112 72.2682 103.621 72.0152 105.61C71.7412 107.754 72.4532 109.791 73.9182 111.061C75.3222 112.277 77.2592 112.661 79.2282 112.117C85.4582 110.396 89.0492 104.363 89.8862 102.807C88.5872 102.164 83.5122 100.396 82.8682 100.24C81.6752 99.9524 80.5172 99.8104 79.4332 99.8104ZM77.4852 113.349C75.9122 113.349 74.4402 112.821 73.2722 111.808C71.5562 110.32 70.7192 107.957 71.0352 105.485C71.3252 103.205 72.3202 101.466 73.9922 100.313C76.2022 98.7924 79.5232 98.4164 83.1002 99.2804C83.1722 99.2984 90.5982 101.657 90.9602 102.421C91.0242 102.556 91.0262 102.741 90.9612 102.875C90.9612 102.877 90.9602 102.879 90.9602 102.879C90.7992 103.21 86.9372 111.013 79.4922 113.069C78.8152 113.256 78.1412 113.349 77.4852 113.349Z" fill="white"/>
<path d="M75.9151 106.468C75.6461 106.468 75.4261 106.253 75.4211 105.983C75.4161 105.71 75.6341 105.486 75.9071 105.481C81.8321 105.38 89.4551 101.79 89.5321 101.754C89.7791 101.636 90.0731 101.742 90.1891 101.989C90.3071 102.235 90.2021 102.53 89.9561 102.647C89.6361 102.798 82.0611 106.365 75.9231 106.468H75.9151Z" fill="white"/>
<path d="M78.0079 110.275C77.7459 110.275 77.5279 110.069 77.5159 109.804C77.5029 109.532 77.7139 109.301 77.9859 109.288C80.2929 109.18 82.8439 106.001 83.8709 104.58C81.9769 104.37 77.6659 103.772 76.5139 102.604C76.3219 102.41 76.3239 102.097 76.5189 101.906C76.7139 101.713 77.0269 101.716 77.2169 101.911C78.0839 102.79 82.3259 103.463 84.7969 103.68C84.9689 103.695 85.1209 103.799 85.1969 103.955C85.2729 104.109 85.2629 104.294 85.1699 104.438C85.0209 104.671 81.4989 110.113 78.0319 110.275H78.0079Z" fill="white"/>
<path d="M103.785 107.173C102.105 107.173 100.625 107.563 99.521 108.323C98.275 109.181 97.532 110.496 97.31 112.232C97.069 114.127 97.673 115.857 98.967 116.981C100.187 118.038 101.874 118.375 103.59 117.898C108.941 116.42 112.124 111.208 112.91 109.778C111.694 109.195 107.348 107.684 106.798 107.551C105.751 107.298 104.735 107.173 103.785 107.173ZM102.07 119.098C100.672 119.098 99.361 118.628 98.32 117.727C96.794 116.403 96.05 114.303 96.331 112.107C96.589 110.081 97.474 108.533 98.96 107.51C100.921 106.16 103.862 105.823 107.03 106.591C107.093 106.607 113.654 108.678 113.992 109.389C114.056 109.524 114.058 109.706 113.993 109.84C113.921 109.991 110.494 117.016 103.853 118.851C103.253 119.016 102.653 119.098 102.07 119.098Z" fill="white"/>
<path d="M100.687 113.037C100.418 113.037 100.198 112.822 100.193 112.552C100.188 112.279 100.406 112.055 100.679 112.05C105.881 111.962 112.588 108.805 112.655 108.773C112.903 108.654 113.195 108.761 113.313 109.007C113.43 109.254 113.325 109.549 113.08 109.665C112.798 109.799 106.114 112.946 100.695 113.037H100.687Z" fill="white"/>
<path d="M102.531 116.391C102.269 116.391 102.051 116.185 102.038 115.92C102.026 115.648 102.237 115.416 102.509 115.404C104.334 115.319 106.492 112.87 107.593 111.364C105.873 111.168 102.18 110.639 101.173 109.617C100.981 109.423 100.983 109.111 101.177 108.919C101.372 108.726 101.684 108.73 101.876 108.924C102.628 109.687 106.348 110.274 108.516 110.465C108.688 110.48 108.84 110.583 108.916 110.74C108.992 110.894 108.982 111.078 108.888 111.223C108.757 111.428 105.638 116.246 102.554 116.39C102.547 116.391 102.539 116.391 102.531 116.391Z" fill="white"/>
<path d="M122.812 116.709C122.706 116.709 122.599 116.675 122.508 116.604C112.883 109.091 101.438 97.1482 98.3531 71.2722C98.3201 71.0002 98.5141 70.7542 98.7851 70.7222C99.0551 70.6922 99.3021 70.8832 99.3331 71.1532C102.376 96.6702 113.642 108.43 123.117 115.825C123.332 115.993 123.37 116.304 123.202 116.519C123.104 116.644 122.959 116.709 122.812 116.709Z" fill="white"/>
<path d="M115.743 110.779C115.556 110.779 115.378 110.673 115.294 110.492C115.201 110.288 106.061 89.9696 119.061 81.3986C119.288 81.2476 119.595 81.3096 119.745 81.5396C119.895 81.7666 119.832 82.0736 119.604 82.2226C107.313 90.3286 116.102 109.883 116.192 110.08C116.306 110.328 116.197 110.621 115.949 110.734C115.882 110.765 115.812 110.779 115.743 110.779Z" fill="white"/>
<path d="M103.353 91.8284C103.249 91.8284 103.144 91.7954 103.054 91.7264C102.966 91.6594 94.2161 84.9024 86.8021 72.5004C86.6621 72.2664 86.7381 71.9634 86.9721 71.8234C87.2081 71.6834 87.5111 71.7614 87.6491 71.9934C94.9601 84.2244 103.567 90.8764 103.654 90.9414C103.87 91.1074 103.912 91.4174 103.746 91.6344C103.649 91.7614 103.501 91.8284 103.353 91.8284Z" fill="white"/>
<path d="M119.523 114.333C119.404 114.333 119.285 114.291 119.19 114.204C119.015 114.045 101.499 98.2593 90.1116 102.995C89.8586 103.098 89.5706 102.979 89.4656 102.729C89.3616 102.477 89.4806 102.187 89.7326 102.083C101.701 97.1043 119.121 112.803 119.856 113.475C120.057 113.658 120.071 113.971 119.888 114.173C119.791 114.279 119.657 114.333 119.523 114.333Z" fill="white"/>
</g>
</g>
<defs>
<clipPath id="clip0_1_2">
<rect width="136" height="163" fill="white"/>
</clipPath>
</defs>
</svg>
