<svg width="1920" height="623" viewBox="0 0 1920 623" fill="none" xmlns="http://www.w3.org/2000/svg">
<g clip-path="url(#clip0_6_2075)">
<mask id="mask0_6_2075" style="mask-type:luminance" maskUnits="userSpaceOnUse" x="0" y="85" width="291" height="379">
<path d="M290.378 85.5483H0V463.361H290.378V85.5483Z" fill="white"/>
</mask>
<g mask="url(#mask0_6_2075)">
<path d="M130.189 472.533C130.516 461.354 133.312 362.917 130.506 349.536C127.8 336.628 110.264 227.063 110.088 225.957L100.022 227.567C100.746 232.088 117.775 338.482 120.53 351.625C122.465 360.859 121.272 428.811 120 472.231L130.189 472.533Z" fill="#694D42"/>
<path d="M122.68 345.557L125.995 342.984C124.513 341.075 89.6179 296.142 81.5231 288.459C75.6044 282.842 70.4153 274.776 67.3177 269.955C66.2655 268.317 65.431 267.022 64.8243 266.21C63.4726 264.188 58.3603 244.599 54.2028 226.835L50.1171 227.79C52.1753 236.586 59.0771 265.534 61.4655 268.724C61.9852 269.415 62.7814 270.654 63.79 272.224C66.99 277.203 72.3507 285.538 78.6355 291.503C86.4998 298.968 122.319 345.094 122.68 345.557Z" fill="#694D42"/>
<path d="M78.0032 290.292L82.1555 289.675C81.4873 285.175 80.3737 272.216 83.2179 266.392C87.2192 258.195 80.6169 235.636 79.8515 233.092L75.8323 234.3C75.8502 234.359 77.6371 240.326 78.9401 247.125C81.152 258.653 80.2073 262.99 79.4444 264.549C75.4483 272.738 77.8956 289.581 78.0032 290.292Z" fill="#694D42"/>
<path d="M124.383 321.286C124.477 320.851 133.962 277.623 139.149 266.863C141.596 261.786 140.843 251.979 136.914 237.717C134.062 227.362 130.498 218.251 130.463 218.159L126.556 219.692C130.383 229.449 139.43 256.61 135.368 265.04C129.969 276.24 120.676 318.59 120.281 320.387L124.383 321.286Z" fill="#694D42"/>
<path d="M274.657 228.046C267.825 204.432 248.899 213.536 248.899 213.536C240.366 200.18 237.153 214.782 237.153 214.782C232.691 195.38 211.651 206.913 211.651 206.913C198.315 182.375 170.701 199.491 170.701 199.491C173.197 183.486 158.618 185.872 158.618 185.872C157.143 169.009 140.626 175.389 140.626 175.389C124.403 132.547 87.1705 179.741 87.1705 179.741C55.4163 173.249 50.6137 187.521 48.43 197.077C8.39419 193.504 5.55771 204.606 6.75067 210.568C-16.5837 216.416 -32.6477 230.132 -22.6663 258.254C-15.8336 279.425 3.09243 271.264 3.09243 271.264C11.6249 283.237 14.8377 270.145 14.8377 270.145C19.2998 287.54 40.3404 277.2 40.3404 277.2C53.6755 299.198 81.2902 283.854 81.2902 283.854C78.7942 298.205 93.3734 296.062 93.3734 296.062C94.848 311.182 111.365 305.46 111.365 305.46C127.588 343.87 164.82 301.556 164.82 301.556C196.575 307.375 201.377 294.583 203.561 286.012C225.907 287.799 236.646 285.484 241.582 282.161C266.857 276.24 285.153 261.024 274.657 228.046Z" fill="#5E8F4D"/>
</g>
<mask id="mask1_6_2075" style="mask-type:luminance" maskUnits="userSpaceOnUse" x="1413" y="-21" width="507" height="518">
<path d="M1920 -20.021H1413.3V496.643H1920V-20.021Z" fill="white"/>
</mask>
<g mask="url(#mask1_6_2075)">
<path d="M1754.52 497.752C1754.92 484.215 1758.3 365.029 1754.91 348.826C1751.63 333.2 1730.4 200.538 1730.18 199.199L1718 201.15C1718.87 206.626 1739.49 335.445 1742.83 351.358C1745.17 362.538 1743.73 444.813 1742.18 497.388L1754.52 497.752Z" fill="#694D42"/>
<path d="M1745.43 344.014L1749.44 340.898C1747.65 338.586 1705.4 284.179 1695.6 274.881C1688.43 268.081 1682.15 258.312 1678.39 252.476C1677.12 250.492 1676.11 248.925 1675.37 247.939C1673.74 245.492 1667.55 221.771 1662.52 200.264L1657.57 201.422C1660.06 212.074 1668.42 247.125 1671.31 250.986C1671.94 251.825 1672.9 253.323 1674.12 255.222C1678 261.251 1684.49 271.343 1692.1 278.565C1701.62 287.601 1744.99 343.45 1745.43 344.014Z" fill="#694D42"/>
<path d="M1691.33 277.098L1696.36 276.35C1695.55 270.9 1694.21 255.212 1697.65 248.16C1702.49 238.234 1694.5 210.922 1693.57 207.84L1688.7 209.304C1688.72 209.376 1690.89 216.6 1692.47 224.835C1695.14 238.793 1694 244.043 1693.08 245.932C1688.24 255.842 1691.21 276.233 1691.33 277.098Z" fill="#694D42"/>
<path d="M1747.49 314.625C1747.61 314.097 1759.09 261.756 1765.37 248.73C1768.33 242.584 1767.42 230.711 1762.66 213.441C1759.21 200.904 1754.9 189.871 1754.85 189.761L1750.12 191.617C1754.76 203.429 1765.71 236.317 1760.79 246.524C1754.26 260.084 1743 311.363 1742.53 313.539L1747.49 314.625Z" fill="#694D42"/>
<path d="M1923.77 172.122C1915.49 143.532 1892.58 154.553 1892.58 154.553C1882.25 138.382 1878.36 156.064 1878.36 156.064C1872.95 132.573 1847.48 146.535 1847.48 146.535C1831.33 116.826 1797.9 137.55 1797.9 137.55C1800.92 118.17 1783.27 121.061 1783.27 121.061C1781.48 100.642 1761.48 108.368 1761.48 108.368C1741.84 56.4974 1696.76 113.639 1696.76 113.639C1658.31 105.78 1652.5 123.057 1649.85 134.631C1601.38 130.305 1597.94 143.747 1599.39 150.967C1571.13 158.045 1551.68 174.654 1563.77 208.702C1572.04 234.336 1594.96 224.454 1594.96 224.454C1605.29 238.951 1609.18 223.1 1609.18 223.1C1614.58 244.161 1640.06 231.642 1640.06 231.642C1656.2 258.277 1689.64 239.699 1689.64 239.699C1686.62 257.073 1704.27 254.483 1704.27 254.483C1706.06 272.789 1726.05 265.862 1726.05 265.862C1745.7 312.367 1790.78 261.136 1790.78 261.136C1829.22 268.184 1835.04 252.693 1837.68 242.315C1864.74 244.481 1877.74 241.678 1883.72 237.653C1914.32 230.478 1936.47 212.051 1923.77 172.122Z" fill="#5E8F4D"/>
</g>
<mask id="mask2_6_2075" style="mask-type:luminance" maskUnits="userSpaceOnUse" x="1413" y="-21" width="507" height="518">
<path d="M1920 -20.021H1413.3V496.643H1920V-20.021Z" fill="white"/>
</mask>
<g mask="url(#mask2_6_2075)">
<path d="M1608.52 547.795C1608.85 536.615 1611.65 438.178 1608.84 424.797C1606.14 411.89 1588.6 302.324 1588.42 301.218L1578.36 302.828C1579.08 307.352 1596.11 413.743 1598.87 426.886C1600.8 436.12 1599.61 504.073 1598.34 547.493L1608.52 547.795Z" fill="#694D42"/>
<path d="M1601.02 420.819L1604.33 418.246C1602.85 416.336 1567.95 371.403 1559.86 363.723C1553.94 358.107 1548.75 350.04 1545.65 345.22C1544.6 343.581 1543.77 342.286 1543.16 341.474C1541.81 339.452 1536.7 319.863 1532.54 302.099L1528.45 303.054C1530.51 311.85 1537.41 340.801 1539.8 343.988C1540.32 344.682 1541.12 345.918 1542.13 347.488C1545.33 352.467 1550.69 360.802 1556.97 366.767C1564.84 374.229 1600.66 420.356 1601.02 420.819Z" fill="#694D42"/>
<path d="M1556.34 365.554L1560.49 364.937C1559.82 360.436 1558.71 347.477 1561.55 341.653C1565.56 333.456 1558.95 310.898 1558.19 308.353L1554.17 309.561C1554.19 309.62 1555.97 315.588 1557.28 322.387C1559.49 333.915 1558.54 338.251 1557.78 339.81C1553.78 348 1556.23 364.839 1556.34 365.554Z" fill="#694D42"/>
<path d="M1602.72 396.547C1602.81 396.112 1612.3 352.884 1617.48 342.124C1619.93 337.048 1619.18 327.241 1615.25 312.979C1612.4 302.624 1608.84 293.513 1608.8 293.42L1604.89 294.954C1608.72 304.71 1617.77 331.872 1613.71 340.302C1608.31 351.502 1599.01 393.852 1598.62 395.651L1602.72 396.547Z" fill="#694D42"/>
<path d="M1752.99 303.307C1746.16 279.694 1727.23 288.797 1727.23 288.797C1718.7 275.441 1715.49 290.044 1715.49 290.044C1711.03 270.644 1689.99 282.174 1689.99 282.174C1676.65 257.637 1649.04 274.753 1649.04 274.753C1651.54 258.745 1636.96 261.134 1636.96 261.134C1635.48 244.271 1618.96 250.65 1618.96 250.65C1602.74 207.809 1565.51 255.002 1565.51 255.002C1533.75 248.51 1528.95 262.782 1526.77 272.339C1486.73 268.765 1483.9 279.868 1485.09 285.83C1461.75 291.677 1445.69 305.393 1455.67 333.513C1462.51 354.684 1481.43 346.522 1481.43 346.522C1489.96 358.496 1493.18 345.404 1493.18 345.404C1497.64 362.796 1518.68 352.459 1518.68 352.459C1532.01 374.457 1559.63 359.113 1559.63 359.113C1557.13 373.464 1571.71 371.321 1571.71 371.321C1573.18 386.44 1589.7 380.719 1589.7 380.719C1605.92 419.129 1643.16 376.815 1643.16 376.815C1674.91 382.634 1679.71 369.841 1681.9 361.271C1704.24 363.057 1714.98 360.743 1719.92 357.42C1745.19 351.502 1763.49 336.282 1752.99 303.307Z" fill="#5E8F4D"/>
</g>
<path d="M1920 479.845C1909.09 478.987 1901.06 482.32 1901.06 482.32C1875.1 463.177 1868.82 486.017 1868.82 486.017C1853.04 456.999 1796.95 477.85 1796.95 477.85C1755.74 442.323 1682.47 472.72 1682.47 472.72C1686.52 447.84 1646.66 453.715 1646.66 453.715C1639.59 428.128 1595.08 440.408 1595.08 440.408C1542.63 377.301 1486.27 410.594 1486.27 410.594C1472.82 398.232 1456.33 402.96 1444.19 409.742C1444.19 409.742 1351.83 383.617 1351.89 427.447C1351.89 427.447 1294.66 427.782 1319.18 451.741C1319.18 451.741 1272.81 455.714 1252.98 470.672C1234.81 471.374 1217.36 477.853 1217.36 477.853C1176.15 442.325 1102.88 472.723 1102.88 472.723C1106.93 447.842 1067.07 453.717 1067.07 453.717C1059.99 428.13 1015.49 440.41 1015.49 440.41C963.036 377.304 906.673 410.597 906.673 410.597C893.222 398.234 876.733 402.963 864.594 409.744C864.594 409.744 772.234 383.619 772.293 427.449C772.293 427.449 715.069 427.785 739.587 451.744C739.587 451.744 663.183 458.284 664.576 486.206C645.248 474.387 626.099 482.328 626.099 482.328C600.146 463.184 593.864 486.024 593.864 486.024C578.086 457.007 521.994 477.858 521.994 477.858C480.783 442.33 407.516 472.728 407.516 472.728C411.566 447.847 371.704 453.722 371.704 453.722C364.628 428.135 320.123 440.416 320.123 440.416C267.674 377.309 211.31 410.602 211.31 410.602C197.86 398.24 181.371 402.968 169.231 409.749C169.231 409.749 76.8717 383.624 76.9306 427.454C76.9306 427.454 19.7069 427.79 44.224 451.749C44.224 451.749 20.7104 453.763 0.00769043 460.322V523.045C0.46849 523.357 0.92929 523.687 1.39009 523.987C0.92929 523.946 0.46849 523.913 0.00769043 523.874V572.926C1.89953 573.569 3.76833 574.147 5.60897 574.659C3.70177 575.335 1.82785 576.044 0.00769043 576.779V598.8C23.5674 600.369 32.6451 590.654 32.6451 590.654L132.846 592.585C132.846 592.585 127.16 609.158 133.238 609.632C137.72 609.98 145.265 601.888 147.282 597.838C150.802 602.126 163.919 610.686 171.686 606.204C177.94 602.594 172.14 597.904 167.997 595.511C175.995 598.214 196.165 602.164 205.156 599.525C215.508 596.486 212.644 594.123 212.644 594.123L444.006 598.58C444.006 598.58 429.704 607.985 443.571 608.257C457.436 608.526 456.527 601.061 456.527 601.061C456.527 601.061 462.013 614.025 468.572 609.611C475.131 605.198 467.868 599.041 467.868 599.041L534.377 600.323L607.081 601.724C607.081 601.724 658.568 603.562 676.065 587.964C672.591 591.793 673.587 595.178 682.307 596.995C715.694 603.959 728.01 590.657 728.01 590.657L828.211 592.587C828.211 592.587 822.528 609.161 828.603 609.634C833.085 609.982 840.63 601.89 842.647 597.84C846.167 602.128 859.284 610.689 867.051 606.206C873.306 602.597 867.505 597.907 863.363 595.513C871.36 598.217 891.533 602.167 900.521 599.527C910.874 596.489 908.009 594.126 908.009 594.126L1139.37 598.583C1139.37 598.583 1125.07 607.988 1138.94 608.259C1152.8 608.528 1151.89 601.063 1151.89 601.063C1151.89 601.063 1157.38 614.027 1163.94 609.614C1170.5 605.2 1163.23 599.043 1163.23 599.043L1229.74 600.326L1302.45 601.726C1302.45 601.726 1345.05 603.249 1365.92 591.783L1407.81 592.59C1407.81 592.59 1402.13 609.163 1408.2 609.637C1412.69 609.985 1420.23 601.893 1422.25 597.843C1425.77 602.131 1438.89 610.691 1446.66 606.209C1452.91 602.599 1447.11 597.909 1442.97 595.516C1450.96 598.219 1471.13 602.169 1480.13 599.53C1490.48 596.491 1487.61 594.128 1487.61 594.128L1718.98 598.585C1718.98 598.585 1704.67 607.991 1718.54 608.262C1732.41 608.531 1731.5 601.066 1731.5 601.066C1731.5 601.066 1736.98 614.03 1743.54 609.616C1750.1 605.203 1742.84 599.046 1742.84 599.046L1809.35 600.328L1882.05 601.729C1882.05 601.729 1901.14 602.41 1920.02 599.425V479.845H1920ZM677.356 586.681C682.176 581.589 683.548 574.79 678.991 565.728C686.454 569.788 693.921 572.693 700.964 574.649C691.046 578.164 681.964 582.598 677.356 586.681Z" fill="#D19921"/>
<path d="M1920 496.643H0V866.2H1920V496.643Z" fill="#E3AA24"/>
<path d="M1920 609.411C1920 609.411 1617.49 636.604 1499.36 640.341C1499.36 640.341 1157.39 632.51 829.55 639.855C829.55 639.855 1216.61 667.582 1331.63 679.256L1202.58 684.801L1920 819.078V690.924L1247.63 646.304L1920 652.501V609.411Z" fill="#D19921"/>
<path opacity="0.23" d="M1438.27 570.092C1438.27 558.665 1152.04 549.4 798.961 549.4C445.878 549.4 159.647 558.665 159.647 570.092C159.647 581.52 445.878 590.785 798.961 590.785C800.573 590.785 802.173 590.782 803.781 590.782C777.485 594.254 761.859 598.577 761.859 603.27C761.859 614.698 854.464 623.962 968.699 623.962C1082.93 623.962 1175.54 614.698 1175.54 603.27C1175.54 597.313 1150.34 591.947 1110.08 588.171C1305.85 584.636 1438.27 577.865 1438.27 570.092Z" fill="#42323D"/>
<path d="M710.191 405.265C661.48 405.265 621.991 444.754 621.991 493.465C621.991 542.176 661.48 581.665 710.191 581.665C758.903 581.665 798.392 542.176 798.392 493.465C798.392 444.754 758.903 405.265 710.191 405.265ZM710.191 551.653C678.055 551.653 652.001 525.601 652.001 493.465C652.001 461.329 678.053 435.275 710.191 435.275C742.329 435.275 768.381 461.327 768.381 493.465C768.38 525.601 742.328 551.653 710.191 551.653Z" fill="#422F2A"/>
<path d="M713.862 411.59H706.52V575.338H713.862V411.59Z" fill="#422F2A"/>
<path d="M792.066 497.136V489.794L628.316 489.794V497.136L792.066 497.136Z" fill="#422F2A"/>
<path d="M770.673 438.16L765.481 432.969L649.694 548.756L654.885 553.948L770.673 438.16Z" fill="#422F2A"/>
<path d="M765.494 553.955L770.686 548.763L654.898 432.976L649.707 438.167L765.494 553.955Z" fill="#422F2A"/>
<path d="M787.171 465.42L784.352 458.64L633.145 521.504L635.964 528.284L787.171 465.42Z" fill="#422F2A"/>
<path d="M738.238 570.44L745.018 567.622L682.154 416.415L675.375 419.234L738.238 570.44Z" fill="#422F2A"/>
<path d="M784.344 528.289L787.163 521.509L635.957 458.629L633.137 465.409L784.344 528.289Z" fill="#422F2A"/>
<path d="M745.05 419.277L738.27 416.458L675.406 567.665L682.186 570.484L745.05 419.277Z" fill="#422F2A"/>
<path d="M725.09 508.368C733.322 500.137 733.322 486.791 725.09 478.559C716.859 470.328 703.513 470.328 695.281 478.559C687.05 486.791 687.05 500.137 695.281 508.368C703.513 516.6 716.859 516.6 725.09 508.368Z" fill="#422F2A"/>
<path d="M710.191 503.851C715.927 503.851 720.577 499.201 720.577 493.465C720.577 487.729 715.927 483.079 710.191 483.079C704.455 483.079 699.806 487.729 699.806 493.465C699.806 499.201 704.455 503.851 710.191 503.851Z" fill="#422F2A"/>
<path d="M710.191 420.748C670.032 420.748 637.474 453.304 637.474 493.464C637.474 533.623 670.03 566.18 710.191 566.18C750.353 566.18 782.908 533.625 782.908 493.464C782.907 453.305 750.351 420.748 710.191 420.748ZM710.191 551.654C678.055 551.654 652.001 525.602 652.001 493.464C652.001 461.327 678.053 435.275 710.191 435.275C742.329 435.275 768.381 461.327 768.381 493.464C768.38 525.602 742.328 551.654 710.191 551.654Z" fill="#422F2A"/>
<path d="M789.768 326.145L458.854 406.116L487.891 526.27L818.806 446.299L789.768 326.145Z" fill="#422F2A"/>
<path d="M809.48 407.707L478.565 487.678L481.945 501.665L812.86 421.694L809.48 407.707Z" fill="#855C54"/>
<path d="M754.248 211.244C752.273 216.294 749.481 219.921 748.011 219.345C746.541 218.77 746.949 214.21 748.923 209.161C750.897 204.111 753.69 200.484 755.161 201.06C756.632 201.635 756.223 206.195 754.248 211.244Z" fill="#E3AA24"/>
<path d="M657.282 228.597C655.307 233.647 652.515 237.275 651.043 236.698C649.573 236.124 649.982 231.563 651.955 226.515C653.93 221.465 656.722 217.837 658.194 218.414C659.665 218.989 659.257 223.547 657.282 228.597Z" fill="#E3AA24"/>
<path d="M646.411 235.167C649.179 239.829 650.321 244.262 648.965 245.068C647.607 245.873 644.262 242.749 641.494 238.086C638.726 233.424 637.584 228.991 638.94 228.186C640.298 227.38 643.643 230.506 646.411 235.167Z" fill="#E3AA24"/>
<path d="M825.188 241.849C821.09 235.984 806.041 235.375 806.041 235.375C785.199 210.127 769.681 226.383 769.681 226.383C750.772 214.662 752.309 234.353 752.309 234.353C736.945 212.976 709.929 238.666 709.929 238.666C678.761 215.848 644.176 251.999 644.176 251.999C640.924 230.978 619.733 241.901 619.733 241.901C610.045 222.004 587.658 238.892 587.658 238.892C544.009 195.181 519.606 231.116 519.606 231.116C509.264 223.04 501.01 229.443 495.667 236.863C495.667 236.863 437.724 229.592 447.514 265.522C447.514 265.522 415.291 274.563 434.462 290.454C434.462 290.454 380.214 312.675 405.909 340.101C412.885 347.545 419.855 352.742 426.365 356.252C407.201 358.961 390.044 366.429 407.133 381.351C418.908 391.633 430.509 396.023 440.025 397.158C430.091 406.238 422.996 417.995 434.46 418.329C454.854 418.923 458.844 406.13 458.844 406.13L515.828 392.361C515.828 392.361 516.308 406.822 519.843 406.278C522.451 405.877 524.906 398.084 525.144 394.457C528.086 397.433 537.394 402.444 540.781 397.577C543.507 393.659 539.189 390.702 536.318 389.372C541.432 390.364 553.697 390.513 558.184 386.971C563.35 382.893 561.208 381.394 561.208 381.394L692.781 349.602C692.781 349.602 686.803 359.506 694.688 357.603C702.574 355.7 700.398 349.717 700.398 349.717C700.398 349.717 706.381 359.506 709.1 354.884C711.819 350.261 706.35 346.323 706.35 346.323L744.172 337.185L785.519 327.194C785.519 327.194 842.264 314.911 815.383 283.097C814.539 282.097 813.717 281.169 812.92 280.309C826.653 272.299 835.571 256.708 825.188 241.849Z" fill="#E3AA24"/>
<path d="M515.831 392.359C515.831 392.359 458.168 297.495 495.668 236.863" stroke="#655F51" stroke-width="0.5" stroke-miterlimit="10"/>
<path d="M619.733 241.9C619.733 241.9 557.643 305.122 570.695 379.356" stroke="#655F51" stroke-width="0.5" stroke-miterlimit="10"/>
<path d="M709.931 238.664C709.931 238.664 707.188 309.755 744.175 337.183" stroke="#655F51" stroke-width="0.5" stroke-miterlimit="10"/>
<path d="M1194.87 382.873C1186.01 372.049 1179.18 333.207 1179.08 330.096C1178.92 325.351 1172.23 320.391 1167.31 316.644C1162.39 312.896 1150.59 308.583 1144.68 308.583C1138.78 308.583 1136.81 314.486 1111.72 321.866C1086.63 329.245 1083.18 319.898 1083.18 319.898C1083.68 295.791 1070.39 282.507 1056.62 277.096C1042.84 271.684 1033.99 284.476 1026.61 297.267C1019.23 310.059 1014.31 310.059 966.584 314.486C918.862 318.915 853.92 308.583 848.015 308.583C842.112 308.583 828.335 317.439 810.132 324.327C791.928 331.215 791.928 359.75 797.833 393.49C803.736 427.228 834.732 430.104 879.01 440.436C923.289 450.768 951.332 450.768 976.424 448.799C977.17 448.741 977.938 448.682 978.722 448.625C978.727 448.627 997.829 457.164 1030.3 469.708C1062.77 482.254 1086.51 448.306 1096.84 440.189C1107.17 432.071 1107.54 425.43 1109.38 412.884C1110.5 405.325 1114.37 402.386 1117.28 401.234C1117.56 401.197 1117.86 401.055 1118.12 401.146C1135.77 407.379 1130.42 395.172 1136.81 393.488C1143.21 391.804 1156.98 394.68 1159.94 393.488C1162.89 392.296 1175.68 402.059 1185.52 401.076C1195.36 400.092 1203.72 393.696 1194.87 382.873Z" fill="#EBE5D8"/>
<path d="M1163.48 321.234C1164.35 320.506 1164.26 319.166 1163.32 318.539C1159.14 315.733 1150.24 307.926 1156.82 295.421C1165.24 279.441 1178.86 280.189 1177.3 279.32C1175.73 278.45 1155.17 273.713 1146.34 291.24C1139.59 304.647 1147.26 317.13 1150.86 320.457C1154.12 322.721 1157.91 324.88 1162.42 322.128L1163.48 321.234Z" fill="#655F51"/>
<path d="M1032.94 521.428C1035.09 521.121 1038.17 520.383 1041.86 518.661C1049.24 515.217 1069.9 504.393 1064.98 497.014C1060.06 489.634 1029.48 457.805 1019.72 452.243C1009.96 446.681 1008.95 432.071 1008.95 432.071L1067.94 428.628C1067.94 428.628 1059.08 449.292 1067.94 463.56C1076.79 477.827 1087.12 500.951 1082.69 504.887C1078.27 508.823 1055.63 526.534 1050.71 531.454C1045.8 536.374 1035.96 534.898 1035.96 534.898" fill="#EBE5D8"/>
<path d="M914.435 420.263C914.435 420.263 887.375 413.436 878.519 449.813C869.664 486.189 872.616 512.265 883.932 523.088C895.247 533.911 914.435 561.463 914.435 561.463C914.435 561.463 925.258 567.366 926.734 573.762C926.734 573.762 911.975 576.715 904.103 573.762C904.103 573.762 847.525 497.996 846.54 495.045C845.556 492.092 851.952 449.781 839.652 441.911C827.353 434.039 803.084 421.213 799.329 399.758C795.577 378.303 914.435 420.263 914.435 420.263Z" fill="#EBE5D8"/>
<path d="M764.87 470.938C764.87 470.938 771.266 465.525 779.138 446.83C787.01 428.136 773.235 383.365 775.695 370.08C778.155 356.796 802.754 338.101 802.754 338.101V348.421C802.754 348.421 782.282 363.06 781.544 373.392C780.806 383.725 801.892 443.019 764.87 470.938Z" fill="#EBE5D8"/>
<path d="M1169.9 373.172C1169.9 373.172 1137.81 350.011 1115.94 320.569" stroke="#BF9779" stroke-width="2" stroke-miterlimit="10" stroke-linecap="round"/>
<path d="M1195.08 397.779C1195.08 397.779 1192.01 397.638 1191.4 395.902C1190.88 394.43 1191.97 382.632 1193.96 385.381C1198.18 391.223 1198.45 389.688 1198.45 389.688C1199.42 395.484 1195.08 397.779 1195.08 397.779Z" fill="#191919"/>
<path d="M1036.94 440.434C1036.94 440.434 1036.45 491.601 1036.94 499.964C1037.43 508.327 1035.96 546.211 1041.37 552.607C1046.78 559.003 1051.21 559.987 1055.14 571.302C1055.14 571.302 1044.37 571.795 1036.72 571.302C1036.72 571.302 1028.08 563.923 1027.59 557.034C1027.1 550.146 1027.59 528.991 1024.15 519.152C1020.7 509.313 1018.24 503.408 1017.26 500.457C1016.27 497.504 1008.95 436.007 1008.95 436.007L1036.94 440.434Z" fill="#EBE5D8"/>
<path d="M843.588 411.408C843.588 411.408 830.247 491.601 830.739 499.966C831.232 508.329 829.756 546.213 835.166 552.609C840.578 559.005 845.006 559.988 848.942 571.304C848.942 571.304 838.173 571.796 830.519 571.304C830.519 571.304 821.882 563.924 821.389 557.036C820.897 550.148 821.389 528.993 817.946 519.153C814.503 509.314 812.043 503.409 811.058 500.459C810.074 497.506 796.102 382.459 796.102 382.459L843.588 411.408Z" fill="#EBE5D8"/>
<path d="M1131.66 350.402C1131.66 350.402 1129.47 364.424 1131.66 368.113C1133.86 371.803 1161.99 393.65 1161.99 393.65" stroke="#655F51" stroke-width="0.5" stroke-miterlimit="10"/>
<path d="M774.949 458.013C774.949 458.013 780.063 469.622 770.119 485.568C760.177 501.514 759.238 510.707 759.238 510.707L760.364 490.258C760.364 490.258 757.925 498.512 756.799 502.077C756.799 502.077 751.171 486.694 759.988 472.623C768.808 458.553 774.949 458.013 774.949 458.013Z" fill="#655F51"/>
<path d="M1143.64 331.759C1143.64 331.759 1114.23 359.319 1118.08 360.198C1121.94 361.076 1136.06 352.662 1137.81 350.011C1139.56 347.359 1143.64 331.759 1143.64 331.759Z" fill="#D49985"/>
<path d="M1117.87 358.832C1118.57 353.351 1142.65 316.156 1142.65 316.156L1142.92 332.436L1117.87 358.832Z" fill="#EBE5D8"/>
<path d="M1142.65 316.156C1142.65 316.156 1118.57 353.351 1117.87 358.832" stroke="#655F51" stroke-width="0.5" stroke-miterlimit="10" stroke-linecap="round" stroke-linejoin="round"/>
<path d="M881.339 440.967C881.339 440.967 861.377 435.949 836.28 428.626" stroke="#655F51" stroke-width="0.5" stroke-miterlimit="10" stroke-linecap="round" stroke-linejoin="round"/>
<path d="M1067.93 463.558C1067.93 463.558 1068.92 451.608 1066.46 440.434C1063.99 429.261 1071.95 412.719 1071.95 400.484" stroke="#655F51" stroke-width="0.5" stroke-miterlimit="10" stroke-linecap="round" stroke-linejoin="round"/>
<path d="M1014.39 464.151C1026.45 468.933 1038.03 472.854 1042.63 472.402C1042.63 472.402 1026.25 456.476 1022.98 454.359C1019.72 452.243 1011.4 448.874 1008.95 436.006" stroke="#655F51" stroke-width="0.5" stroke-miterlimit="10" stroke-linecap="round" stroke-linejoin="round"/>
<path d="M1044.29 555.714C1038.66 561.574 1028.13 559.632 1028.13 559.632C1030.11 565.657 1036.72 571.302 1036.72 571.302C1044.37 571.795 1055.14 571.302 1055.14 571.302C1051.94 562.092 1048.41 559.726 1044.29 555.714Z" fill="#655F51"/>
<path d="M914.435 561.463C904.059 564.35 895.873 562.719 895.873 562.719C900.839 569.392 904.103 573.762 904.103 573.762C911.975 576.715 926.734 573.762 926.734 573.762C925.258 567.368 914.435 561.463 914.435 561.463Z" fill="#655F51"/>
<path d="M837.199 554.831C827.886 558.422 821.31 554.847 821.282 554.832C821.313 555.657 821.347 556.421 821.392 557.036C821.885 563.924 830.522 571.304 830.522 571.304C838.176 571.796 848.945 571.304 848.945 571.304C845.51 561.437 841.704 559.424 837.199 554.831Z" fill="#655F51"/>
<path d="M1037.15 520.471C1032.47 521.894 1029.56 521.612 1029.56 521.612C1015.29 544.243 1014.63 546.791 1014.63 546.791C1026.46 547.213 1034.89 538.275 1035.74 535.613L1035.95 534.896C1035.95 534.896 1033.58 525.521 1037.15 520.471Z" fill="#655F51"/>
<path d="M1190.89 376.006C1190.89 376.006 1179.23 369.234 1169.9 373.172C1166.73 374.509 1160.61 384.255 1161.99 393.65" stroke="#BF9779" stroke-width="2" stroke-miterlimit="10" stroke-linecap="round"/>
<path d="M1170.09 341.395C1170.6 343.19 1171.93 344.377 1173.07 344.046C1174.2 343.715 1174.72 341.994 1174.21 340.2C1173.71 338.406 1172.38 337.219 1171.24 337.549C1170.1 337.879 1169.59 339.601 1170.09 341.395Z" fill="#191919"/>
<path d="M689.113 412.55C640.401 412.55 600.912 452.039 600.912 500.75C600.912 549.462 640.401 588.951 689.113 588.951C737.824 588.951 777.313 549.462 777.313 500.75C777.313 452.039 737.824 412.55 689.113 412.55ZM689.113 558.939C656.976 558.939 630.923 532.887 630.923 500.749C630.923 468.611 656.975 442.56 689.113 442.56C721.249 442.56 747.301 468.612 747.301 500.749C747.301 532.885 721.251 558.939 689.113 558.939Z" fill="#855C54"/>
<path d="M692.784 418.875H685.442V582.625H692.784V418.875Z" fill="#855C54"/>
<path d="M770.987 504.42V497.078L607.239 497.078V504.42L770.987 504.42Z" fill="#855C54"/>
<path d="M749.603 445.446L744.411 440.255L628.624 556.042L633.816 561.234L749.603 445.446Z" fill="#855C54"/>
<path d="M744.416 561.24L749.608 556.048L633.821 440.261L628.629 445.452L744.416 561.24Z" fill="#855C54"/>
<path d="M766.089 472.7L763.27 465.921L612.063 528.784L614.882 535.564L766.089 472.7Z" fill="#855C54"/>
<path d="M717.161 577.792L723.94 574.972L661.06 423.782L654.281 426.601L717.161 577.792Z" fill="#855C54"/>
<path d="M763.309 535.542L766.129 528.763L614.939 465.883L612.119 472.662L763.309 535.542Z" fill="#855C54"/>
<path d="M723.936 426.596L717.156 423.776L654.276 574.983L661.056 577.802L723.936 426.596Z" fill="#855C54"/>
<path d="M709.621 505.666C712.338 494.346 705.364 482.966 694.044 480.249C682.724 477.532 671.345 484.506 668.627 495.826C665.91 507.146 672.884 518.526 684.204 521.243C695.524 523.96 706.904 516.986 709.621 505.666Z" fill="#422F2A"/>
<path d="M689.113 511.136C683.377 511.136 678.727 506.486 678.727 500.75C678.727 495.014 683.377 490.364 689.113 490.364C694.848 490.364 699.499 495.014 699.499 500.75C699.499 506.486 694.848 511.136 689.113 511.136Z" fill="#855C54"/>
<path d="M689.113 428.033C648.953 428.033 616.396 460.589 616.396 500.749C616.396 540.908 648.952 573.464 689.113 573.464C729.273 573.464 761.828 540.908 761.828 500.749C761.828 460.589 729.273 428.033 689.113 428.033ZM689.113 558.938C656.976 558.938 630.923 532.886 630.923 500.749C630.923 468.611 656.975 442.56 689.113 442.56C721.251 442.56 747.301 468.612 747.301 500.749C747.301 532.885 721.251 558.938 689.113 558.938Z" fill="#422F2A"/>
<path d="M124.096 840.915C124.096 840.915 75.3895 564.611 110.188 580.729C144.986 596.844 144.986 824.856 144.986 824.856C144.986 824.856 193.365 587.646 225.958 610.863C258.555 634.08 161.807 847.555 161.807 847.555C161.807 847.555 309.394 712.375 320.033 743.973C330.675 775.571 174.387 866.203 174.387 866.203H116.408C116.408 866.203 55.9591 689.304 54.8225 665.9C53.6884 642.494 92.3725 705.097 124.096 840.915Z" fill="#4A6B3E"/>
<path d="M1340.37 840.915C1340.37 840.915 1291.09 638.135 1325.89 654.25C1360.69 670.365 1361.26 824.853 1361.26 824.853C1361.26 824.853 1407.03 591.822 1442.23 610.86C1463.76 622.508 1378.08 847.553 1378.08 847.553C1378.08 847.553 1464.77 743.233 1462.82 776.518C1461.9 792.193 1390.66 866.197 1390.66 866.197H1332.68C1332.68 866.197 1279.94 779.943 1278.81 756.54C1277.68 733.139 1284.62 728.034 1340.37 840.915Z" fill="#4A6B3E"/>
<path d="M825.806 566.729C825.806 566.729 816.221 573.24 817.413 575.409C818.605 577.578 827.163 595.219 831.929 597.964C836.696 600.708 852.927 599.97 854.568 598.507C856.21 597.044 853.37 595.186 847.19 593.824C840.057 592.252 841.409 584.094 841.409 584.094L825.806 566.729Z" fill="#C98C5F"/>
<path d="M1031.46 369.207C1031.46 369.207 1025.97 379.595 1028.85 382.912C1028.85 382.912 992.065 390.245 974.924 380.015C974.924 380.015 973.473 364.325 989.475 360.075L1031.46 369.207Z" fill="#C98C5F"/>
<path d="M961.643 311.233C961.643 311.233 990.027 357.099 994.45 361.523C994.45 361.523 984.692 382.044 974.923 380.017L947.45 342.907C947.45 342.907 945.054 319.712 961.643 311.233Z" fill="#C98C5F"/>
<path d="M1040.75 244.403C1039.69 251.422 1036.54 285.332 1036.61 293.26C1036.67 301.187 1038.25 512.41 1037.61 519.6C1036.97 526.788 1035.27 601.988 1035.27 601.988C1035.27 601.988 1033.04 603.647 1031.83 601.988C1031.83 601.988 1033.88 525.129 1034.37 517.941C1034.86 510.753 1033.19 475.365 1033.65 466.517C1034.1 457.67 1035.54 446.32 1035.27 435.13C1035.01 423.94 1032.89 332.928 1033.5 314.57C1034.1 296.211 1038.27 226.755 1038.68 218.353C1039.08 209.951 1041.8 237.384 1040.75 244.403Z" fill="#E3AA24"/>
<path d="M1037.61 361.599C1039.98 360.959 1042.27 362.853 1042.1 365.307C1041.58 372.504 1040.29 385.143 1037.51 386.07C1033.61 387.371 1027.75 386.719 1027.1 383.794C1026.45 380.867 1028.08 366.363 1028.4 364.997C1028.6 364.175 1033.63 362.668 1037.61 361.599Z" fill="#C98C5F"/>
<path d="M1037.84 367.963L1028.85 369.207" stroke="#191919" stroke-width="0.5" stroke-miterlimit="10" stroke-linecap="round"/>
<path d="M1036.73 374.091L1027.29 374.912" stroke="#191919" stroke-width="0.5" stroke-miterlimit="10" stroke-linecap="round"/>
<path d="M1035.63 380.157H1027.29" stroke="#191919" stroke-width="0.5" stroke-miterlimit="10" stroke-linecap="round"/>
<path d="M1029.3 365.783C1029.3 365.783 1033.67 370.948 1031.88 373.318C1030.1 375.688 1029.24 376.633 1026.9 373.826C1024.56 371.019 1020.93 366.96 1021.69 365.657C1022.45 364.355 1025.08 360.012 1029.3 365.783Z" fill="#C98C5F"/>
<path d="M880.126 458.667C880.126 458.667 874.646 502.502 868.559 507.982C862.471 513.461 822.289 568.254 822.289 568.254C822.289 568.254 836.901 590.781 844.206 589.563L909.35 514.069L933.094 458.667C933.094 458.667 961.1 514.727 961.709 524.139C962.318 533.552 972.668 593.826 972.668 593.826L1008.59 587.129C1008.59 587.129 997.021 492.762 995.194 490.327C993.368 487.891 968.406 436.752 968.406 436.752L880.126 458.667Z" fill="#422F2A"/>
<path d="M940.704 290.176C940.704 290.176 926.091 296.568 921.068 308.898C916.046 321.227 868.557 462.32 868.557 462.32C868.557 462.32 903.26 478.149 913.61 476.932L923.96 448.317L929.439 476.998C929.439 476.998 967.795 476.931 983.624 470.843C983.624 470.843 987.277 369.779 971.448 310.724C971.448 310.724 961.099 282.413 940.704 290.176Z" fill="#4A6B3E"/>
<path d="M959.376 240.699C970.711 238.742 981.982 244.508 987.577 254.56C988.695 256.571 989.469 257.961 989.065 259.668C987.925 264.474 993.935 289.59 989.042 290.884C984.15 292.177 959.911 292.932 950.923 279.233C943.682 268.196 938.26 244.343 959.376 240.699Z" fill="#C98C5F"/>
<path d="M972.508 285.506L966.188 305.701C966.188 305.701 950.485 299.229 945.649 289.948L953.886 272.195L972.508 285.506Z" fill="#C98C5F"/>
<path d="M970.005 244.238C970.005 244.238 969.129 251.928 964.79 253.688L965.339 269.793C965.339 269.793 952.909 267.925 950.925 279.231C950.925 279.231 939.912 268.109 941.783 252.935C941.783 252.935 953.428 242.109 970.005 244.238Z" fill="#542E1C"/>
<path d="M952.53 268.004C952.161 272.006 954.913 275.531 958.676 275.876C962.438 276.222 965.787 273.258 966.155 269.256C966.524 265.254 963.772 261.73 960.01 261.384C956.247 261.04 952.898 264.002 952.53 268.004Z" fill="#C98C5F"/>
<path d="M957.668 265.353C957.668 265.353 960.611 266.372 961.061 269.412C961.061 269.412 956.833 269.148 958.205 271.398" stroke="#191919" stroke-width="0.5" stroke-miterlimit="10" stroke-linecap="round"/>
<path d="M988.944 262.463C988.944 262.463 989.309 265.034 991.36 267.784C993.411 270.535 993.462 273.375 988.476 274.938L988.944 262.463Z" fill="#C98C5F"/>
<path d="M984.802 256.584C985.349 256.481 985.576 255.78 985.22 255.305C984.754 254.686 983.969 254.058 982.741 254.223C980.438 254.53 980.001 256.07 980.459 256.767C980.784 257.262 983.353 256.856 984.802 256.584Z" fill="#542E1C"/>
<path d="M982.795 265.586C983.073 266.575 983.807 267.229 984.434 267.048C985.061 266.866 985.344 265.917 985.066 264.928C984.787 263.94 984.054 263.285 983.426 263.466C982.799 263.649 982.516 264.598 982.795 265.586Z" fill="#191919"/>
<path d="M988.126 276.888C988.126 276.888 984.088 279.182 980.687 275.523Z" fill="#191919"/>
<path d="M945.649 271.771C945.649 271.771 962.155 253.645 985.942 251.977L984.406 242.606C984.406 235.898 974.243 237.257 974.243 237.257C974.243 237.257 947.372 231.155 940.71 252.229C940.71 252.229 931.603 262.234 945.649 271.771Z" fill="#EBE5D8"/>
<path d="M940.71 252.229C940.71 252.229 954.799 240.343 984.406 242.606C984.406 242.606 952.66 244.39 944.486 269.409" stroke="#655F51" stroke-width="0.5" stroke-miterlimit="10" stroke-linecap="round" stroke-linejoin="round"/>
<path d="M974.243 237.257C974.243 237.257 968.777 240.359 967.736 242.819" stroke="#655F51" stroke-width="0.5" stroke-miterlimit="10" stroke-linecap="round" stroke-linejoin="round"/>
<path d="M947.33 345.695C947.33 345.695 925.939 331.274 917.999 334.538L909.714 382.807C909.714 382.807 920.825 407.892 930.501 394.819L947.33 345.695Z" fill="#C98C5F"/>
<path d="M946.987 434.09C946.987 434.09 938.642 437.075 936.934 438.765C936.934 438.765 908.66 399.05 909.714 382.809C909.714 382.809 919.266 364.527 932.422 382.615L946.987 434.09Z" fill="#C98C5F"/>
<path d="M977.398 592.942C977.398 592.942 976.555 596.962 978.73 598.142C980.905 599.322 1003.09 596.874 1008.59 596.603C1014.08 596.33 1030.01 596.103 1030.6 593.984C1031.19 591.866 1032.72 592.098 1018.98 590.694C1011.71 589.951 1008.59 587.127 1008.59 587.127L977.398 592.942Z" fill="#C98C5F"/>
<path d="M957.601 450.108C957.601 450.108 958.885 461.627 959.583 463.548C960.281 465.469 956.476 464.585 955.43 462.663C954.383 460.741 953.72 452.557 953.554 452.56C953.386 452.566 957.601 450.108 957.601 450.108Z" fill="#C98C5F"/>
<path d="M955.138 446.787C955.138 446.787 962.192 455.984 963.782 457.267C965.372 458.552 961.659 459.761 959.77 458.657C957.881 457.552 953.082 450.889 952.941 450.979C952.801 451.07 955.138 446.787 955.138 446.787Z" fill="#C98C5F"/>
<path d="M945.837 429.823C945.837 429.823 954.981 444.082 957.584 449.343C959.249 452.707 955.928 459.794 955.067 463.582C954.205 467.37 949.919 464.118 950.435 460.157C950.952 456.194 950.859 453.41 950.859 453.41L947.213 448.473C945.174 447.929 947.158 448.766 941.383 446.477C938.982 445.525 933.502 439.915 934.408 435.476L945.837 429.823Z" fill="#C98C5F"/>
<path d="M953.194 445.133C953.194 445.133 956.077 449.811 956.94 452.053C957.804 454.292 956.785 458.968 956.785 458.968" stroke="#191919" stroke-width="0.5" stroke-miterlimit="10" stroke-linecap="round"/>
<path d="M817.31 573.928C817.31 573.928 833.189 596.616 835.527 597.025C837.866 597.432 836.668 592.959 844.098 593.258C851.53 593.558 856.64 596.516 856.117 598.757C855.595 601 835.009 599.543 833.582 599.813C832.154 600.082 815.738 576.018 815.84 575.406C815.943 574.795 817.31 573.928 817.31 573.928Z" fill="#422F2A"/>
<path d="M977.237 595.393C977.237 595.393 1014.48 592.778 1015.7 592.794C1016.93 592.811 1016.37 589.938 1019.53 590.141C1022.69 590.345 1032.09 591.626 1031.83 592.794C1031.58 593.962 1029.52 595.802 1029.16 595.802C1028.81 595.802 980.259 600.109 977.922 598.462C976.652 597.566 977.237 595.393 977.237 595.393Z" fill="#422F2A"/>
<path d="M1597.04 119.071C1626.33 119.071 1650.07 95.3262 1650.07 66.0355C1650.07 36.7448 1626.33 13 1597.04 13C1567.74 13 1544 36.7448 1544 66.0355C1544 95.3262 1567.74 119.071 1597.04 119.071Z" fill="#FFFCDB"/>
<path d="M578.326 70.2998C568.593 78.5558 560.13 89.6099 558.691 102.599C558.581 103.872 556.712 104.135 556.239 102.971C552.665 94.822 544.102 86.7734 534.596 90.127C533.199 90.3497 531.468 91.3328 530.15 91.8396L525.977 94.3177C530.861 89.8505 537.42 86.3228 544.227 88.2608C550.988 90.1168 555.652 95.8844 558.594 101.975L556.144 102.346C557.667 88.8316 566.993 77.2374 578.326 70.2998Z" fill="#1C1716"/>
<path d="M430 62.6634C436.694 60.3798 449.922 56.0995 452.451 65.9018L450.022 65.5306C451.064 63.6541 452.226 62.0131 453.514 60.4003C457.277 55.7027 462.461 51.5146 468.641 51C466.677 51.4096 464.821 52.1315 463.139 53.1504C458.219 56.2966 454.671 61.3654 452.344 66.6134C451.865 67.8166 449.991 67.5222 449.914 66.2422C448.716 58.4368 435.445 61.4346 430 62.6634Z" fill="#1C1716"/>
<path d="M620.525 103.429C614.333 106.795 603.698 111.114 604.344 119.352C604.554 120.483 603.087 121.267 602.26 120.496C598.43 117.319 593.448 114.931 588.349 115.161C586.598 115.133 584.931 115.712 583.203 116.244C589.524 111.618 598.307 113.863 603.944 118.625L601.866 119.797C600.711 109.793 612.561 105.144 620.525 103.429Z" fill="#1C1716"/>
<path d="M1412.79 178.429C1407.16 179.417 1398.48 179.348 1396.39 185.625C1396.17 186.749 1394.53 186.931 1394.04 185.917C1392.16 182.502 1389.23 179.284 1385.46 177.917C1384.19 177.387 1382.8 177.257 1381.35 177.108C1382.73 176.755 1384.25 176.525 1385.73 176.788C1390.33 177.456 1394.05 180.815 1396.29 184.786L1393.93 185.121C1394.27 183.063 1395.67 181.299 1397.26 180.234C1401.88 177.305 1407.7 177.398 1412.79 178.429Z" fill="#1C1716"/>
</g>
<defs>
<clipPath id="clip0_6_2075">
<rect width="1920" height="623" fill="white"/>
</clipPath>
</defs>
</svg>
