<svg width="374" height="217" viewBox="0 0 374 217" fill="none" xmlns="http://www.w3.org/2000/svg">
<g clip-path="url(#clip0_1_2)">
<mask id="mask0_1_2" style="mask-type:luminance" maskUnits="userSpaceOnUse" x="-17" y="-54" width="347" height="272">
<path d="M-17 -54H329.502V217.111H-17V-54Z" fill="white"/>
</mask>
<g mask="url(#mask0_1_2)">
<path d="M98.693 162.851C72.074 165.687 45.348 150.564 30.788 129.975C9.241 99.5048 11.452 52.9828 39.103 25.8668C65.414 0.0648193 130.294 -9.32819 125.024 10.7988C119.718 31.0578 102.446 53.5138 119.48 94.3588C129.797 119.098 140.79 129.425 134.724 143.673C127.884 159.742 102.272 162.47 98.693 162.851Z" fill="#2EA94A"/>
<path d="M97.5958 45.6058C95.9508 45.6058 94.3778 46.0778 93.0838 46.9998C91.0288 48.4638 89.9008 50.8958 89.9898 53.6698C90.2718 62.4778 97.3548 69.2358 98.8718 70.5848C100.002 69.3178 104.084 62.9908 104.512 62.1598C106.6 58.0958 107.134 54.0288 105.973 51.0008C105.13 48.7978 103.415 47.1908 100.878 46.2238C99.7928 45.8098 98.6788 45.6058 97.5958 45.6058ZM98.8858 71.7118C98.7598 71.7118 98.6218 71.6688 98.5308 71.5948C98.3428 71.4408 89.3328 63.9948 89.0018 53.7008C88.9028 50.5908 90.1808 47.8548 92.5108 46.1948C94.9248 44.4738 98.1828 44.1388 101.23 45.3008C104.041 46.3738 105.948 48.1708 106.896 50.6468C108.157 53.9368 107.607 58.2978 105.389 62.6118C105.345 62.6988 99.9828 71.4948 98.9828 71.7038C98.9508 71.7098 98.9188 71.7118 98.8858 71.7118Z" fill="white"/>
<path d="M99.6813 70.8529C99.4523 70.8529 99.2463 70.6929 99.1983 70.4599C99.1023 70.0009 96.8693 59.1269 98.6483 51.1959C98.7083 50.9289 98.9723 50.7609 99.2383 50.8219C99.5043 50.8809 99.6723 51.1459 99.6123 51.4119C97.8803 59.1319 100.141 70.1479 100.165 70.2589C100.221 70.5259 100.05 70.7879 99.7823 70.8429C99.7483 70.8499 99.7153 70.8529 99.6813 70.8529Z" fill="white"/>
<path d="M98.6944 63.7865C98.5614 63.7865 98.4324 63.7315 98.3384 63.6345C98.0874 63.3715 92.2104 57.1765 93.0694 52.7245C93.1214 52.4575 93.3794 52.2805 93.6484 52.3345C93.9154 52.3865 94.0904 52.6445 94.0394 52.9135C93.4194 56.1235 97.0794 60.7055 98.5024 62.3415C99.2924 60.1325 101.483 54.4135 103.381 53.2705C103.617 53.1345 103.92 53.2075 104.06 53.4395C104.2 53.6745 104.125 53.9775 103.891 54.1185C102.264 55.0955 99.9264 61.1855 99.1624 63.4505C99.1074 63.6135 98.9704 63.7365 98.8014 63.7745C98.7664 63.7815 98.7304 63.7865 98.6944 63.7865Z" fill="white"/>
<path d="M108.32 73.7679C108.243 73.7679 108.165 73.7699 108.087 73.7749C106.672 73.8529 105.404 74.6709 104.611 76.0209C102.138 80.2189 103.27 85.4069 103.667 86.8739C104.854 86.4629 108.464 84.7889 108.886 84.5399C111.122 83.2249 112.672 81.3709 113.031 79.5819C113.294 78.2799 112.959 76.9949 112.037 75.7619C111.082 74.4859 109.738 73.7679 108.32 73.7679ZM103.286 87.9319C103.235 87.9319 103.193 87.9259 103.161 87.9139C103.029 87.8649 102.909 87.7469 102.857 87.6149C102.857 87.6149 102.857 87.6139 102.856 87.6119C102.853 87.6059 102.851 87.5989 102.848 87.5919L102.849 87.5909C102.706 87.1499 100.728 80.6659 103.759 75.5189C104.724 73.8799 106.281 72.8849 108.032 72.7889C109.849 72.6959 111.637 73.5789 112.828 75.1699C113.925 76.6369 114.32 78.1869 114.001 79.7769C113.58 81.8679 111.899 83.9139 109.387 85.3919C109.339 85.4199 104.352 87.9309 103.286 87.9319Z" fill="white"/>
<path d="M104.003 87.7689C103.945 87.7689 103.887 87.7589 103.83 87.7379C103.575 87.6419 103.445 87.3579 103.54 87.1019C103.638 86.8409 105.966 80.6869 109.38 77.2689C109.574 77.0759 109.886 77.0759 110.079 77.2689C110.272 77.4609 110.272 77.7749 110.079 77.9669C106.815 81.2359 104.489 87.3869 104.466 87.4489C104.392 87.6469 104.203 87.7689 104.003 87.7689Z" fill="white"/>
<path d="M105.737 83.9417C105.681 83.9417 105.624 83.9317 105.57 83.9127C105.407 83.8547 105.287 83.7147 105.253 83.5457C105.21 83.3327 104.217 78.2967 106.117 76.2777C106.304 76.0787 106.619 76.0707 106.815 76.2567C107.014 76.4437 107.024 76.7557 106.836 76.9547C105.758 78.1007 105.869 80.8927 106.089 82.5417C107.383 81.5457 110.002 79.7247 111.231 79.7337C111.504 79.7407 111.719 79.9667 111.713 80.2387C111.706 80.5077 111.487 80.7207 111.219 80.7207H111.192C110.239 80.7207 107.537 82.6247 106.048 83.8317C105.959 83.9037 105.848 83.9417 105.737 83.9417Z" fill="white"/>
<path d="M97.3624 92.973C97.1974 92.973 97.0274 92.984 96.8524 93.003C95.6954 93.136 94.7614 93.741 94.2884 94.664C93.8444 95.532 93.8924 96.569 94.4204 97.512C96.0294 100.388 99.4044 101.588 100.602 101.935C100.773 100.933 101.016 98.336 101.015 98.016C101.009 96.185 100.436 94.585 99.4834 93.739C98.9114 93.23 98.1994 92.973 97.3624 92.973ZM100.928 103.025C100.895 103.025 100.862 103.022 100.831 103.015H100.829C100.623 102.971 95.7414 101.895 93.5574 97.994C92.8654 96.758 92.8124 95.38 93.4094 94.214C94.0264 93.009 95.2714 92.19 96.7394 92.022C98.0934 91.868 99.2364 92.197 100.139 92.999C101.316 94.047 101.995 95.873 102.003 98.012C102.003 98.055 101.747 102.512 101.26 102.91C101.17 102.983 101.047 103.025 100.928 103.025Z" fill="white"/>
<path d="M101.082 102.539C100.939 102.539 100.797 102.477 100.7 102.357C100.572 102.201 97.5696 98.4964 96.6756 95.1014C96.6056 94.8374 96.7636 94.5664 97.0276 94.4974C97.2916 94.4284 97.5616 94.5864 97.6316 94.8504C98.4706 98.0394 101.435 101.697 101.464 101.733C101.637 101.944 101.605 102.256 101.394 102.428C101.302 102.503 101.192 102.539 101.082 102.539Z" fill="white"/>
<path d="M99.3297 100.071C99.2767 100.071 99.2227 100.062 99.1697 100.045C98.7907 99.9156 95.4507 98.7246 94.8747 96.7746C94.7987 96.5136 94.9477 96.2386 95.2087 96.1616C95.4737 96.0846 95.7447 96.2336 95.8227 96.4956C96.1097 97.4666 97.6447 98.3316 98.7277 98.8076C98.5827 97.5766 98.4267 95.5036 98.8977 94.7376C99.0397 94.5046 99.3447 94.4306 99.5777 94.5756C99.8097 94.7186 99.8817 95.0226 99.7387 95.2556C99.4547 95.7166 99.5587 97.8186 99.8187 99.5026C99.8437 99.6726 99.7787 99.8446 99.6467 99.9556C99.5567 100.032 99.4437 100.071 99.3297 100.071Z" fill="white"/>
<path d="M78.5777 58.0159C77.7397 58.0159 76.8637 58.1949 75.9557 58.5529C73.9487 59.3459 72.5067 60.9519 72.0997 62.8469C71.7107 64.6619 72.3067 66.5419 73.7337 68.0069C78.2447 72.6349 85.2957 72.8589 87.0257 72.8549C86.9617 71.4059 86.0647 66.1109 85.8907 65.4709C84.9977 62.1899 83.2547 59.6919 81.1067 58.6149C80.3087 58.2149 79.4637 58.0159 78.5777 58.0159ZM86.8927 73.8419C84.7987 73.8419 77.6817 73.4709 73.0257 68.6959C71.3647 66.9909 70.6747 64.7839 71.1347 62.6399C71.6097 60.4199 73.2777 58.5479 75.5937 57.6339C77.7307 56.7899 79.7347 56.8229 81.5497 57.7319C83.9487 58.9339 85.8777 61.6609 86.8437 65.2109C86.8627 65.2839 88.3767 72.9199 87.8807 73.6099C87.7937 73.7309 87.6317 73.8219 87.4827 73.8299H87.4797C87.4297 73.8319 87.2237 73.8419 86.8927 73.8419Z" fill="white"/>
<path d="M87.4874 72.932C87.3874 72.932 87.2864 72.901 87.1994 72.838C86.9124 72.631 80.1374 67.715 77.0904 62.389C76.9544 62.153 77.0354 61.85 77.2734 61.715C77.5084 61.579 77.8104 61.661 77.9464 61.899C80.8874 67.037 87.7084 71.988 87.7764 72.036C87.9984 72.197 88.0484 72.505 87.8884 72.726C87.7924 72.861 87.6404 72.932 87.4874 72.932Z" fill="white"/>
<path d="M83.3556 69.5111C83.3446 69.5111 83.3346 69.5111 83.3226 69.5101C83.0486 69.4911 76.5836 69.0291 74.7716 66.0711C74.6286 65.8381 74.7026 65.5331 74.9346 65.3911C75.1656 65.2471 75.4716 65.3211 75.6136 65.5541C76.8196 67.5221 80.8336 68.2251 82.5736 68.4411C81.8446 66.6791 80.2906 62.6161 80.7576 61.0441C80.8356 60.7821 81.1136 60.6361 81.3726 60.7111C81.6336 60.7891 81.7826 61.0641 81.7056 61.3251C81.3536 62.5081 82.8076 66.5491 83.8076 68.8181C83.8776 68.9761 83.8586 69.1591 83.7606 69.3001C83.6676 69.4331 83.5156 69.5111 83.3556 69.5111Z" fill="white"/>
<path d="M84.5582 78.6524C83.9092 78.6524 83.2942 78.7414 82.7302 78.9234C81.3142 79.3774 80.2422 80.4054 79.5422 81.9764C78.7892 83.6674 78.8702 85.5144 79.7582 86.9154C80.6072 88.2564 82.0982 89.0484 83.8482 89.0874C89.3612 89.2274 93.7702 85.2314 94.9272 84.0854C93.9392 83.1874 90.2822 80.5384 89.8022 80.2584C87.9992 79.2024 86.1712 78.6524 84.5582 78.6524ZM84.0982 90.0774C84.0082 90.0774 83.9172 90.0774 83.8272 90.0744C81.7402 90.0274 79.9532 89.0684 78.9232 87.4434C77.8582 85.7624 77.7522 83.5674 78.6402 81.5744C79.4592 79.7354 80.7332 78.5264 82.4272 77.9824C84.6602 77.2644 87.5292 77.7824 90.3002 79.4054C90.3562 79.4374 95.9532 83.2314 96.0742 84.0214C96.0962 84.1694 96.0452 84.3444 95.9452 84.4534C95.9452 84.4544 95.9432 84.4554 95.9432 84.4564C95.7292 84.6884 90.6942 90.0774 84.0982 90.0774Z" fill="white"/>
<path d="M89.0782 84.4574C86.9362 84.4574 84.5522 84.2804 82.4952 83.6994C82.2332 83.6264 82.0802 83.3534 82.1552 83.0904C82.2292 82.8284 82.4992 82.6774 82.7652 82.7494C87.6932 84.1414 94.9062 83.0674 94.9792 83.0574C95.2442 83.0254 95.5002 83.2014 95.5422 83.4714C95.5822 83.7404 95.3972 83.9924 95.1282 84.0334C94.9462 84.0614 92.2862 84.4574 89.0782 84.4574Z" fill="white"/>
<path d="M84.1393 87.4857C83.8503 87.4857 83.5683 87.4547 83.2973 87.3867C83.0333 87.3207 82.8723 87.0527 82.9393 86.7887C83.0053 86.5227 83.2723 86.3627 83.5383 86.4287C85.2693 86.8627 87.9933 85.1787 89.4593 84.0717C87.8873 83.3967 84.5703 81.8547 83.9113 80.6077C83.7833 80.3667 83.8763 80.0667 84.1163 79.9397C84.3593 79.8117 84.6583 79.9047 84.7843 80.1447C85.2763 81.0767 88.6133 82.6837 90.6023 83.4777C90.7633 83.5417 90.8773 83.6847 90.9063 83.8547C90.9343 84.0257 90.8713 84.1987 90.7403 84.3107C90.5753 84.4537 87.0043 87.4857 84.1393 87.4857Z" fill="white"/>
<path d="M79.4332 99.8104C77.5112 99.8104 75.8172 100.256 74.5522 101.127C73.1222 102.112 72.2682 103.621 72.0152 105.61C71.7412 107.754 72.4532 109.791 73.9182 111.061C75.3222 112.277 77.2592 112.661 79.2282 112.117C85.4582 110.396 89.0492 104.363 89.8862 102.807C88.5872 102.164 83.5122 100.396 82.8682 100.24C81.6752 99.9524 80.5172 99.8104 79.4332 99.8104ZM77.4852 113.349C75.9122 113.349 74.4402 112.821 73.2722 111.808C71.5562 110.32 70.7192 107.957 71.0352 105.485C71.3252 103.205 72.3202 101.466 73.9922 100.313C76.2022 98.7924 79.5232 98.4164 83.1002 99.2804C83.1722 99.2984 90.5982 101.657 90.9602 102.421C91.0242 102.556 91.0262 102.741 90.9612 102.875C90.9612 102.877 90.9602 102.879 90.9602 102.879C90.7992 103.21 86.9372 111.013 79.4922 113.069C78.8152 113.256 78.1412 113.349 77.4852 113.349Z" fill="white"/>
<path d="M75.9151 106.468C75.6461 106.468 75.4261 106.253 75.4211 105.983C75.4161 105.71 75.6341 105.486 75.9071 105.481C81.8321 105.38 89.4551 101.79 89.5321 101.754C89.7791 101.636 90.0731 101.742 90.1891 101.989C90.3071 102.235 90.2021 102.53 89.9561 102.647C89.6361 102.798 82.0611 106.365 75.9231 106.468H75.9151Z" fill="white"/>
<path d="M78.0079 110.275C77.7459 110.275 77.5279 110.069 77.5159 109.804C77.5029 109.532 77.7139 109.301 77.9859 109.288C80.2929 109.18 82.8439 106.001 83.8709 104.58C81.9769 104.37 77.6659 103.772 76.5139 102.604C76.3219 102.41 76.3239 102.097 76.5189 101.906C76.7139 101.713 77.0269 101.716 77.2169 101.911C78.0839 102.79 82.3259 103.463 84.7969 103.68C84.9689 103.695 85.1209 103.799 85.1969 103.955C85.2729 104.109 85.2629 104.294 85.1699 104.438C85.0209 104.671 81.4989 110.113 78.0319 110.275H78.0079Z" fill="white"/>
<path d="M103.785 107.173C102.105 107.173 100.625 107.563 99.521 108.323C98.275 109.181 97.532 110.496 97.31 112.232C97.069 114.127 97.673 115.857 98.967 116.981C100.187 118.038 101.874 118.375 103.59 117.898C108.941 116.42 112.124 111.208 112.91 109.778C111.694 109.195 107.348 107.684 106.798 107.551C105.751 107.298 104.735 107.173 103.785 107.173ZM102.07 119.098C100.672 119.098 99.361 118.628 98.32 117.727C96.794 116.403 96.05 114.303 96.331 112.107C96.589 110.081 97.474 108.533 98.96 107.51C100.921 106.16 103.862 105.823 107.03 106.591C107.093 106.607 113.654 108.678 113.992 109.389C114.056 109.524 114.058 109.706 113.993 109.84C113.921 109.991 110.494 117.016 103.853 118.851C103.253 119.016 102.653 119.098 102.07 119.098Z" fill="white"/>
<path d="M100.687 113.037C100.418 113.037 100.198 112.822 100.193 112.552C100.188 112.279 100.406 112.055 100.679 112.05C105.881 111.962 112.588 108.805 112.655 108.773C112.903 108.654 113.195 108.761 113.313 109.007C113.43 109.254 113.325 109.549 113.08 109.665C112.798 109.799 106.114 112.946 100.695 113.037H100.687Z" fill="white"/>
<path d="M102.531 116.391C102.269 116.391 102.051 116.185 102.038 115.92C102.026 115.648 102.237 115.416 102.509 115.404C104.334 115.319 106.492 112.87 107.593 111.364C105.873 111.168 102.18 110.639 101.173 109.617C100.981 109.423 100.983 109.111 101.177 108.919C101.372 108.726 101.684 108.73 101.876 108.924C102.628 109.687 106.348 110.274 108.516 110.465C108.688 110.48 108.84 110.583 108.916 110.74C108.992 110.894 108.982 111.078 108.888 111.223C108.757 111.428 105.638 116.246 102.554 116.39C102.547 116.391 102.539 116.391 102.531 116.391Z" fill="white"/>
<path d="M122.812 116.709C122.706 116.709 122.599 116.675 122.508 116.604C112.883 109.091 101.438 97.1482 98.3531 71.2722C98.3201 71.0002 98.5141 70.7542 98.7851 70.7222C99.0551 70.6922 99.3021 70.8832 99.3331 71.1532C102.376 96.6702 113.642 108.43 123.117 115.825C123.332 115.993 123.37 116.304 123.202 116.519C123.104 116.644 122.959 116.709 122.812 116.709Z" fill="white"/>
<path d="M115.743 110.779C115.556 110.779 115.378 110.673 115.294 110.492C115.201 110.288 106.061 89.9696 119.061 81.3986C119.288 81.2476 119.595 81.3096 119.745 81.5396C119.895 81.7666 119.832 82.0736 119.604 82.2226C107.313 90.3286 116.102 109.883 116.192 110.08C116.306 110.328 116.197 110.621 115.949 110.734C115.882 110.765 115.812 110.779 115.743 110.779Z" fill="white"/>
<path d="M103.353 91.8284C103.249 91.8284 103.144 91.7954 103.054 91.7264C102.966 91.6594 94.2161 84.9024 86.8021 72.5004C86.6621 72.2664 86.7381 71.9634 86.9721 71.8234C87.2081 71.6834 87.5111 71.7614 87.6491 71.9934C94.9601 84.2244 103.567 90.8764 103.654 90.9414C103.87 91.1074 103.912 91.4174 103.746 91.6344C103.649 91.7614 103.501 91.8284 103.353 91.8284Z" fill="white"/>
<path d="M119.523 114.333C119.404 114.333 119.285 114.291 119.19 114.204C119.015 114.045 101.499 98.2593 90.1116 102.995C89.8586 103.098 89.5706 102.979 89.4656 102.729C89.3616 102.477 89.4806 102.187 89.7326 102.083C101.701 97.1043 119.121 112.803 119.856 113.475C120.057 113.658 120.071 113.971 119.888 114.173C119.791 114.279 119.657 114.333 119.523 114.333Z" fill="white"/>
</g>
<path d="M134.482 75.7603V52.7275H142.265C144.064 52.7275 145.541 53.0349 146.696 53.6497C147.85 54.257 148.705 55.093 149.26 56.1576C149.815 57.2223 150.092 58.4332 150.092 59.7902C150.092 61.1473 149.815 62.3507 149.26 63.4004C148.705 64.45 147.854 65.2748 146.707 65.8746C145.56 66.4669 144.094 66.7631 142.31 66.7631H136.012V64.2439H142.22C143.449 64.2439 144.439 64.0639 145.189 63.704C145.946 63.3441 146.493 62.8343 146.831 62.1745C147.176 61.5072 147.348 60.7125 147.348 59.7902C147.348 58.868 147.176 58.062 146.831 57.3723C146.486 56.6825 145.935 56.1501 145.177 55.7753C144.42 55.3929 143.419 55.2017 142.175 55.2017H137.271V75.7603H134.482ZM145.324 65.4135L150.992 75.7603H147.753L142.175 65.4135H145.324ZM155.684 75.7603H152.76L161.218 52.7275H164.097L172.554 75.7603H169.63L162.747 56.3713H162.567L155.684 75.7603ZM156.764 66.7631H168.55V69.2373H156.764V66.7631ZM178.931 52.7275V75.7603H176.142V52.7275H178.931ZM183.264 55.2017V52.7275H200.538V55.2017H193.296V75.7603H190.506V55.2017H183.264ZM204.843 75.7603V52.7275H207.632V62.9842H219.913V52.7275H222.702V75.7603H219.913V65.4585H207.632V75.7603H204.843ZM229.231 75.7603H226.307L234.764 52.7275H237.643L246.101 75.7603H243.176L236.294 56.3713H236.114L229.231 75.7603ZM230.311 66.7631H242.097V69.2373H230.311V66.7631ZM250.633 75.7603H247.709L256.166 52.7275H259.045L267.503 75.7603H264.579L257.696 56.3713H257.516L250.633 75.7603ZM251.713 66.7631H263.499V69.2373H251.713V66.7631ZM289.355 52.7275V75.7603H286.655L274.104 57.6759H273.879V75.7603H271.09V52.7275H273.789L286.385 70.8568H286.61V52.7275H289.355ZM294.936 75.7603V52.7275H308.836V55.2017H297.725V62.9842H308.116V65.4585H297.725V73.286H309.016V75.7603H294.936Z" fill="#2BA649"/>
<path d="M147.11 89.7757C146.975 88.636 146.427 87.7513 145.468 87.1215C144.508 86.4917 143.331 86.1768 141.936 86.1768C140.917 86.1768 140.024 86.3418 139.26 86.6717C138.502 87.0016 137.91 87.4552 137.483 88.0325C137.063 88.6098 136.853 89.2659 136.853 90.0006C136.853 90.6154 136.999 91.144 137.292 91.5864C137.591 92.0212 137.974 92.3849 138.439 92.6773C138.904 92.9622 139.391 93.1984 139.901 93.3858C140.411 93.5658 140.879 93.712 141.307 93.8244L143.646 94.4542C144.246 94.6117 144.913 94.8291 145.648 95.1065C146.39 95.3839 147.099 95.7626 147.773 96.2424C148.456 96.7148 149.018 97.3221 149.46 98.0644C149.903 98.8066 150.124 99.7176 150.124 100.797C150.124 102.042 149.798 103.167 149.145 104.171C148.501 105.176 147.556 105.974 146.311 106.567C145.074 107.159 143.571 107.455 141.801 107.455C140.152 107.455 138.724 107.189 137.517 106.657C136.317 106.124 135.372 105.382 134.682 104.43C134 103.478 133.614 102.372 133.524 101.112H136.403C136.478 101.982 136.771 102.702 137.28 103.271C137.798 103.834 138.45 104.254 139.237 104.531C140.032 104.801 140.887 104.936 141.801 104.936C142.866 104.936 143.822 104.764 144.669 104.419C145.517 104.066 146.188 103.579 146.682 102.957C147.177 102.327 147.425 101.592 147.425 100.752C147.425 99.9875 147.211 99.3652 146.784 98.8853C146.356 98.4055 145.794 98.0156 145.097 97.7157C144.399 97.4158 143.646 97.1534 142.836 96.9285L140.002 96.1187C138.203 95.6014 136.778 94.8629 135.728 93.9032C134.679 92.9435 134.154 91.6876 134.154 90.1356C134.154 88.846 134.502 87.7213 135.2 86.7616C135.905 85.7944 136.849 85.0447 138.034 84.5123C139.226 83.9725 140.557 83.7026 142.026 83.7026C143.511 83.7026 144.83 83.9688 145.985 84.5011C147.14 85.0259 148.054 85.7457 148.729 86.6604C149.412 87.5751 149.771 88.6136 149.809 89.7757H147.11ZM154.35 113.528V89.7757H156.914V92.5198H157.229C157.424 92.2199 157.694 91.8375 158.039 91.3727C158.391 90.9003 158.893 90.4805 159.546 90.1131C160.205 89.7382 161.098 89.5508 162.222 89.5508C163.677 89.5508 164.959 89.9144 166.069 90.6417C167.178 91.3689 168.044 92.3999 168.666 93.7345C169.289 95.069 169.6 96.6435 169.6 98.458C169.6 100.287 169.289 101.873 168.666 103.215C168.044 104.55 167.182 105.585 166.08 106.319C164.978 107.047 163.707 107.41 162.267 107.41C161.158 107.41 160.269 107.226 159.602 106.859C158.935 106.484 158.421 106.061 158.061 105.588C157.701 105.108 157.424 104.711 157.229 104.396H157.004V113.528H154.35ZM156.959 98.413C156.959 99.7176 157.15 100.868 157.532 101.866C157.915 102.855 158.473 103.631 159.208 104.194C159.943 104.749 160.843 105.026 161.907 105.026C163.017 105.026 163.943 104.734 164.685 104.149C165.435 103.556 165.997 102.762 166.372 101.764C166.755 100.76 166.946 99.6426 166.946 98.413C166.946 97.1984 166.758 96.1037 166.383 95.129C166.016 94.1468 165.457 93.3708 164.708 92.801C163.965 92.2237 163.032 91.935 161.907 91.935C160.828 91.935 159.92 92.2087 159.186 92.756C158.451 93.2958 157.896 94.0531 157.521 95.0278C157.146 95.995 156.959 97.1234 156.959 98.413ZM180.666 107.41C179.107 107.41 177.739 107.039 176.562 106.297C175.392 105.555 174.477 104.516 173.817 103.182C173.165 101.847 172.839 100.287 172.839 98.503C172.839 96.7035 173.165 95.1328 173.817 93.7907C174.477 92.4486 175.392 91.4064 176.562 90.6642C177.739 89.9219 179.107 89.5508 180.666 89.5508C182.226 89.5508 183.591 89.9219 184.76 90.6642C185.937 91.4064 186.852 92.4486 187.504 93.7907C188.164 95.1328 188.494 96.7035 188.494 98.503C188.494 100.287 188.164 101.847 187.504 103.182C186.852 104.516 185.937 105.555 184.76 106.297C183.591 107.039 182.226 107.41 180.666 107.41ZM180.666 105.026C181.851 105.026 182.826 104.722 183.591 104.115C184.355 103.508 184.921 102.709 185.289 101.719C185.656 100.73 185.84 99.6576 185.84 98.503C185.84 97.3483 185.656 96.2724 185.289 95.2752C184.921 94.278 184.355 93.472 183.591 92.8572C182.826 92.2424 181.851 91.935 180.666 91.935C179.482 91.935 178.507 92.2424 177.742 92.8572C176.978 93.472 176.412 94.278 176.044 95.2752C175.677 96.2724 175.493 97.3483 175.493 98.503C175.493 99.6576 175.677 100.73 176.044 101.719C176.412 102.709 176.978 103.508 177.742 104.115C178.507 104.722 179.482 105.026 180.666 105.026ZM200.058 89.7757V92.025H191.106V89.7757H200.058ZM193.715 85.637H196.369V102.102C196.369 102.852 196.478 103.414 196.696 103.789C196.92 104.156 197.205 104.404 197.55 104.531C197.903 104.651 198.274 104.711 198.664 104.711C198.956 104.711 199.196 104.696 199.383 104.666C199.571 104.629 199.721 104.599 199.833 104.576L200.373 106.96C200.193 107.028 199.942 107.095 199.62 107.163C199.297 107.238 198.889 107.275 198.394 107.275C197.644 107.275 196.909 107.114 196.189 106.792C195.477 106.469 194.885 105.978 194.412 105.318C193.948 104.659 193.715 103.826 193.715 102.822V85.637Z" fill="#2BA649"/>
<mask id="mask1_1_2" style="mask-type:luminance" maskUnits="userSpaceOnUse" x="-17" y="-54" width="347" height="272">
<path d="M-17 -54H329.502V217.111H-17V-54Z" fill="white"/>
</mask>
<g mask="url(#mask1_1_2)">
<path d="M248.479 104.015H201.677V107.202H248.479V104.015Z" fill="#2EA849"/>
</g>
<path d="M2.82262 182.131L3.1351 180.373C3.22624 179.84 3.41503 179.273 3.70147 178.674C3.99442 178.069 4.36875 177.486 4.82445 176.926C5.28667 176.36 5.81724 175.868 6.41616 175.452L7.47078 176.467C6.98253 177.053 6.53008 177.665 6.11344 178.303C5.70331 178.935 5.43965 179.612 5.32247 180.334L5.00999 182.131H2.82262ZM7.82233 182.131L8.13481 180.373C8.22595 179.84 8.41474 179.273 8.70118 178.674C8.99413 178.069 9.36846 177.486 9.82416 176.926C10.2864 176.36 10.8169 175.868 11.4159 175.452L12.4705 176.467C11.9822 177.053 11.5298 177.665 11.1132 178.303C10.703 178.935 10.4394 179.612 10.3222 180.334L10.0097 182.131H7.82233ZM30.6384 186.037C30.2868 188.12 29.6131 189.92 28.617 191.437C27.621 192.947 26.4036 194.113 24.9649 194.933C23.5262 195.747 21.967 196.154 20.2874 196.154C18.5558 196.154 17.0812 195.731 15.8639 194.884C14.653 194.031 13.7871 192.827 13.2663 191.271C12.7521 189.709 12.6707 187.86 13.0222 185.725C13.3738 183.641 14.0476 181.845 15.0436 180.334C16.0396 178.817 17.2603 177.652 18.7055 176.838C20.1507 176.018 21.7196 175.608 23.4122 175.608C25.1309 175.608 26.5924 176.034 27.7968 176.887C29.0076 177.734 29.8702 178.938 30.3845 180.5C30.9053 182.056 30.9899 183.902 30.6384 186.037ZM28.3338 185.725C28.6203 184.019 28.578 182.583 28.2069 181.418C27.8358 180.253 27.2206 179.371 26.3613 178.772C25.502 178.173 24.4799 177.873 23.2951 177.873C22.0582 177.873 20.8863 178.189 19.7796 178.821C18.6729 179.446 17.7257 180.367 16.938 181.584C16.1503 182.795 15.6132 184.279 15.3268 186.037C15.0403 187.743 15.0826 189.178 15.4537 190.343C15.8248 191.509 16.44 192.391 17.2993 192.99C18.1586 193.589 19.1807 193.888 20.3655 193.888C21.6024 193.888 22.7743 193.576 23.881 192.951C24.9877 192.319 25.9349 191.398 26.7226 190.187C27.5103 188.97 28.0474 187.482 28.3338 185.725ZM36.5462 186.857L35.062 195.88H32.7574L35.2573 180.881H37.4837L37.0931 183.225H37.2884C37.7571 182.463 38.3918 181.851 39.1926 181.389C39.9933 180.92 40.96 180.686 42.0928 180.686C43.0953 180.686 43.9416 180.894 44.6317 181.311C45.3283 181.721 45.8198 182.346 46.1062 183.186C46.3992 184.019 46.4415 185.074 46.2332 186.35L44.6317 195.88H42.3272L43.8896 186.506C44.0849 185.334 43.9319 184.416 43.4306 183.752C42.9358 183.088 42.1514 182.756 41.0772 182.756C40.3351 182.756 39.6483 182.916 39.0168 183.234C38.3918 183.553 37.8613 184.019 37.4251 184.631C36.9954 185.243 36.7025 185.985 36.5462 186.857ZM55.0925 196.193C53.6538 196.193 52.4657 195.874 51.5283 195.236C50.5908 194.591 49.9366 193.693 49.5655 192.541C49.1944 191.382 49.1358 190.034 49.3897 188.498C49.6436 186.961 50.1482 185.607 50.9033 184.436C51.6585 183.257 52.5992 182.339 53.7254 181.682C54.8517 181.018 56.0886 180.686 57.4361 180.686C58.2173 180.686 58.9693 180.816 59.6919 181.076C60.4145 181.337 61.0394 181.76 61.5668 182.346C62.0941 182.925 62.4619 183.693 62.6702 184.65C62.8785 185.607 62.8655 186.786 62.6311 188.185L62.4749 189.162H50.9131L51.2256 187.17H60.4438C60.5935 186.324 60.5544 185.568 60.3266 184.904C60.1053 184.24 59.7179 183.716 59.1646 183.332C58.6177 182.948 57.9244 182.756 57.0846 182.756C56.2188 182.756 55.4115 182.99 54.6629 183.459C53.9142 183.921 53.2892 184.507 52.788 185.217C52.2867 185.92 51.9742 186.636 51.8505 187.365L51.5771 189.084C51.3818 190.327 51.4111 191.317 51.665 192.052C51.9254 192.788 52.3778 193.319 53.0223 193.644C53.6668 193.963 54.4741 194.123 55.4441 194.123C56.0625 194.123 56.6321 194.038 57.153 193.869C57.6738 193.693 58.1392 193.432 58.5494 193.087C58.9595 192.736 59.3045 192.3 59.5844 191.779L61.6937 192.404C61.3357 193.159 60.8311 193.823 60.1801 194.396C59.5356 194.962 58.7805 195.405 57.9146 195.724C57.0553 196.036 56.1146 196.193 55.0925 196.193ZM85.2128 184.24L83.0255 184.826C82.9473 184.475 82.8106 184.136 82.6153 183.811C82.4265 183.479 82.1336 183.208 81.7365 183C81.3459 182.785 80.8121 182.678 80.135 182.678C79.2171 182.678 78.4196 182.889 77.7426 183.313C77.0655 183.729 76.6782 184.26 76.5805 184.904C76.4829 185.471 76.6131 185.923 76.9711 186.262C77.3292 186.6 77.9281 186.877 78.7679 187.092L80.9162 187.639C82.2052 187.971 83.1231 188.469 83.67 189.133C84.2233 189.79 84.4121 190.646 84.2363 191.701C84.0931 192.56 83.7188 193.328 83.1134 194.005C82.5079 194.682 81.7332 195.216 80.7893 195.607C79.8453 195.997 78.7939 196.193 77.6352 196.193C76.0923 196.193 74.8749 195.861 73.983 195.197C73.0912 194.526 72.6159 193.556 72.5573 192.287L74.8619 191.74C74.9205 192.541 75.2069 193.146 75.7212 193.556C76.242 193.96 76.9711 194.162 77.9086 194.162C78.9827 194.162 79.8779 193.934 80.594 193.478C81.3101 193.016 81.717 192.462 81.8146 191.818C81.9123 191.291 81.8081 190.851 81.5021 190.5C81.2027 190.148 80.6819 189.885 79.9397 189.709L77.557 189.123C76.229 188.791 75.2981 188.283 74.7642 187.599C74.2369 186.916 74.0611 186.057 74.2369 185.022C74.3801 184.175 74.7447 183.427 75.3306 182.776C75.923 182.125 76.6652 181.614 77.557 181.242C78.4554 180.871 79.4319 180.686 80.4866 180.686C81.9708 180.686 83.0808 181.011 83.8164 181.662C84.5521 182.307 85.0175 183.166 85.2128 184.24ZM96.0252 180.881L95.7127 182.834H87.9397L88.2522 180.881H96.0252ZM91.1036 177.288H93.4082L91.0255 191.584C90.9213 192.235 90.9376 192.723 91.0743 193.048C91.2175 193.367 91.4324 193.582 91.7188 193.693C92.0118 193.797 92.3275 193.849 92.666 193.849C92.9199 193.849 93.1282 193.836 93.291 193.81C93.4537 193.778 93.5839 193.751 93.6816 193.732L93.8378 195.802C93.6621 195.861 93.4244 195.919 93.125 195.978C92.832 196.043 92.4707 196.076 92.0411 196.076C91.3901 196.076 90.7781 195.936 90.2052 195.656C89.6323 195.376 89.1929 194.949 88.8869 194.376C88.581 193.804 88.4996 193.081 88.6428 192.209L91.1036 177.288ZM103.022 196.193C101.642 196.193 100.486 195.864 99.5553 195.206C98.6243 194.549 97.9668 193.628 97.5827 192.443C97.2051 191.258 97.1433 189.878 97.3972 188.303C97.6446 186.766 98.1361 185.428 98.8717 184.289C99.6139 183.143 100.535 182.258 101.635 181.633C102.742 181.002 103.959 180.686 105.287 180.686C106.667 180.686 107.82 181.018 108.744 181.682C109.675 182.339 110.333 183.264 110.717 184.455C111.101 185.64 111.166 187.027 110.912 188.615C110.665 190.138 110.167 191.47 109.418 192.609C108.676 193.742 107.755 194.624 106.654 195.255C105.561 195.88 104.35 196.193 103.022 196.193ZM103.061 194.123C104.116 194.123 105.03 193.852 105.805 193.312C106.586 192.772 107.218 192.059 107.699 191.173C108.188 190.288 108.516 189.331 108.686 188.303C108.842 187.326 108.835 186.418 108.666 185.578C108.497 184.732 108.136 184.052 107.582 183.537C107.029 183.016 106.251 182.756 105.248 182.756C104.194 182.756 103.273 183.029 102.485 183.576C101.704 184.123 101.072 184.842 100.59 185.734C100.109 186.626 99.7864 187.586 99.6236 188.615C99.4674 189.592 99.4706 190.5 99.6334 191.339C99.8027 192.173 100.164 192.847 100.717 193.361C101.277 193.869 102.058 194.123 103.061 194.123ZM112.301 201.505L115.758 180.881H117.984L117.594 183.264H117.867C118.076 183.003 118.362 182.671 118.727 182.268C119.098 181.858 119.596 181.493 120.221 181.174C120.852 180.849 121.656 180.686 122.633 180.686C123.895 180.686 124.953 181.002 125.806 181.633C126.659 182.265 127.261 183.16 127.613 184.318C127.964 185.477 128.01 186.844 127.749 188.42C127.489 190.008 126.991 191.385 126.255 192.55C125.52 193.709 124.621 194.608 123.56 195.246C122.499 195.877 121.344 196.193 120.094 196.193C119.13 196.193 118.385 196.033 117.857 195.714C117.33 195.389 116.946 195.021 116.705 194.611C116.464 194.194 116.279 193.849 116.149 193.576H115.953L114.625 201.505H112.301ZM116.774 188.381C116.591 189.513 116.591 190.513 116.774 191.379C116.962 192.238 117.337 192.912 117.896 193.4C118.463 193.882 119.208 194.123 120.133 194.123C121.096 194.123 121.939 193.869 122.662 193.361C123.391 192.847 123.99 192.157 124.459 191.291C124.934 190.418 125.263 189.448 125.445 188.381C125.614 187.326 125.608 186.376 125.425 185.529C125.243 184.676 124.872 184.003 124.312 183.508C123.752 183.007 122.984 182.756 122.008 182.756C121.07 182.756 120.24 182.994 119.517 183.469C118.801 183.938 118.209 184.595 117.74 185.441C117.278 186.281 116.956 187.261 116.774 188.381ZM146.935 180.881L146.623 182.834H138.537L138.85 180.881H146.935ZM138.772 195.88L141.623 178.811C141.753 177.952 142.066 177.235 142.561 176.663C143.062 176.09 143.658 175.66 144.348 175.374C145.044 175.087 145.751 174.944 146.467 174.944C147.033 174.944 147.485 174.99 147.824 175.081C148.169 175.172 148.42 175.256 148.576 175.335L147.599 177.327C147.482 177.288 147.326 177.239 147.131 177.18C146.942 177.122 146.681 177.092 146.349 177.092C145.588 177.092 145.008 177.284 144.611 177.668C144.214 178.053 143.947 178.616 143.811 179.358L141.076 195.88H138.772ZM153.239 196.193C151.859 196.193 150.703 195.864 149.772 195.206C148.841 194.549 148.184 193.628 147.8 192.443C147.422 191.258 147.36 189.878 147.614 188.303C147.861 186.766 148.353 185.428 149.089 184.289C149.831 183.143 150.752 182.258 151.852 181.633C152.959 181.002 154.176 180.686 155.504 180.686C156.884 180.686 158.037 181.018 158.961 181.682C159.892 182.339 160.549 183.264 160.934 184.455C161.318 185.64 161.383 187.027 161.129 188.615C160.881 190.138 160.383 191.47 159.635 192.609C158.893 193.742 157.971 194.624 156.871 195.255C155.778 195.88 154.567 196.193 153.239 196.193ZM153.278 194.123C154.332 194.123 155.247 193.852 156.022 193.312C156.803 192.772 157.434 192.059 157.916 191.173C158.404 190.288 158.733 189.331 158.902 188.303C159.059 187.326 159.052 186.418 158.883 185.578C158.714 184.732 158.352 184.052 157.799 183.537C157.246 183.016 156.468 182.756 155.465 182.756C154.41 182.756 153.489 183.029 152.702 183.576C151.92 184.123 151.289 184.842 150.807 185.734C150.325 186.626 150.003 187.586 149.84 188.615C149.684 189.592 149.687 190.5 149.85 191.339C150.019 192.173 150.381 192.847 150.934 193.361C151.494 193.869 152.275 194.123 153.278 194.123ZM163.455 195.88L165.955 180.881H168.182L167.791 183.147H167.947C168.338 182.404 168.934 181.802 169.734 181.34C170.535 180.878 171.385 180.647 172.283 180.647C172.459 180.647 172.67 180.65 172.918 180.657C173.165 180.657 173.357 180.666 173.494 180.686L173.103 183.029C173.025 183.01 172.849 182.981 172.576 182.942C172.303 182.896 172.01 182.873 171.697 182.873C170.968 182.873 170.294 183.026 169.676 183.332C169.057 183.632 168.54 184.048 168.123 184.582C167.706 185.109 167.44 185.712 167.322 186.389L165.76 195.88H163.455ZM187.665 196.193C186.285 196.193 185.13 195.864 184.199 195.206C183.268 194.549 182.61 193.628 182.226 192.443C181.849 191.258 181.787 189.878 182.041 188.303C182.288 186.766 182.78 185.428 183.515 184.289C184.257 183.143 185.179 182.258 186.279 181.633C187.385 181.002 188.603 180.686 189.931 180.686C191.311 180.686 192.463 181.018 193.388 181.682C194.319 182.339 194.976 183.264 195.36 184.455C195.744 185.64 195.809 187.027 195.556 188.615C195.308 190.138 194.81 191.47 194.061 192.609C193.319 193.742 192.398 194.624 191.298 195.255C190.204 195.88 188.993 196.193 187.665 196.193ZM187.704 194.123C188.759 194.123 189.674 193.852 190.448 193.312C191.23 192.772 191.861 192.059 192.343 191.173C192.831 190.288 193.16 189.331 193.329 188.303C193.485 187.326 193.479 186.418 193.31 185.578C193.14 184.732 192.779 184.052 192.226 183.537C191.672 183.016 190.894 182.756 189.892 182.756C188.837 182.756 187.916 183.029 187.128 183.576C186.347 184.123 185.716 184.842 185.234 185.734C184.752 186.626 184.43 187.586 184.267 188.615C184.111 189.592 184.114 190.5 184.277 191.339C184.446 192.173 184.807 192.847 185.361 193.361C185.921 193.869 186.702 194.123 187.704 194.123ZM197.882 195.88L200.382 180.881H202.608L202.218 183.147H202.374C202.765 182.404 203.36 181.802 204.161 181.34C204.962 180.878 205.811 180.647 206.71 180.647C206.885 180.647 207.097 180.65 207.344 180.657C207.592 180.657 207.784 180.666 207.921 180.686L207.53 183.029C207.452 183.01 207.276 182.981 207.003 182.942C206.729 182.896 206.436 182.873 206.124 182.873C205.395 182.873 204.721 183.026 204.102 183.332C203.484 183.632 202.966 184.048 202.55 184.582C202.133 185.109 201.866 185.712 201.749 186.389L200.187 195.88H197.882ZM212.827 201.817C211.708 201.817 210.77 201.674 210.015 201.388C209.26 201.108 208.655 200.737 208.199 200.275C207.743 199.819 207.398 199.331 207.164 198.81L209.234 197.521C209.39 197.794 209.592 198.107 209.839 198.458C210.087 198.816 210.461 199.126 210.962 199.386C211.47 199.653 212.183 199.786 213.101 199.786C214.305 199.786 215.36 199.493 216.265 198.907C217.17 198.322 217.73 197.404 217.944 196.154L218.413 193.107H218.218C218.009 193.38 217.72 193.719 217.349 194.123C216.978 194.52 216.48 194.874 215.855 195.187C215.23 195.493 214.429 195.646 213.452 195.646C212.235 195.646 211.193 195.359 210.328 194.787C209.462 194.214 208.84 193.38 208.463 192.287C208.091 191.193 208.036 189.865 208.297 188.303C208.55 186.766 209.039 185.428 209.761 184.289C210.49 183.143 211.389 182.258 212.456 181.633C213.524 181.002 214.689 180.686 215.952 180.686C216.929 180.686 217.677 180.849 218.198 181.174C218.726 181.493 219.11 181.858 219.351 182.268C219.591 182.671 219.774 183.003 219.897 183.264H220.132L220.522 180.881H222.749L220.21 196.31C219.995 197.599 219.53 198.647 218.813 199.454C218.097 200.268 217.219 200.864 216.177 201.241C215.135 201.625 214.019 201.817 212.827 201.817ZM214.038 193.576C214.956 193.576 215.773 193.364 216.489 192.941C217.212 192.518 217.811 191.909 218.286 191.115C218.761 190.321 219.09 189.37 219.272 188.264C219.455 187.183 219.442 186.229 219.233 185.402C219.025 184.576 218.631 183.928 218.052 183.459C217.479 182.99 216.727 182.756 215.796 182.756C214.813 182.756 213.963 183.003 213.247 183.498C212.538 183.993 211.962 184.657 211.519 185.49C211.076 186.324 210.77 187.248 210.601 188.264C210.432 189.305 210.438 190.226 210.621 191.027C210.803 191.821 211.174 192.446 211.734 192.902C212.3 193.351 213.068 193.576 214.038 193.576ZM228.842 196.232C227.892 196.232 227.058 196.053 226.342 195.695C225.626 195.33 225.096 194.806 224.751 194.123C224.406 193.432 224.311 192.599 224.467 191.623C224.617 190.763 224.907 190.067 225.337 189.533C225.766 188.993 226.287 188.569 226.899 188.264C227.517 187.951 228.181 187.72 228.891 187.57C229.607 187.414 230.32 187.294 231.03 187.209C231.954 187.092 232.706 187.001 233.285 186.935C233.865 186.87 234.301 186.763 234.594 186.613C234.887 186.463 235.066 186.206 235.131 185.842V185.764C235.287 184.807 235.16 184.061 234.75 183.527C234.34 182.987 233.608 182.717 232.553 182.717C231.459 182.717 230.545 182.958 229.809 183.44C229.073 183.921 228.53 184.436 228.178 184.982L226.147 184.201C226.681 183.29 227.319 182.58 228.061 182.072C228.803 181.558 229.581 181.2 230.395 180.998C231.209 180.79 231.993 180.686 232.748 180.686C233.23 180.686 233.774 180.744 234.379 180.862C234.984 180.972 235.551 181.203 236.078 181.555C236.612 181.906 237.012 182.437 237.279 183.147C237.553 183.856 237.592 184.807 237.396 185.998L235.756 195.88H233.451L233.803 193.849H233.686C233.477 194.175 233.158 194.523 232.729 194.894C232.306 195.265 231.768 195.581 231.117 195.841C230.473 196.102 229.715 196.232 228.842 196.232ZM229.506 194.162C230.418 194.162 231.215 193.983 231.899 193.625C232.589 193.266 233.142 192.804 233.559 192.238C233.982 191.672 234.246 191.076 234.35 190.451L234.701 188.342C234.584 188.459 234.353 188.566 234.008 188.664C233.663 188.755 233.272 188.836 232.836 188.908C232.406 188.973 231.987 189.032 231.576 189.084C231.173 189.129 230.847 189.168 230.6 189.201C229.988 189.279 229.405 189.406 228.852 189.582C228.305 189.751 227.843 190.008 227.465 190.353C227.094 190.692 226.863 191.154 226.772 191.74C226.635 192.541 226.827 193.146 227.348 193.556C227.869 193.96 228.588 194.162 229.506 194.162ZM243.751 186.857L242.267 195.88H239.962L242.462 180.881H244.688L244.298 183.225H244.493C244.962 182.463 245.597 181.851 246.397 181.389C247.198 180.92 248.165 180.686 249.298 180.686C250.3 180.686 251.146 180.894 251.836 181.311C252.533 181.721 253.025 182.346 253.311 183.186C253.604 184.019 253.646 185.074 253.438 186.35L251.836 195.88H249.532L251.094 186.506C251.29 185.334 251.137 184.416 250.635 183.752C250.141 183.088 249.356 182.756 248.282 182.756C247.54 182.756 246.853 182.916 246.222 183.234C245.597 183.553 245.066 184.019 244.63 184.631C244.2 185.243 243.907 185.985 243.751 186.857ZM256.048 195.88L258.547 180.881H260.852L258.352 195.88H256.048ZM260.403 178.342C259.954 178.342 259.566 178.189 259.241 177.883C258.922 177.577 258.762 177.209 258.762 176.78C258.762 176.35 258.922 175.982 259.241 175.676C259.566 175.37 259.954 175.217 260.403 175.217C260.852 175.217 261.236 175.37 261.555 175.676C261.881 175.982 262.043 176.35 262.043 176.78C262.043 177.209 261.881 177.577 261.555 177.883C261.236 178.189 260.852 178.342 260.403 178.342ZM268.627 196.193C267.215 196.193 266.056 195.861 265.151 195.197C264.253 194.533 263.628 193.618 263.276 192.453C262.925 191.287 262.873 189.956 263.12 188.459C263.367 186.935 263.869 185.591 264.624 184.426C265.379 183.254 266.32 182.339 267.446 181.682C268.572 181.018 269.812 180.686 271.166 180.686C272.221 180.686 273.139 180.881 273.92 181.272C274.701 181.662 275.304 182.209 275.727 182.912C276.15 183.615 276.348 184.436 276.322 185.373H274.018C273.953 184.689 273.66 184.084 273.139 183.557C272.625 183.023 271.863 182.756 270.854 182.756C269.956 182.756 269.129 182.99 268.374 183.459C267.618 183.921 266.984 184.576 266.469 185.422C265.955 186.262 265.607 187.248 265.425 188.381C265.229 189.539 265.246 190.549 265.473 191.408C265.701 192.267 266.115 192.934 266.714 193.41C267.312 193.885 268.068 194.123 268.979 194.123C269.578 194.123 270.138 194.018 270.659 193.81C271.179 193.602 271.642 193.302 272.045 192.912C272.449 192.521 272.768 192.052 273.002 191.506H275.307C275.02 192.391 274.561 193.188 273.93 193.898C273.298 194.601 272.533 195.161 271.635 195.578C270.737 195.988 269.734 196.193 268.627 196.193ZM294.847 180.881L294.534 182.834H286.449L286.761 180.881H294.847ZM286.683 195.88L289.534 178.811C289.665 177.952 289.977 177.235 290.472 176.663C290.973 176.09 291.569 175.66 292.259 175.374C292.955 175.087 293.662 174.944 294.378 174.944C294.944 174.944 295.397 174.99 295.735 175.081C296.08 175.172 296.331 175.256 296.487 175.335L295.511 177.327C295.393 177.288 295.237 177.239 295.042 177.18C294.853 177.122 294.593 177.092 294.261 177.092C293.499 177.092 292.92 177.284 292.523 177.668C292.125 178.053 291.859 178.616 291.722 179.358L288.988 195.88H286.683ZM301.15 196.193C299.77 196.193 298.614 195.864 297.683 195.206C296.752 194.549 296.095 193.628 295.711 192.443C295.333 191.258 295.271 189.878 295.525 188.303C295.773 186.766 296.264 185.428 297 184.289C297.742 183.143 298.663 182.258 299.763 181.633C300.87 181.002 302.087 180.686 303.415 180.686C304.796 180.686 305.948 181.018 306.872 181.682C307.803 182.339 308.461 183.264 308.845 184.455C309.229 185.64 309.294 187.027 309.04 188.615C308.793 190.138 308.295 191.47 307.546 192.609C306.804 193.742 305.883 194.624 304.783 195.255C303.689 195.88 302.478 196.193 301.15 196.193ZM301.189 194.123C302.244 194.123 303.158 193.852 303.933 193.312C304.714 192.772 305.346 192.059 305.827 191.173C306.316 190.288 306.644 189.331 306.814 188.303C306.97 187.326 306.963 186.418 306.794 185.578C306.625 184.732 306.264 184.052 305.71 183.537C305.157 183.016 304.379 182.756 303.376 182.756C302.322 182.756 301.401 183.029 300.613 183.576C299.832 184.123 299.2 184.842 298.718 185.734C298.237 186.626 297.914 187.586 297.752 188.615C297.595 189.592 297.599 190.5 297.762 191.339C297.931 192.173 298.292 192.847 298.845 193.361C299.405 193.869 300.186 194.123 301.189 194.123ZM317.558 196.193C316.178 196.193 315.022 195.864 314.091 195.206C313.16 194.549 312.503 193.628 312.119 192.443C311.741 191.258 311.679 189.878 311.933 188.303C312.18 186.766 312.672 185.428 313.408 184.289C314.15 183.143 315.071 182.258 316.171 181.633C317.278 181.002 318.495 180.686 319.823 180.686C321.203 180.686 322.356 181.018 323.28 181.682C324.211 182.339 324.868 183.264 325.253 184.455C325.637 185.64 325.702 187.027 325.448 188.615C325.201 190.138 324.702 191.47 323.954 192.609C323.212 193.742 322.291 194.624 321.19 195.255C320.097 195.88 318.886 196.193 317.558 196.193ZM317.597 194.123C318.651 194.123 319.566 193.852 320.341 193.312C321.122 192.772 321.753 192.059 322.235 191.173C322.723 190.288 323.052 189.331 323.221 188.303C323.378 187.326 323.371 186.418 323.202 185.578C323.033 184.732 322.671 184.052 322.118 183.537C321.565 183.016 320.787 182.756 319.784 182.756C318.73 182.756 317.808 183.029 317.021 183.576C316.239 184.123 315.608 184.842 315.126 185.734C314.644 186.626 314.322 187.586 314.159 188.615C314.003 189.592 314.007 190.5 314.169 191.339C314.339 192.173 314.7 192.847 315.253 193.361C315.813 193.869 316.594 194.123 317.597 194.123ZM333.419 196.193C332.162 196.193 331.108 195.877 330.255 195.246C329.402 194.608 328.8 193.709 328.448 192.55C328.103 191.385 328.061 190.008 328.321 188.42C328.588 186.844 329.086 185.477 329.815 184.318C330.551 183.16 331.453 182.265 332.52 181.633C333.588 181.002 334.753 180.686 336.016 180.686C336.993 180.686 337.738 180.849 338.252 181.174C338.773 181.493 339.151 181.858 339.385 182.268C339.619 182.671 339.798 183.003 339.922 183.264H340.117L341.348 175.881H343.652L340.332 195.88H338.106L338.496 193.576H338.223C338.008 193.849 337.709 194.194 337.325 194.611C336.941 195.021 336.433 195.389 335.801 195.714C335.176 196.033 334.382 196.193 333.419 196.193ZM333.985 194.123C334.909 194.123 335.736 193.882 336.465 193.4C337.201 192.912 337.813 192.238 338.301 191.379C338.789 190.513 339.128 189.513 339.317 188.381C339.505 187.261 339.499 186.281 339.297 185.441C339.095 184.595 338.708 183.938 338.135 183.469C337.562 182.994 336.804 182.756 335.86 182.756C334.89 182.756 334.047 183.007 333.331 183.508C332.615 184.003 332.032 184.676 331.583 185.529C331.134 186.376 330.821 187.326 330.645 188.381C330.47 189.448 330.466 190.418 330.636 191.291C330.805 192.157 331.163 192.847 331.71 193.361C332.263 193.869 333.021 194.123 333.985 194.123ZM357.431 184.24L355.244 184.826C355.165 184.475 355.029 184.136 354.833 183.811C354.645 183.479 354.352 183.208 353.955 183C353.564 182.785 353.03 182.678 352.353 182.678C351.435 182.678 350.638 182.889 349.961 183.313C349.284 183.729 348.896 184.26 348.799 184.904C348.701 185.471 348.831 185.923 349.189 186.262C349.547 186.6 350.146 186.877 350.986 187.092L353.134 187.639C354.423 187.971 355.341 188.469 355.888 189.133C356.441 189.79 356.63 190.646 356.454 191.701C356.311 192.56 355.937 193.328 355.331 194.005C354.726 194.682 353.951 195.216 353.007 195.607C352.063 195.997 351.012 196.193 349.853 196.193C348.31 196.193 347.093 195.861 346.201 195.197C345.309 194.526 344.834 193.556 344.775 192.287L347.08 191.74C347.139 192.541 347.425 193.146 347.939 193.556C348.46 193.96 349.189 194.162 350.127 194.162C351.201 194.162 352.096 193.934 352.812 193.478C353.528 193.016 353.935 192.462 354.033 191.818C354.13 191.291 354.026 190.851 353.72 190.5C353.421 190.148 352.9 189.885 352.158 189.709L349.775 189.123C348.447 188.791 347.516 188.283 346.982 187.599C346.455 186.916 346.279 186.057 346.455 185.022C346.598 184.175 346.963 183.427 347.549 182.776C348.141 182.125 348.883 181.614 349.775 181.242C350.673 180.871 351.65 180.686 352.705 180.686C354.189 180.686 355.299 181.011 356.034 181.662C356.77 182.307 357.236 183.166 357.431 184.24ZM364.572 175.881L364.298 177.639C364.214 178.173 364.021 178.743 363.722 179.348C363.429 179.947 363.051 180.53 362.589 181.096C362.127 181.656 361.603 182.144 361.017 182.561L359.923 181.545C360.431 180.959 360.884 180.351 361.281 179.719C361.684 179.081 361.948 178.401 362.072 177.678L362.384 175.881H364.572ZM369.571 175.881L369.298 177.639C369.213 178.173 369.021 178.743 368.722 179.348C368.429 179.947 368.051 180.53 367.589 181.096C367.127 181.656 366.603 182.144 366.017 182.561L364.923 181.545C365.431 180.959 365.883 180.351 366.28 179.719C366.684 179.081 366.948 178.401 367.071 177.678L367.384 175.881H369.571Z" fill="#030404"/>
</g>
<defs>
<clipPath id="clip0_1_2">
<rect width="374" height="217" fill="white"/>
</clipPath>
</defs>
</svg>
